<?xml version="1.0" encoding="utf-8"?>
<!-- Generator: Adobe Illustrator 22.0.0, SVG Export Plug-In . SVG Version: 6.00 Build 0)  -->
<svg version="1.1" id="Layer_1" xmlns="http://www.w3.org/2000/svg" xmlns:xlink="http://www.w3.org/1999/xlink" x="0px" y="0px"
	 viewBox="0 0 104 88" style="enable-background:new 0 0 104 88;" xml:space="preserve">
<style type="text/css">
	.st0{fill:#ECECF4;}
	.st1{fill:#565E9D;}
</style>
<g>
	<path class="st0" d="M74.2,4h-8c-1.1,0-2-0.9-2-2v0c0-1.1,0.9-2,2-2h8c1.1,0,2,0.9,2,2v0C76.2,3.1,75.3,4,74.2,4z"/>
	<path class="st0" d="M71.7,88h-4c-0.8,0-1.5-0.7-1.5-1.5l0,0c0-0.8,0.7-1.5,1.5-1.5h4c0.8,0,1.5,0.7,1.5,1.5l0,0
		C73.2,87.3,72.5,88,71.7,88z"/>
	<path class="st0" d="M29,77.2c0,1.7-1.3,3-3,3h-5.5H14h-1.9c-0.1,0.3-0.1,0.7-0.1,1c0,2.2,1.8,4,4,4h39c1.3,0,2.4-0.6,3.2-1.6
		c3.7-0.6,7.2-1.8,10.4-3.4H84c2.2,0,4-1.8,4-4s-1.8-4-4-4h-4.6c0.9-1,1.8-2,2.6-3h18c2.2,0,4-1.8,4-4s-1.8-4-4-4h-7.8
		c0,0-4.8-5.1,0-10.6H98c2.2,0,4-1.8,4-4v-0.9c0-2.2-1.8-4-4-4h-8.2c-0.7-7.3-3.5-14-7.8-19.6h4c2.2,0,4-1.8,4-4s-1.8-4-4-4H73.6
		c-4.2-3-9.1-5.1-14.3-6.2C58.6,7,57.4,6.2,56,6.2H27c-2.2,0-4,1.8-4,4s1.8,4,4,4h2.4c-3.8,2.7-7.2,6.1-9.8,10H9.5
		c-3,0-5.5,2.5-5.5,5.5s2.5,5.5,5.5,5.5h5c-0.9,3.3-1.5,6.9-1.5,10.5c0,2.2,0.2,4.4,0.6,6.5H8.5c-4.7,0-8.5,3.8-8.5,8.5
		s3.8,8.5,8.5,8.5h11c-1.4,0-2.5,1.1-2.5,2.5c0,1.1,0.7,2,1.7,2.3c0,0.1,0.1,0.1,0.1,0.2h0.7H26c1.5,0,2.8,1.2,3,2.7"/>
	<path class="st1" d="M48.3,49l2,6h2.1l-6.3-18.5h-2.6L37.2,55h2l2-6H48.3z M43.4,41.8c0.3-1,0.6-2.1,1-3.4l0.1-0.2h0.4l0.1,0.2
		l0.1,0.2c0.3,1,0.5,2.1,0.9,3.3l2,5.8h-6.5L43.4,41.8z"/>
	<path class="st1" d="M62.8,53.3h0.5l0.2,1.7h1.7c-0.1-0.8-0.2-1.8-0.2-3v-5.1c0-3.5-1.7-5.3-4.9-5.3c-1.5,0-3.1,0.4-4.2,1.1
		l0.4,1.1c1-0.6,2.2-0.9,3.4-0.9c2.2,0,3.4,1.2,3.4,3.4v0.6l-0.3,0c0,0-0.1,0-0.1,0c-3.1,0-5.4,0.7-6.7,1.9
		c-0.8,0.8-1.1,1.7-1.1,2.9c0,1.8,1.2,3.7,3.9,3.7c1.6,0,3.1-0.7,4-1.9L62.8,53.3z M59.4,54.1c-1.6,0-2.6-1-2.6-2.6
		c0-0.8,0.3-1.5,0.8-2c0.9-0.9,2.7-1.4,5.3-1.3l0.3,0v2.6c0,0.3-0.1,0.6-0.2,0.9C62.5,52.7,61.4,54.1,59.4,54.1z"/>
</g>
</svg>
