<?xml version="1.0" encoding="utf-8"?>
<!-- Generator: Adobe Illustrator 22.0.0, SVG Export Plug-In . SVG Version: 6.00 Build 0)  -->
<svg version="1.1" id="Layer_1" xmlns="http://www.w3.org/2000/svg" xmlns:xlink="http://www.w3.org/1999/xlink" x="0px" y="0px"
	 viewBox="0 0 71 34.1" style="enable-background:new 0 0 71 34.1;" xml:space="preserve">
<style type="text/css">
	.st0{fill:#6B6B6B;}
</style>
<g>
	<g>
		<path class="st0" d="M4,31.2c0-1.6,1.3-2.9,2.9-2.9c0.7,0,1.3,0.2,1.8,0.6c0.3,0.2,0.3,0.6,0.1,0.9c-0.2,0.3-0.6,0.3-0.9,0.1
			c-0.3-0.2-0.7-0.4-1.1-0.4c-0.9,0-1.7,0.8-1.7,1.7c0,0.9,0.8,1.7,1.7,1.7c0.4,0,0.8-0.1,1.1-0.4c0.2-0.2,0.6-0.1,0.9,0.1
			c0.2,0.2,0.1,0.6-0.1,0.9c-0.5,0.4-1.1,0.6-1.8,0.6C5.4,34.1,4,32.8,4,31.2z"/>
		<path class="st0" d="M10.9,26c0.4,0,0.6,0.3,0.6,0.6v6.8c0,0.4-0.3,0.6-0.6,0.6s-0.6-0.3-0.6-0.6v-6.8C10.2,26.3,10.5,26,10.9,26z
			"/>
		<path class="st0" d="M17.6,31.2v2.3c0,0.3-0.3,0.6-0.6,0.6c-0.3,0-0.5-0.2-0.6-0.5c-0.4,0.3-1,0.5-1.5,0.5c-0.8,0-1.5-0.3-2-0.9
			c-0.5-0.5-0.8-1.2-0.8-2c0-0.8,0.3-1.5,0.8-2s1.2-0.9,2-0.9c0.6,0,1.1,0.2,1.5,0.5c0.1-0.3,0.3-0.5,0.6-0.5c0.3,0,0.6,0.3,0.6,0.6
			V31.2z M16.4,31.2c0-0.5-0.2-0.9-0.4-1.2c-0.3-0.3-0.7-0.5-1.1-0.5s-0.8,0.2-1.1,0.5c-0.3,0.3-0.4,0.7-0.4,1.2
			c0,0.5,0.2,0.9,0.4,1.2c0.3,0.3,0.7,0.4,1.1,0.4s0.8-0.2,1.1-0.4C16.3,32.1,16.4,31.7,16.4,31.2z"/>
		<path class="st0" d="M18.8,32.4c0.2-0.3,0.6-0.3,0.9-0.1c0.3,0.2,0.8,0.5,1.3,0.5c0.3,0,0.6-0.1,0.8-0.2c0.2-0.1,0.2-0.2,0.2-0.4
			c0-0.1,0-0.1,0-0.1c0,0-0.1-0.1-0.1-0.1c-0.2-0.1-0.5-0.2-0.9-0.3l0,0c-0.4-0.1-0.7-0.2-1-0.3c-0.3-0.1-0.6-0.4-0.8-0.7
			c-0.1-0.2-0.2-0.5-0.2-0.7c0-0.5,0.3-1,0.7-1.3c0.4-0.3,0.9-0.4,1.4-0.4c0.8,0,1.3,0.4,1.7,0.6c0.3,0.2,0.4,0.6,0.2,0.9
			c-0.2,0.3-0.6,0.4-0.9,0.2c-0.4-0.2-0.7-0.4-1-0.4c-0.3,0-0.6,0.1-0.7,0.2c-0.1,0.1-0.2,0.2-0.2,0.3s0,0.1,0,0.1
			c0,0,0.1,0.1,0.1,0.1c0.1,0.1,0.4,0.2,0.9,0.3l0,0l0,0c0.4,0.1,0.7,0.2,1.1,0.3c0.3,0.1,0.6,0.4,0.8,0.7c0.1,0.2,0.2,0.5,0.2,0.8
			c0,0.6-0.3,1-0.7,1.3s-0.9,0.5-1.5,0.5c-0.9,0-1.6-0.4-2-0.8C18.6,33.1,18.6,32.7,18.8,32.4z"/>
		<path class="st0" d="M24.1,32.4c0.2-0.3,0.6-0.3,0.9-0.1c0.3,0.2,0.8,0.5,1.3,0.5c0.3,0,0.6-0.1,0.8-0.2c0.2-0.1,0.2-0.2,0.2-0.4
			c0-0.1,0-0.1,0-0.1c0,0-0.1-0.1-0.1-0.1c-0.2-0.1-0.5-0.2-0.9-0.3l0,0c-0.4-0.1-0.7-0.2-1-0.3c-0.3-0.1-0.6-0.4-0.8-0.7
			c-0.1-0.2-0.2-0.5-0.2-0.7c0-0.5,0.3-1,0.7-1.3c0.4-0.3,0.9-0.4,1.4-0.4c0.8,0,1.3,0.4,1.7,0.6c0.3,0.2,0.4,0.6,0.2,0.9
			c-0.2,0.3-0.6,0.4-0.9,0.2c-0.4-0.2-0.7-0.4-1-0.4c-0.3,0-0.6,0.1-0.7,0.2c-0.1,0.1-0.2,0.2-0.2,0.3s0,0.1,0,0.1
			c0,0,0.1,0.1,0.1,0.1c0.1,0.1,0.4,0.2,0.9,0.3l0,0l0,0c0.4,0.1,0.7,0.2,1.1,0.3c0.3,0.1,0.6,0.4,0.8,0.7c0.1,0.2,0.2,0.5,0.2,0.8
			c0,0.6-0.3,1-0.7,1.3s-0.9,0.5-1.5,0.5c-0.9,0-1.6-0.4-2-0.8C23.9,33.1,23.9,32.7,24.1,32.4z"/>
	</g>
	<path class="st0" d="M11,11.4C10.3,11.1,9.6,11,8.8,11c-1.5,0-2.7,0.5-3.7,1.5c-1,1-1.5,2.3-1.5,3.7s0.5,2.7,1.5,3.7
		c1,1,2.3,1.6,3.7,1.5c4.9-0.2,6.9-3.9,7.9-4.9l0,0c0.3-0.3,0.8-0.5,1.3-0.5s0.9,0.2,1.3,0.5c0.4,0.4,0.5,0.8,0.5,1.3
		s-0.2,0.9-0.5,1.3l0,0c-1.7,1.7-4.2,5.8-10.4,6c-2.5,0.1-4.5-0.9-6.3-2.6C0.9,20.8,0,18.7,0,16.2s0.9-4.5,2.6-6.3s3.8-2.6,6.3-2.6
		s4.5,0.9,6.2,2.6l0,0c0,0,0,0,0,0c0.3,0.3,0.5,0.8,0.5,1.3s-0.2,0.9-0.5,1.2l-5.1,5c-0.4,0.3-0.8,0.5-1.3,0.5s-0.9-0.2-1.3-0.5
		c-0.3-0.4-0.5-0.8-0.5-1.3c0-0.5,0.2-0.9,0.5-1.3L11,11.4z M34.1,16.1c0,2.4-0.9,4.5-2.6,6.2c-1.7,1.7-3.8,2.6-6.3,2.6
		S20.7,24,19,22.3c-1.7-1.7-2.6-3.8-2.6-6.3s0.9-4.5,2.6-6.3c1.7-1.7,3.8-2.6,6.3-2.6c2,0,3.7,0.6,5.3,1.7V3.6
		c0-0.5,0.2-0.9,0.5-1.3c0.4-0.4,0.8-0.5,1.3-0.5c0.5,0,0.9,0.2,1.3,0.5s0.5,0.8,0.5,1.3L34.1,16.1L34.1,16.1z M30.5,16.4
		c0-0.1,0-0.2,0-0.3v-0.7c-0.1-1.2-0.6-2.2-1.5-3.1c-1-1-2.3-1.5-3.7-1.5c-1.5,0-2.7,0.5-3.7,1.5c-1,1-1.5,2.3-1.5,3.7
		s0.5,2.7,1.5,3.7c1,1,2.3,1.5,3.7,1.5s2.7-0.5,3.7-1.5C29.9,18.8,30.4,17.7,30.5,16.4z"/>
	<path class="st0" d="M38.5,5.4c-0.5,0-0.9-0.2-1.3-0.5c-0.4-0.4-0.5-0.8-0.5-1.3s0.2-0.9,0.5-1.3c0.4-0.4,0.8-0.5,1.3-0.5
		c0.5,0,0.9,0.2,1.3,0.5c0.4,0.4,0.5,0.8,0.5,1.3s-0.2,0.9-0.5,1.3C39.4,5.2,39,5.4,38.5,5.4z M38.5,24.9c-0.5,0-0.9-0.2-1.3-0.5
		s-0.5-0.8-0.5-1.3V8.8c0-0.5,0.2-0.9,0.5-1.3C37.5,7.2,37.9,7,38.5,7c0.5,0,0.9,0.2,1.3,0.5c0.4,0.4,0.5,0.8,0.5,1.3v14.2
		c0,0.5-0.2,0.9-0.5,1.3C39.4,24.7,39,24.9,38.5,24.9z"/>
	<path class="st0" d="M46.3,7.1V4.4c0-1.2,0.4-2.3,1.3-3.1S49.5,0,50.7,0c0.5,0,0.9,0.2,1.3,0.5c0.4,0.3,0.5,0.8,0.5,1.3
		S52.3,2.7,52,3.1c-0.4,0.4-0.8,0.5-1.3,0.5c-0.2,0-0.5,0.1-0.6,0.3c-0.2,0.2-0.2,0.4-0.2,0.6v2.6h5.1c0.5,0,0.9,0.2,1.3,0.5
		c0.4,0.4,0.5,0.8,0.5,1.3c0,0.5-0.2,0.9-0.5,1.3c-0.4,0.4-0.8,0.5-1.3,0.5h-5.1v12.4c0,0.5-0.2,0.9-0.5,1.3
		C49,24.8,48.6,25,48.1,25c-0.5,0-0.9-0.2-1.3-0.5c-0.4-0.4-0.5-0.8-0.5-1.3V10.8h-2c-0.5,0-0.9-0.2-1.3-0.5s-0.5-0.8-0.5-1.3
		c0-0.5,0.2-0.9,0.5-1.3c0.4-0.4,0.8-0.5,1.3-0.5L46.3,7.1L46.3,7.1z M53.4,9.7c-0.1-0.2-0.2-0.6-0.2-0.9c0-0.5,0.2-0.9,0.5-1.3
		c0.3-0.3,0.8-0.5,1.3-0.5s0.9,0.2,1.3,0.5c0.2,0.2,0.3,0.4,0.4,0.7l5.5,10.9l5.4-10.9c0.1-0.2,0.2-0.5,0.4-0.7
		c0.3-0.3,0.8-0.5,1.3-0.5c0.5,0,0.9,0.2,1.3,0.5C70.8,7.9,71,8.4,71,8.9c0,0.3-0.1,0.6-0.2,0.8L60.3,30.8c-0.1,0.2-0.3,0.5-0.5,0.7
		c-0.4,0.4-0.8,0.5-1.3,0.5c-0.5,0-0.9-0.2-1.3-0.5c-0.3-0.4-0.5-0.8-0.5-1.3c0-0.4,0.1-0.7,0.2-1l3.1-6.1L53.4,9.7z"/>
</g>
</svg>
