<?xml version="1.0" encoding="utf-8"?>
<!-- Generator: Adobe Illustrator 16.0.0, SVG Export Plug-In . SVG Version: 6.00 Build 0)  -->
<!DOCTYPE svg PUBLIC "-//W3C//DTD SVG 1.1//EN" "http://www.w3.org/Graphics/SVG/1.1/DTD/svg11.dtd">
<svg version="1.1" id="Layer_1" xmlns="http://www.w3.org/2000/svg" xmlns:xlink="http://www.w3.org/1999/xlink" x="0px" y="0px"
	 width="200px" height="163.002px" viewBox="148.168 162.733 200 163.002" enable-background="new 148.168 162.733 200 163.002"
	 xml:space="preserve">
<g>
	<path opacity="0.35" fill="#E9ECF5" enable-background="new    " d="M185.612,182.583c0,0,102.242-41.233,128.229-4.843
		c0,0,22.511,37.31-0.785,83.968c-1.861,3.722-4.014,7.512-6.479,11.346c0,0-4.552,9.125-6.727,13.408
		c-8.095,16.03-30.896,47.466-84.283,18.923c-3.34-1.793-22.063-9.507-30.313-15.201c-7.758-5.358-13.408-12.265-18.004-20.247
		C167.249,269.914,145.074,207.202,185.612,182.583z"/>
	<path opacity="0.5" fill="#E9ECF5" enable-background="new    " d="M210.164,191.395c0,0,102.242-41.233,128.228-4.843
		c0,0,22.512,37.31-0.784,83.968c-1.861,3.723-4.014,7.512-6.48,11.346c0,0-4.551,9.125-6.727,13.408
		c-8.094,16.031-30.896,47.466-84.282,18.924c-3.341-1.794-22.063-9.507-30.314-15.202c-7.758-5.358-13.408-12.265-18.004-20.247
		C191.8,278.726,169.625,216.013,210.164,191.395z"/>
	<path fill="#E9CEF4" d="M297.36,221.551l0.135,71.278c0,3.497-3.116,6.346-6.995,6.368l-115.717,0.201
		c-3.856,0-6.996-2.825-7.018-6.322l-0.135-71.278c0-3.498,3.117-6.346,6.996-6.368l115.717-0.202
		C294.222,215.206,297.36,218.054,297.36,221.551z"/>
	<path fill="#FFFFFF" d="M174.244,221.372v66.748c0,2.176,1.39,3.946,3.117,3.946h110.65c1.569,0,2.848-1.614,2.848-3.609v-67.085
		H174.244z"/>
	<g>
		<path fill="#C490D5" d="M237.966,293.905c0.919,0,1.682,0.74,1.682,1.682c0,0.919-0.74,1.682-1.682,1.682
			c-0.919,0-1.682-0.739-1.682-1.682C236.285,294.668,237.047,293.905,237.966,293.905z"/>
		<path fill="#FFFFFF" d="M237.966,294.421c0.65,0,1.166,0.516,1.166,1.166s-0.516,1.166-1.166,1.166
			c-0.65,0-1.166-0.516-1.166-1.166C236.8,294.959,237.316,294.421,237.966,294.421z"/>
	</g>
	<g>
		<g>
			<path fill="#6A2DEA" d="M208.639,233.435c0,0-4.866,0.449-4.866-3.206s0-8.901,0-8.901h13.453v12.04L208.639,233.435z"/>
			<g>
				<path fill="#C490D5" d="M280.007,197.561l-62.557-0.897c0,0-5.381-0.897-5.381,4.484c0,5.381,0,26.906,0,26.906v2.915
					c0,0-0.74,2.466-3.43,2.466c2.354,0,32.354,0,32.354,0v-5.381h39.014V197.561z"/>
			</g>
			<g>
				<path fill="#F3DCFA" d="M280.455,196.664H217.45c5.157,0.224,4.709,7.848,4.709,7.848v79.574h61.367v-79.574
					C283.438,198.009,280.455,196.664,280.455,196.664z"/>
			</g>
		</g>
		<g>
			<g>
				<rect x="226.464" y="204.063" fill="#C490D5" width="52.399" height="7.354"/>
				<rect x="226.464" y="211.417" fill="#FFFFFF" width="52.399" height="67.981"/>
			</g>
			<path fill="#FFFFFF" d="M264.647,207.292c0,0.785-0.628,1.413-1.412,1.413c-0.785,0-1.413-0.628-1.413-1.413
				c0-0.785,0.628-1.413,1.413-1.413C264.02,205.879,264.647,206.529,264.647,207.292z"/>
			<path fill="#754BEA" d="M269.872,207.292c0,0.785-0.628,1.413-1.413,1.413c-0.784,0-1.412-0.628-1.412-1.413
				c0-0.785,0.628-1.413,1.412-1.413C269.244,205.879,269.872,206.529,269.872,207.292z"/>
			<path fill="#4215BC" d="M275.096,207.292c0,0.785-0.628,1.413-1.412,1.413s-1.413-0.628-1.413-1.413
				c0-0.785,0.629-1.413,1.413-1.413S275.096,206.529,275.096,207.292z"/>
		</g>
		<g>
			<rect x="231.464" y="259.22" fill="#F3DCFA" width="19.552" height="1.659"/>
			<rect x="231.464" y="262.202" fill="#F3DCFA" width="5.964" height="1.658"/>
			<rect x="239.424" y="262.202" fill="#F3DCFA" width="5.964" height="1.658"/>
			<rect x="247.697" y="262.202" fill="#F3DCFA" width="2.309" height="1.658"/>
			<rect x="231.8" y="266.506" fill="#F3DCFA" width="18.542" height="8.274"/>
		</g>
		<g>
			<rect x="254.76" y="259.22" fill="#F3DCFA" width="19.552" height="1.659"/>
			<rect x="254.76" y="262.202" fill="#F3DCFA" width="5.965" height="1.658"/>
			<rect x="262.697" y="262.202" fill="#F3DCFA" width="5.964" height="1.658"/>
			<rect x="270.993" y="262.202" fill="#F3DCFA" width="2.31" height="1.658"/>
			<rect x="255.097" y="266.506" fill="#F3DCFA" width="18.542" height="8.274"/>
		</g>
		<g>
			<polygon fill="#F3DCFA" points="260.522,222.538 233.078,222.74 233.056,220.587 260.5,220.386 			"/>
			<polygon fill="#F3DCFA" points="258.571,227.381 235.141,227.561 235.119,225.946 258.549,225.767 			"/>
			<polygon fill="#F3DCFA" points="260.343,233.793 233.571,233.996 233.549,232.381 260.32,232.179 			"/>
			<polygon fill="#F3DCFA" points="259.087,240.767 234.984,240.968 234.962,239.354 259.064,239.175 			"/>
			<polygon fill="#F3DCFA" points="254.154,247.246 240.096,247.359 240.074,245.744 254.132,245.632 			"/>
			<g>
				<path fill="#F3DCFA" d="M262.249,225.744v-0.336c0-3.43,2.779-6.21,6.21-6.21l0,0c3.431,0,6.211,2.78,6.211,6.21l0,0v0.336
					c0,3.431-2.78,6.211-6.211,6.211l0,0C265.052,231.955,262.271,229.175,262.249,225.744L262.249,225.744z M265.41,222.336
					c-0.785,0.785-1.278,1.861-1.278,3.072l0,0v0.336c0,1.211,0.493,2.287,1.278,3.072l0,0c0.785,0.785,1.861,1.278,3.071,1.278l0,0
					c1.211,0,2.287-0.494,3.072-1.278l0,0c0.784-0.785,1.278-1.861,1.278-3.072l0,0v-0.336c0-1.21-0.494-2.287-1.278-3.072l0,0
					c-0.785-0.785-1.861-1.278-3.072-1.278l0,0C267.271,221.058,266.195,221.551,265.41,222.336L265.41,222.336z"/>
				<path fill="#F3DCFA" d="M266.441,227.874c-0.336-0.157-0.538-0.493-0.538-0.852l0,0v-4.014c0-0.516,0.426-0.942,0.941-0.942l0,0
					c0.516,0,0.942,0.426,0.942,0.942l0,0v2.018l6.838-5.65c0.404-0.336,0.986-0.269,1.323,0.135l0,0
					c0.336,0.403,0.269,0.986-0.135,1.323l0,0l-8.386,6.928c-0.18,0.134-0.381,0.224-0.604,0.224l0,0
					C266.71,227.964,266.576,227.941,266.441,227.874L266.441,227.874z"/>
			</g>
			<g>
				<path fill="#E0B9EF" d="M262.249,240.767v-0.336c0-3.43,2.779-6.21,6.21-6.21l0,0c3.431,0,6.211,2.78,6.211,6.21l0,0v0.336
					c0,3.43-2.78,6.21-6.211,6.21l0,0C265.052,246.977,262.271,244.197,262.249,240.767L262.249,240.767z M265.41,237.358
					c-0.785,0.785-1.278,1.861-1.278,3.072l0,0v0.336c0,1.211,0.493,2.287,1.278,3.072l0,0c0.785,0.785,1.861,1.278,3.071,1.278l0,0
					c1.211,0,2.287-0.493,3.072-1.278l0,0c0.784-0.785,1.278-1.861,1.278-3.072l0,0v-0.336c0-1.21-0.494-2.287-1.278-3.072l0,0
					c-0.785-0.785-1.861-1.278-3.072-1.278l0,0C267.271,236.081,266.195,236.574,265.41,237.358L265.41,237.358z"/>
				<path fill="#E0B9EF" d="M266.441,242.896c-0.336-0.157-0.538-0.493-0.538-0.852l0,0v-4.013c0-0.516,0.426-0.942,0.941-0.942l0,0
					c0.516,0,0.942,0.426,0.942,0.942l0,0v2.018l6.838-5.65c0.404-0.336,0.986-0.269,1.323,0.134l0,0
					c0.336,0.404,0.269,0.987-0.135,1.323l0,0l-8.386,6.928c-0.18,0.134-0.381,0.224-0.604,0.224l0,0
					C266.71,242.986,266.576,242.964,266.441,242.896L266.441,242.896z"/>
			</g>
		</g>
	</g>
	<g>
		<path fill="#F7A184" d="M304.154,293.3c-0.74,0-1.323-0.605-1.323-1.322v-0.022v-0.022c-0.021-0.067-1.569-6.076-0.986-10.763
			v-0.022v-0.022c0-1.144,0.92-2.063,2.063-2.063s2.063,0.919,2.063,2.063v0.045l0.022-0.022v0.18v0.045
			c0.426,5.381-0.022,7.87-0.493,10.426v0.022v0.022v0.09v0.022l-0.023,0.022C305.478,292.694,304.895,293.3,304.154,293.3
			L304.154,293.3z"/>
		<path fill="#F7A184" d="M305.208,302.964l-1.323,0.022l-0.089-1.121c-0.045-0.359-0.112-0.718-0.157-1.076
			c-0.336-2.176-0.785-5.135-0.808-9.282c0-0.74,0.583-1.323,1.301-1.346c0.718,0,1.301,0.561,1.345,1.278l0.023-0.022v0.134v0.023
			v0.021c0.089,0.471,0.381,2.242,0.313,4.776C305.724,298.905,305.32,302.179,305.208,302.964L305.208,302.964z"/>
		<path fill="#070707" d="M302.988,302.874L302.988,302.874c0,0-0.022,0-0.045,0h-0.045c-0.313,0-1.345,0.112-1.322,1.256v0.561
			l3.834-0.045l-0.022-1.794L302.988,302.874z"/>
		<path fill="#F7A184" d="M297.607,292.852c-0.695-0.201-1.099-0.941-0.896-1.637v-0.022v-0.022c0-0.067,0.201-6.256,2.106-10.605
			l0,0v-0.022c0.314-1.099,1.48-1.727,2.557-1.39c1.099,0.313,1.727,1.479,1.391,2.556l0.021,0.022l-0.045,0.157l-0.021,0.045
			c-1.122,5.269-2.265,7.533-3.408,9.865v0.022v0.022l-0.022,0.09v-0.022l-0.022,0.045v0.022v0.021
			C299.042,292.65,298.303,293.054,297.607,292.852L297.607,292.852z"/>
		<path fill="#F7A184" d="M299.154,303.255l-1.323,0.022l-0.089-1.121c-0.045-0.358-0.112-0.694-0.18-1.076
			c-0.358-2.175-0.83-5.134-0.852-9.282c-0.023-0.74,0.56-1.346,1.3-1.346c0.718-0.021,1.323,0.538,1.345,1.256l0.023-0.022v0.135
			v0.022v0.022c0.089,0.471,0.403,2.242,0.336,4.775C299.647,299.197,299.267,302.471,299.154,303.255L299.154,303.255z"/>
		<path fill="#070707" d="M296.935,303.188L296.935,303.188c0,0-0.022,0-0.045,0h-0.045c-0.313,0-1.345,0.135-1.322,1.256v0.561
			l3.833-0.067l-0.021-1.793L296.935,303.188z"/>
		<g>
			<g>
				<path fill="#F7A184" d="M297.563,271.462L297.563,271.462l0.067,0.045c0.179,0.201,0.448,0.291,0.739,0.291
					c0.292,0,0.583-0.112,0.785-0.291c0.022-0.022,0.045-0.045,0.067-0.067c0.381-0.403,0.403-1.055,0.045-1.458
					c-0.202-0.403-1.323-2.556-4.731-5.179c-0.179-0.202-0.426-0.314-0.695-0.337c-0.269-0.022-0.538,0.067-0.739,0.27
					c-0.022,0.022-0.045,0.045-0.067,0.067c-0.358,0.381-0.358,0.986-0.022,1.39l0.09,0.09l0.112,0.157
					C295.275,269.331,296.239,270.52,297.563,271.462z"/>
			</g>
			<g>
				<g>
					<path fill="#310799" d="M297.54,271.462L297.54,271.462l0.067,0.045c0.381,0.426,1.121,0.358,1.524,0
						c0.022-0.022,0.045-0.045,0.067-0.067c0.381-0.403,0.403-1.055,0.067-1.436c-0.067-0.246-0.426-1.144-2.13-2.893l-0.045-0.044
						l-0.045,0.044c-0.538,0.427-1.301,1.055-1.951,1.682l-0.045,0.045l0.045,0.045C296.284,270.408,296.644,270.812,297.54,271.462
						z"/>
				</g>
			</g>
			<g>
				<path fill="#F7A184" d="M294.334,266.35c0.067-0.045,0.135-0.112,0.201-0.157c0.314-0.336,0.359-0.852,0.112-1.233
					c-0.022-0.021-1.86-3.139-3.924-5.134l0,0h-0.022l-0.066-0.023l-0.023-0.021l-0.021,0.021l-0.629,0.382l-0.045,0.022
					l0.023,0.045c0.021,0.089,0.066,0.179,0.111,0.313c0.314,0.83,1.054,2.803,2.826,5.381l0.066,0.09
					C293.235,266.506,293.863,266.641,294.334,266.35z"/>
			</g>
		</g>
		<path fill="#070707" d="M304.939,268.95c0,1.839-1.503,3.341-3.342,3.341c-1.838,0-3.34-1.502-3.34-3.341s1.502-3.341,3.34-3.341
			C303.437,265.587,304.939,267.09,304.939,268.95z"/>
		<g>
			<path fill="#310799" d="M304.895,268.727c-0.045,0-0.09,0-0.135,0c-0.493,0-4.687,0-5.763,0c-0.045,0-0.111,0-0.18-0.023
				c-1.883-0.111-2.488,0.673-2.196,1.525c0.269,0.808,0.516,0.538,1.255,0.739c-0.045,0-0.089,3.14-0.089,3.364l-0.225,5.874h8.386
				l-0.427-8.946c0.09,0.022,0.18,0.022,0.27,0.022c0.628-0.045,1.301,0.022,1.322-0.986
				C307.137,269.398,307.203,268.727,304.895,268.727z"/>
		</g>
		<rect x="300.611" y="266.014" fill="#F3937B" width="1.637" height="3.654"/>
		<path fill="#F3937B" d="M299.984,268.928c0.021,0.896,0.739,1.592,1.637,1.592c0.896,0,1.613-0.717,1.637-1.592H299.984z"/>
		<path fill="#1692EF" d="M297.585,280.206h8.363l-0.045-1.256h-8.273C297.607,279.69,297.585,280.206,297.585,280.206z"/>
		<polygon fill="#6A2DEA" points="297.585,279.735 305.881,279.735 307.652,288.412 295.971,288.412 		"/>
		<path fill="#F7A184" d="M303.123,266.484c0,0.627-0.516,1.144-1.144,1.144h-1.884c-0.628,0-1.322-0.493-1.322-1.122l-0.292-1.973
			c0-0.628,0.516-1.144,1.144-1.144h2.354c0.628,0,1.144,0.516,1.144,1.144V266.484L303.123,266.484z"/>
		<path fill="#070707" d="M307.405,268.031c0-0.964-0.74-1.771-1.682-1.884c-0.045-0.336-0.269-0.628-0.583-0.762
			c0.18-0.202,0.292-0.472,0.292-0.763c0-0.538-0.381-0.986-0.875-1.099c0-0.112,0-0.179,0-0.179S304.49,262,302.563,262
			c-0.695,0-1.435,0-2.13,0c-0.292-0.403-0.763-0.695-1.301-0.695c-0.874,0-1.592,0.718-1.592,1.592s0.718,1.592,1.592,1.592
			c0.067,0,0.135,0,0.18-0.022c0.022,0,0.044,0,0.067,0h2.69v0.74c0,0,0.627-0.382,0.852-0.202s-0.045,1.01-0.694,1.121v1.906
			c0,0,0.066,1.637,1.771,1.928c0,0,1.929-0.022,1.861-0.09C306.732,269.735,307.405,268.95,307.405,268.031z"/>
		<path fill="#F7A184" d="M308.885,283.211h0.067l0.875-0.113h0.066l0.023,0.045l0.021,0.045c0.023,0.023,0.382,0.785,0.472,1.188
			c0.045,0.247-0.112,0.494-0.202,0.628c-0.18,0.225-0.426,0.404-0.605,0.404c-0.022,0-0.045,0-0.067,0
			c-0.291-0.045-0.695-0.427-0.717-0.562c-0.023-0.111,0.134-0.403,0.201-0.538l-0.112-1.009L308.885,283.211z"/>
		<path fill="#F7A184" d="M307.069,269.893L307.069,269.893l-0.045-0.068c-0.09-0.246-0.292-0.448-0.583-0.56
			c-0.27-0.112-0.583-0.112-0.83-0.023c-0.022,0-0.045,0.023-0.066,0.023c-0.493,0.224-0.785,0.829-0.605,1.322
			c0.022,0.449,0.246,2.87,2.376,6.592c0.09,0.247,0.27,0.448,0.517,0.583c0.246,0.112,0.515,0.135,0.784,0.045
			c0.022,0,0.045-0.022,0.067-0.022c0.471-0.224,0.717-0.762,0.538-1.277l-0.045-0.112l-0.045-0.202
			C308.347,272.739,307.921,271.282,307.069,269.893z"/>
		<path fill="#310799" d="M307.069,269.893L307.069,269.893l-0.045-0.068c-0.202-0.537-0.897-0.762-1.413-0.583
			c-0.022,0-0.045,0.023-0.066,0.023c-0.493,0.224-0.785,0.829-0.605,1.3c-0.022,0.247-0.045,1.233,0.874,3.476l0.022,0.067
			l0.067-0.022c0.65-0.18,1.614-0.493,2.443-0.808l0.067-0.022l-0.022-0.066C307.832,271.35,307.675,270.856,307.069,269.893z"/>
		<path fill="#F7A184" d="M308.101,275.855c-0.09,0.023-0.18,0.046-0.247,0.068c-0.426,0.179-0.65,0.65-0.583,1.099
			c0,0.045,0.538,3.609,1.659,6.255v0.022l0,0l0.045,0.045l0.022,0.022h0.045l0.74-0.112h0.067v-0.067c0-0.09,0-0.201,0-0.336
			c0.022-0.896,0.089-2.982-0.561-6.054l-0.022-0.112C309.154,276.147,308.639,275.767,308.101,275.855z"/>
		<path fill="#F7A184" d="M288.729,258.479c0.09-0.09,0.135-0.135,0.246-0.225l-1.009-0.941c-0.09-0.09-0.09-0.202,0-0.291l0,0
			c0.09-0.09,0.225-0.135,0.313-0.045l1.413,1.322l0.067,0.067l0.561,0.516c0.358,0.337,0.403,0.853,0.09,1.188
			c-0.292,0.313-0.83,0.313-1.188-0.022l-0.583-0.538C288.303,259.175,288.437,258.815,288.729,258.479z"/>
	</g>
	<g>
		<g>
			<g>
				<path fill="#EDC006" d="M197.742,236.888L197.742,236.888v-0.022c0.112-1.39,1.345-2.444,2.735-2.332
					c1.39,0.112,2.444,1.345,2.332,2.736c0,0.089-0.045,11.233-0.067,11.435c-0.112,1.391-1.346,2.444-2.735,2.332
					c-1.346-0.111-2.377-1.255-2.332-2.6l0,0L197.742,236.888z"/>
			</g>
			<g>
				<path fill="#EDC006" d="M200.007,251.192L200.007,251.192c-0.045-0.022-0.09-0.022-0.135-0.022
					c-1.368-0.313-2.22-1.681-1.906-3.049c0.314-1.368,1.682-2.22,3.049-1.906c0.089,0.022,8.498,1.525,10.941,3.296l-0.269,1.839
					C211.666,251.35,206.285,252.246,200.007,251.192z"/>
			</g>
			<path fill="#F7A184" d="M215.612,251.35c0-0.157-0.157-0.292-0.358-0.292h0.583c0.202,0,0.359-0.111,0.359-0.291
				s-0.157-0.292-0.359-0.292h0.516c0.202,0,0.358-0.157,0.358-0.336c0-0.179-0.157-0.336-0.358-0.336h-0.449
				c0.202,0,0.359-0.157,0.359-0.337c0-0.179-0.157-0.336-0.359-0.336h-2.713l0.628-0.65c0.157-0.157,0.157-0.403,0.022-0.538l0,0
				c-0.135-0.134-0.381-0.112-0.539,0.067l-1.39,1.122c-0.426,0.269-0.874,0.627-0.874,1.278c0,0.694,0.561,1.211,1.233,1.211h0.65
				h0.471h1.861C215.455,251.641,215.612,251.506,215.612,251.35z"/>
		</g>
		<polygon fill="#A8A7A7" points="196.486,233.951 192.607,233.951 194.693,235.542 		"/>
		<g>
			<path fill="#FFDE00" d="M183.011,236.91c0-1.413,1.323-2.444,2.713-2.354c0.045,0,14.283,0,14.283,0
				c0.045,0,0.112,0.022,0.157,0.022c0.135,0,0.247-0.022,0.381,0c1.39,0.112,2.444,1.323,2.354,2.713
				c-0.089,1.099-0.852,1.996-1.861,2.265l-0.695,13.543l-13.543-0.157l-0.426-13.408
				C185.186,239.354,183.034,239.466,183.011,236.91z"/>
		</g>
		<polygon fill="#4C4C4C" points="200.343,253.099 186.8,252.964 186.756,251.888 200.388,251.888 		"/>
		<g>
			<g>
				<path fill="#3F3F3F" d="M193.011,256.865c0-2.063,1.659-3.722,3.722-3.722c2.063,0,3.722,1.659,3.722,3.722
					c0,0.225-0.134,10.694-1.435,14.663l-0.089,0.247l0,0c0,1.435-1.166,2.602-2.601,2.602s-2.601-1.167-2.601-2.602
					c0-0.202,0.022-0.381,0.067-0.561C193.438,269.287,192.451,262.807,193.011,256.865z"/>
			</g>
			<g>
				<path fill="#3F3F3F" d="M193.549,280.587c0.112,1.638,0.986,8.05,1.076,8.812v0.202h3.027c0,0-0.045-0.897,0.875-6.928
					c1.121-7.287,0.493-11.166,0.493-11.166h-0.089c-0.112-1.323-1.233-2.377-2.601-2.377c-1.435,0-2.601,1.166-2.601,2.601
					C193.078,274.869,193.438,278.838,193.549,280.587z"/>
			</g>
		</g>
		<path fill="#070707" d="M197.652,289.601c0,0,3.162-0.919,4.014,0.045c0.852,0.964,0.426,2.377-0.673,2.421
			c-1.099,0.046-6.502,0-6.502,0s-0.56-1.592,0.135-2.466H197.652z"/>
		<g>
			<g>
				<path fill="#5E5E5E" d="M186.823,256.17c0.449-2.018,2.444-3.273,4.439-2.825c2.018,0.448,3.273,2.444,2.825,4.439
					c-0.045,0.225-2.466,10.403-4.596,13.991L189.356,272l0,0c-0.314,1.412-1.704,2.287-3.117,1.973s-2.287-1.704-1.973-3.116
					c0.044-0.18,0.112-0.358,0.179-0.538C184.536,268.39,184.984,261.843,186.823,256.17z"/>
			</g>
			<g>
				<path fill="#5E5E5E" d="M182.182,279.443c-0.247,1.614-0.785,8.072-0.875,8.834l-0.045,0.202l2.938,0.65
					c0,0,0.134-0.896,2.354-6.57c2.69-6.86,2.915-10.784,2.915-10.784l-0.09-0.022c0.179-1.322-0.695-2.578-2.018-2.87
					c-1.413-0.313-2.803,0.583-3.116,1.974C182.944,273.748,182.451,277.694,182.182,279.443z"/>
			</g>
		</g>
		<path fill="#070707" d="M184.2,289.13c0,0,3.273-0.225,3.901,0.919c0.627,1.144-0.112,2.422-1.188,2.22s-6.345-1.413-6.345-1.413
			s-0.202-1.682,0.672-2.376L184.2,289.13z"/>
		<path fill="#5E5E5E" d="M200.343,253.099l0.089,4.17c0,0-0.134,1.233-0.942,1.346c-0.807,0.112-11.3,0-11.3,0
			s-1.368-0.112-1.368-0.942c0-0.829-0.022-4.73-0.022-4.73L200.343,253.099z"/>
		<rect x="193.034" y="231.103" fill="#F3937B" width="2.825" height="4.439"/>
		<path fill="#F7A184" d="M197.293,229.107c0.022,0.65-0.112,1.323-0.179,1.951c-0.09,0.875-0.247,1.861-1.009,2.332
			c-0.785,0.471-2.265,0.516-3.027-0.089c-0.493-0.404-0.874-1.166-1.099-1.749c-0.179-0.493-0.785-1.502-0.852-2.107
			c-0.112-1.076,0.493-1.704,0.493-1.704s0.381-0.583,1.278-0.628c0.919-0.044,3.363,0,3.363,0c0.269,0,0.717-0.022,0.852,0.202
			C197.406,227.74,197.271,228.569,197.293,229.107z"/>
		<polygon fill="#EDC006" points="194.693,235.542 192.607,233.906 191.8,234.533 193.796,236.82 		"/>
		<polygon fill="#EDC006" points="194.693,235.542 195.612,236.865 197.114,234.533 196.486,233.951 		"/>
		<path fill="#FFFFFF" d="M194.042,253.345h-0.112v-1.793h2.713v1.793H194.042L194.042,253.345z M196.419,253.121v-1.346h-2.265
			v1.346H196.419L196.419,253.121z"/>
		<path fill="#222A35" d="M192.63,229.556l-0.202-2.175c0,0,2.511,1.951,5,0.964c0,0,1.973-2.287-0.628-3.296
			c0,0-3.318-1.346-4.888,0.83c0,0-1.009-0.157-1.458,1.233c-0.448,1.39-0.628,2.848,1.547,4.439l0.135,0.202l0.292-1.166
			c0,0-1.054-0.045-0.964-0.964C191.509,228.682,192.338,228.883,192.63,229.556z"/>
		<g>
			<g>
				<path opacity="0.42" fill="#FFFFFF" enable-background="new    " d="M252.45,211.26c5.538,6.771,4.529,16.727-2.242,22.265
					c-6.771,5.538-16.727,4.529-22.265-2.242L252.45,211.26L252.45,211.26z"/>
				<path opacity="0.42" fill="#EDEDED" enable-background="new    " d="M252.45,211.26l-24.506,20.022l0,0
					c-5.538-6.771-4.529-16.727,2.242-22.265C236.957,203.479,246.912,204.489,252.45,211.26z"/>
			</g>
			<path fill="none" d="M227.697,231.484c-5.605-6.884-4.597-16.996,2.265-22.624c6.883-5.605,16.995-4.596,22.623,2.265
				c0.045,0.045,0.067,0.112,0.112,0.157l-24.843,20.381C227.809,231.619,227.764,231.551,227.697,231.484z"/>
			<path fill="none" d="M250.32,233.749c-6.816,5.561-16.794,4.597-22.466-2.085l24.843-20.381
				C258.19,218.166,257.137,228.166,250.32,233.749z"/>
			<path fill="#727272" d="M227.854,231.664c5.65,6.704,15.65,7.646,22.466,2.085c6.816-5.583,7.848-15.583,2.377-22.466
				l2.557-2.107c6.636,8.296,5.381,20.403-2.849,27.13c-7.511,6.144-18.25,5.718-25.246-0.605l-6.48,5.292l-1.704-2.085
				L227.854,231.664z"/>
			<path fill="#A3A3A3" d="M255.164,209.04c0.044,0.045,0.066,0.09,0.111,0.157l-2.556,2.107c-0.045-0.045-0.067-0.112-0.112-0.157
				c-5.628-6.861-15.74-7.87-22.623-2.265c-6.861,5.628-7.87,15.74-2.265,22.623c0.044,0.067,0.112,0.112,0.157,0.18l-8.856,7.264
				l-1.794-2.197l6.435-5.269c-5.022-8.139-3.386-18.946,4.238-25.18C236.172,199.534,248.37,200.744,255.164,209.04z"/>
			<g>
				<path fill="#222A35" d="M220.702,241.013l0.179,0.202c0.538,0.673,0.449,1.659-0.224,2.197l-22.937,18.744
					c-0.673,0.538-1.659,0.449-2.197-0.224l-1.838-2.242l19.35-15.875l5.964-4.911L220.702,241.013z"/>
			</g>
			<g>
				<path fill="#344054" d="M216.8,236.237l0.403,0.494l1.794,2.197l-5.964,4.911l-19.35,15.875l-2.243-2.735
					c-0.538-0.673-0.448-1.659,0.225-2.198l22.937-18.744C215.276,235.475,216.262,235.565,216.8,236.237z"/>
			</g>
		</g>
		<g>
			<g>
				<path fill="#F7A184" d="M201.061,251.775c0-0.156-0.157-0.291-0.359-0.313l0.583,0.022c0.202,0.021,0.359-0.09,0.381-0.27
					c0-0.18-0.157-0.291-0.336-0.314l0.516,0.023c0.202,0.022,0.381-0.135,0.381-0.314c0-0.179-0.135-0.336-0.336-0.358
					l-0.426-0.022c0.202,0.022,0.381-0.134,0.381-0.314c0-0.179-0.134-0.336-0.336-0.359l-2.713-0.157l0.673-0.628
					c0.157-0.157,0.179-0.381,0.044-0.539l0,0c-0.134-0.134-0.381-0.134-0.538,0.023l-1.458,1.031
					c-0.449,0.247-0.919,0.583-0.942,1.233c-0.045,0.673,0.493,1.256,1.166,1.278l0.65,0.045l0.471,0.022l1.861,0.112
					C200.881,252.067,201.061,251.933,201.061,251.775z"/>
			</g>
			<g>
				<path fill="#EDC006" d="M182.944,236.888L182.944,236.888v-0.022c0.112-1.39,1.345-2.444,2.735-2.332
					c1.39,0.112,2.444,1.345,2.332,2.736c0,0.089-0.045,11.233-0.067,11.435c-0.112,1.391-1.345,2.444-2.735,2.332
					c-1.345-0.111-2.376-1.255-2.332-2.6l0,0L182.944,236.888z"/>
			</g>
			<g>
				<path fill="#EDC006" d="M185.208,251.192L185.208,251.192c-0.045-0.022-0.09-0.022-0.135-0.022
					c-1.368-0.313-2.219-1.681-1.906-3.049c0.314-1.368,1.682-2.22,3.049-1.906c0.09,0.022,8.498,1.525,10.942,3.296l-0.269,1.839
					C196.868,251.35,191.486,252.246,185.208,251.192z"/>
			</g>
		</g>
	</g>
	<g>
		<path fill="#FFDE00" d="M327.271,245.273c0-6.054-4.91-10.964-10.964-10.964s-10.964,4.911-10.964,10.964
			c0,2.376,0.763,4.574,2.04,6.367l6.099,9.754h5.583l6.009-9.574C326.464,250.027,327.271,247.74,327.271,245.273z"/>
	</g>
	<g opacity="0.47">
		<path fill="#FFFFFF" d="M318.526,260.184c-0.112,1.479-1.076,2.713-2.265,2.713l0,0c-1.211,0-2.152-1.211-2.265-2.713
			c-0.225-3.363-0.829-6.682-1.3-10.022c-0.225-1.458,1.367-3.027,3.587-3.027l0,0c2.197,0.022,3.812,1.592,3.588,3.027
			C319.356,253.479,318.751,256.82,318.526,260.184z"/>
	</g>
	<path fill="#0D0B09" d="M313.393,270.071c0.694,0.852,1.748,1.391,2.914,1.391h0.022c1.166,0,2.22-0.539,2.915-1.391H313.393z"/>
	<path fill="#26221A" d="M320.971,267.179v-5.829h-9.283v5.829c0,1.121,0.404,2.13,1.055,2.938h7.196
		C320.566,269.309,320.971,268.3,320.971,267.179z"/>
	<path fill="#3D3A37" d="M317.36,263.346c0-0.202-0.157-0.359-0.358-0.359h-5.336v0.718h5.336
		C317.203,263.704,317.36,263.547,317.36,263.346z"/>
	<path fill="#3D3A37" d="M317.36,265.273c0-0.202-0.157-0.359-0.358-0.359h-5.336v0.718h5.336
		C317.203,265.609,317.36,265.452,317.36,265.273z"/>
	<path fill="#3D3A37" d="M317.36,267.179c0-0.201-0.157-0.358-0.358-0.358h-5.336v0.358c0,0.112,0,0.247,0.021,0.359h5.314
		C317.203,267.538,317.36,267.381,317.36,267.179z"/>
	<path fill="#0D0B09" d="M321.755,260.767c0,0.403-0.313,0.717-0.717,0.717h-9.417c-0.404,0-0.718-0.313-0.718-0.717l0,0
		c0-0.403,0.313-0.718,0.718-0.718h9.417C321.419,260.026,321.755,260.363,321.755,260.767L321.755,260.767z"/>
	<polygon fill="#FFFFFF" points="318.302,267.896 318.302,263.054 319.603,263.054 319.603,267.896 	"/>
	<path fill="#FFFFFF" d="M321.061,238.323C321.038,238.3,321.038,238.3,321.061,238.323L321.061,238.323l0.649-1.032
		c0.067,0.045,3.14,2.063,4.059,6.502l0,0l-1.188,0.247C323.818,240.318,321.329,238.502,321.061,238.323L321.061,238.323z"/>
	<g>
		<g>
			<path fill="#F9E48A" d="M185.836,229.399l-4.148-6.458c1.771-2.803,2.803-6.121,2.803-9.686c0-10.022-8.139-18.161-18.162-18.161
				s-18.161,8.139-18.161,18.161s8.139,18.162,18.161,18.162c3.812,0,7.332-1.166,10.247-3.184L185.836,229.399z"/>
		</g>
		<g>
			<path fill="#FFFFFF" d="M160.276,213.255c0,1.48-1.211,2.69-2.69,2.69c-1.48,0-2.691-1.21-2.691-2.69s1.211-2.69,2.691-2.69
				C159.087,210.565,160.276,211.753,160.276,213.255z"/>
			<path fill="#FFFFFF" d="M169.693,213.255c0,1.48-1.211,2.69-2.69,2.69c-1.48,0-2.691-1.21-2.691-2.69s1.211-2.69,2.691-2.69
				C168.504,210.565,169.693,211.753,169.693,213.255z"/>
			<path fill="#FFFFFF" d="M179.11,213.255c0,1.48-1.211,2.69-2.69,2.69c-1.48,0-2.691-1.21-2.691-2.69s1.211-2.69,2.691-2.69
				C177.921,210.565,179.11,211.753,179.11,213.255z"/>
		</g>
	</g>
</g>
</svg>
