<?xml version="1.0" encoding="utf-8"?>
<!-- Generator: Adobe Illustrator 16.0.0, SVG Export Plug-In . SVG Version: 6.00 Build 0)  -->
<!DOCTYPE svg PUBLIC "-//W3C//DTD SVG 1.1//EN" "http://www.w3.org/Graphics/SVG/1.1/DTD/svg11.dtd">
<svg version="1.1" id="Layer_1" xmlns="http://www.w3.org/2000/svg" xmlns:xlink="http://www.w3.org/1999/xlink" x="0px" y="0px"
	 width="200px" height="183.252px" viewBox="143.505 161.12 200 183.252" enable-background="new 143.505 161.12 200 183.252"
	 xml:space="preserve">
<g>
	<path opacity="0.41" fill="#E9ECF5" enable-background="new    " d="M171.189,183.612c0,0,115.855-46.718,145.312-5.492
		c0,0,25.511,42.271-0.903,95.146c-2.116,4.209-4.541,8.512-7.347,12.839c0,0-5.158,10.318-7.631,15.192
		c-9.178,18.164-35.021,53.778-95.504,21.444c-3.78-2.021-24.987-10.77-34.354-17.236c-8.797-6.063-15.192-13.885-20.399-22.943
		C150.362,282.563,125.232,211.5,171.189,183.612z"/>
	<rect x="302.997" y="252.726" fill="#B0B0E2" width="4.85" height="66.569"/>
	<path opacity="0.5" fill="#E9ECF5" enable-background="new    " d="M187.118,192.171c0,0,115.855-46.718,145.313-5.492
		c0,0,25.51,42.272-0.904,95.147c-2.115,4.208-4.54,8.512-7.346,12.838c0,0-5.159,10.319-7.632,15.192
		c-9.178,18.164-35.021,53.779-95.504,21.445c-3.78-2.021-24.987-10.77-34.354-17.237c-8.797-6.063-15.192-13.885-20.399-22.942
		C166.292,291.122,141.161,220.059,187.118,192.171z"/>
	<polygon opacity="0.1" fill="#7C09CE" enable-background="new    " points="209.585,277.237 228.772,242.764 260.63,266.396 
		282.74,228.143 299.883,237.771 327.724,197.972 330.576,200.635 334.808,187.297 323.016,193.621 325.845,196.236 
		298.884,234.466 281.505,224.624 259.584,262.212 227.536,238.247 208.849,271.508 187.903,247.686 168.859,276.667 
		149.316,264.637 147.082,267.395 170.167,281.493 188.497,253.392 	"/>
	<polygon fill="#7C09CE" points="209.585,274.859 228.772,240.386 260.63,264.019 282.74,225.765 299.883,235.394 327.724,195.594 
		330.576,198.257 334.808,184.919 323.016,191.244 325.845,193.859 298.884,232.089 281.505,222.246 259.584,259.834 
		227.536,235.869 208.849,269.13 187.903,245.308 168.859,274.289 149.316,262.259 147.082,265.018 170.167,279.115 
		188.497,251.014 	"/>
	<rect x="305.446" y="252.726" fill="#8C8CC8" width="2.4" height="66.569"/>
	<g>
		<path fill="#F3F3FF" d="M328.627,298.111c-0.31-0.428-0.262-0.855,0.118-1.308L328.627,298.111z"/>
		<path fill="#DBD0C6" d="M296.436,283.847c-1.047,0.143-1.854,0.523-2.521,1.022c-0.023,0.023-0.048,0.023-0.048,0.048
			c-2.092,2.115-6.323,9.724-6.799,17.332c-0.476,7.607,0.476,13.837,6.395,12.314l1.189-4.754c0,0-3.638,1.235-3.709-4.47
			c-0.071-5.683,2.758-14.551,6.633-18.854c0.499-0.547,1.094-1.118,1.76-1.237C298.765,284.322,297.838,283.657,296.436,283.847z"
			/>
		<path fill="#604776" d="M296.436,283.847c-1.047,0.143-1.854,0.523-2.521,1.022c-0.023,0.023-0.048,0.023-0.048,0.048
			c-2.092,2.115-6.323,9.724-6.799,17.332c-0.476,7.607,0.476,13.837,6.395,12.314l1.189-4.754c0,0-3.638,1.235-3.709-4.47
			c-0.071-5.683,2.758-14.551,6.633-18.854c0.499-0.547,1.094-1.118,1.76-1.237C298.765,284.322,297.838,283.657,296.436,283.847z"
			/>
		<path opacity="0.5" fill="#BCB3AC" enable-background="new    " d="M290.943,305.34c0-0.024,0-0.072,0-0.096
			c-0.595,0.143-1.188,0.19-1.783,0.143c-1.022-0.095-1.735-0.499-2.188-1.094c-0.166,6.633,1.117,11.674,6.467,10.295l1.189-4.755
			C294.652,309.81,291.015,311.045,290.943,305.34z"/>
		<path fill="#604776" d="M296.436,283.847c-1.047,0.143-1.854,0.523-2.521,1.022c-0.023,0.023-0.048,0.023-0.048,0.048
			c-0.808,0.808-1.949,2.473-3.066,4.612c1.569-1.498,3.519-2.426,5.706-1.735c0.333-0.476,0.689-0.904,1.046-1.308
			c0.499-0.547,1.094-1.118,1.76-1.237C298.765,284.322,297.838,283.657,296.436,283.847z"/>
		<path fill="#491E5C" d="M302.474,283.371c-2.377-0.285-6.419-0.522-8.535,1.521c0.666-0.499,1.475-0.879,2.521-1.022
			c1.402-0.189,2.33,0.476,2.9,1.403c0.547,0.903,0.785,2.021,0.809,2.877c0,0,1.426,0.047,3.162-0.595
			c0.095-0.048,0.19-0.071,0.285-0.119l1.569-0.333C305.16,287.08,304.852,283.657,302.474,283.371z"/>
		<path fill="#491E5C" d="M319.116,285.036c-1.379-2.021-4.469-2.449-6.918-1.808c-0.167,0.048-0.333,0.119-0.499,0.19
			c0.974-0.237,1.973,0.166,2.567,1.189c0.57,0.974,0.951,2.424,1.165,3.519l5.277,0.428
			C320.733,288.507,320.495,287.032,319.116,285.036z"/>
		<path fill="#DBD0C6" d="M311.699,283.396c-1.974,0.975-2.141,4.231-2.141,4.231l5.896,0.476c-0.214-1.094-0.594-2.521-1.165-3.519
			C313.696,283.562,312.673,283.157,311.699,283.396z"/>
		<path fill="#604776" d="M311.699,283.396c-1.974,0.975-2.141,4.231-2.141,4.231l5.896,0.476c-0.214-1.094-0.594-2.521-1.165-3.519
			C313.696,283.562,312.673,283.157,311.699,283.396z"/>
		<path fill="#DD2B78" d="M298.123,286.557c-1.498,0.096-3.28,1.261-4.231,5.683s-1.664,24.939-1.664,25.32s0.475,0.19,0.832,0
			c0.356-0.189,1.308-0.285,2.115,0.238c0.809,0.499,0.928,0.38,1.521,0c0.595-0.381,1.974-0.333,2.925,0.332
			c0.951,0.666,1.022,0.024,1.902-0.214c0.903-0.237,1.901,0.166,2.615,0.381c0.713,0.214,1.783,0.047,2.14,0
			c0.356-0.048-1.07-17.403-1.07-17.403c-0.19-2.496-1.046-9.035-2.021-11.246C301.999,286.984,300.62,286.414,298.123,286.557z"/>
		<path fill="#FFFFFF" d="M303.188,289.647c-1.188-2.639-2.567-3.233-5.064-3.091c-1.474,0.096-3.233,1.237-4.185,5.492
			c0.404,0.167,1.046,0.238,2.33,0.285c0.571,0.024,1.261,0.048,2.093,0.096c0.57,0.023,1.094,0.023,1.616,0.023
			c1.712-0.023,3.043-0.166,3.971-0.332C303.687,291.099,303.449,290.219,303.188,289.647z"/>
		<g>
			<path fill="#B91A5F" d="M296.459,287.983c1.07-0.048,1.974,0.476,2.521,1.188c0.761,0.976,1.165,2.116,1.354,3.281
				c1.521-0.023,2.734-0.189,3.566-0.332c-0.237-1.022-0.476-1.902-0.737-2.497c-1.188-2.64-2.567-3.233-5.063-3.091
				c-0.903,0.048-1.902,0.499-2.758,1.783C295.675,288.127,296.031,288.008,296.459,287.983z"/>
		</g>
		<path fill="#B91A5F" d="M295.96,316.538c0.048-1.451,0.262-20.946,0.285-24.18c-0.237,0-0.451-0.024-0.643-0.048
			c-0.047,4.684-0.166,22.111-0.214,23.489c0,0.547,0,1.118,0.024,1.594c-0.143,0-0.31-0.071-0.595-0.333
			c-0.57-0.5-1.236-0.428-1.497-0.238c-0.262,0.19-0.595,0.381-0.595,0c0-0.356,0.451-18.307,1.046-24.25
			c-0.927,5.016-1.616,24.606-1.616,24.987s0.475,0.19,0.831,0c0.357-0.189,1.308-0.285,2.116,0.238
			c0.404,0.237,0.618,0.332,0.832,0.332C295.96,317.654,295.96,317.084,295.96,316.538z"/>
		<g>
			<path opacity="0.5" fill="#B91A5F" enable-background="new    " d="M299.954,314.92c-0.048-3.399-0.024-19.232,0-22.442
				c-0.19,0-0.38,0-0.571,0c0,4.231-0.023,18.521,0,21.706c0.024,1.641,0.096,2.758,0.191,3.471
				c-0.119-0.023-0.262-0.095-0.476-0.284c-0.714-0.667-1.736-0.714-2.188-0.334c-0.238,0.19-0.357,0.31-0.523,0.334
				c-0.023-0.476-0.023-1.023-0.023-1.57c0.023-1.378,0.166-18.853,0.214-23.418c-0.119,0-0.238,0-0.356-0.023
				c-0.048,3.233-0.262,22.729-0.286,24.18c-0.023,0.546,0,1.116,0.024,1.592c0.214-0.023,0.38-0.143,0.689-0.332
				c0.594-0.381,1.974-0.333,2.925,0.332c0.261,0.19,0.451,0.262,0.617,0.286C300.097,317.679,299.978,316.561,299.954,314.92z"/>
		</g>
		<path fill="#B91A5F" d="M304.756,301.107c-0.142-1.854-0.642-5.872-1.283-8.749c-0.096,0.023-0.214,0.023-0.31,0.048
			c0.428,2.758-0.284,5.229-0.189,6.895c0,0,0.237,16.381,0.237,16.618c0.048,0.856,0.238,1.902-0.309,1.712
			c-0.547-0.214-0.999-0.713-1.736-0.333c-0.451,0.238-0.665,0.548-0.975,0.5c-0.095-0.737-0.189-1.854-0.214-3.495
			c-0.048-3.162,0-17.095,0-21.611c-0.143,0-0.309,0-0.476,0c0,3.233-0.047,19.067,0,22.443c0.024,1.641,0.143,2.758,0.262,3.495
			c0.428,0.047,0.643-0.333,1.284-0.5c0.903-0.237,1.901,0.167,2.615,0.381c0.713,0.214,1.783,0.048,2.14,0
			C306.207,318.486,304.756,301.107,304.756,301.107z"/>
		<path fill="#B91A5F" d="M324.751,299.182c0,0,1.117,12.506,1.355,15.311c0.237,2.806,1.022,2.83-2.615,3.234
			c-3.638,0.403-15.026,0.499-16.833,0.547c-1.783,0.047-2.14,0.403-2.33-2.592c-0.189-2.996-0.403-16.144-0.403-16.144
			L324.751,299.182z"/>
		<path fill="#FF65AB" d="M324.514,308.93c-0.547-0.024-1.118,0.095-1.664,0.166c-0.856,0.095-1.76,0.19-2.164-0.547
			c-0.428-0.737-0.381-1.593-0.499-2.401c-0.19-1.236-0.19-2.448-0.31-3.732c-2.377-0.285-8.701-0.095-9.485-0.143
			c-0.666-0.023-1.546-0.095-2.188,0.19c0.237,0.975,0.19,1.973,0.285,2.948c0.071,0.808,0.451,1.616,0.499,2.425
			c0.023,0.642,0.285,0.975-0.547,1.094c-0.451,0.071-2.544,0.071-2.567,0.143c-0.071,0.499,0.143,3.043,0.166,3.875
			c0.023,1.069,0.452,1.854,1.475,2.544c1.117,0.737,2.306,0.999,3.709,1.069c1.354,0.072,2.71,0.096,4.065,0.072
			c1.807-0.024,3.661,0,5.492-0.119c1.117-0.071,2.187-0.451,2.853-1.236c1.213-1.45,1.26-3.424,1.069-5.111
			C324.68,310.047,324.561,308.93,324.514,308.93z"/>
		<path fill="#DCDCFA" d="M326.082,314.422c-0.547,0.38-1.046,0.808-1.474,1.283c-0.547,0.57-1.141,1.498-1.379,2.045
			c0.095,0,0.166-0.023,0.238-0.023c3.637-0.404,2.853-0.404,2.614-3.234C326.082,314.469,326.082,314.445,326.082,314.422z"/>
		<path fill="#DCDCFA" d="M304.281,315.111c0,0.214,0.023,0.38,0.023,0.522c0.19,2.996,0.547,2.64,2.33,2.592
			c0.238,0,0.618-0.024,1.142-0.024C307.039,316.918,305.922,315.776,304.281,315.111z"/>
		<path fill="#B91A5F" d="M324.537,297.851c-0.428-1.926-1.188-3.495-1.617-5.421c-2.258-0.071-4.517-0.19-6.775-0.262
			c-3.353-0.143-6.704,0-10.057,0.096c-1.355,0.023-2.544,0-3.875,0.118c-0.571,0.048-1.094,0.096-1.854,0.096
			c0.071,0.38,0.095,0.784,0.118,1.164c0.595,3.139,0.31,6.324,0.714,8.18c0.403,1.973-0.095,1.497,3.471,1.283
			c3.566-0.214,14.574-0.333,17.213-0.214c1.521,0.071,2.545,0.071,3.187-0.119C324.847,301.107,324.87,299.349,324.537,297.851z"/>
		<path fill="#63ABFF" d="M298.813,286.414c3.02-0.498,16.049-0.879,22.11,0.452c1.189,0.262,3.496,2.021,4.304,6.158
			c0.784,4.112,1.188,6.276,1.284,7.203c0.071,0.928-1.189,1.046-3.733,0.928c-2.544-0.143-13.123,0-16.547,0.19
			c-3.424,0.189-2.948,0.665-3.352-1.236c-0.405-1.902-0.072-5.23-0.785-8.44c-0.714-3.21-2.068-5.492-5.017-4.779
			C297.054,286.89,297.624,286.629,298.813,286.414z"/>
		<path fill="#85BFF9" d="M302.094,291.835c0.713,0.762,1.997,0.999,3.305,1.022c0.855,0,17.997-0.333,19.709-0.309
			c-0.88-3.757-3.043-5.397-4.185-5.659c-6.062-1.331-19.091-0.95-22.11-0.451c-1.188,0.19-1.759,0.451-1.759,0.451
			c2.948-0.713,4.303,1.569,5.016,4.779C302.094,291.716,302.094,291.764,302.094,291.835z"/>
		<path fill="#63ABFF" d="M301.143,288.911c1.641-0.214,21.326,0.048,22.491,0.166c-0.928-1.354-2.021-2.045-2.711-2.188
			c-6.062-1.331-19.091-0.95-22.11-0.451c-1.188,0.19-1.759,0.451-1.759,0.451C299.051,286.391,300.311,287.294,301.143,288.911z"/>
		<path fill="#FAD000" d="M309.107,307.765c0,0.143-0.119,0.262-0.262,0.285l-2.615,0.095c-0.143,0-0.285-0.118-0.285-0.262
			c0,0-0.452-1.688-0.666-4.231c-0.214-2.521-0.071-4.564-0.071-4.564c0-0.144,0.119-0.262,0.262-0.285l2.615-0.096
			c0.143,0,0.285,0.119,0.285,0.262c0,0-0.048,0.832,0.214,4.517C308.846,307.17,309.107,307.765,309.107,307.765z"/>
		<path fill="#FFFFFF" d="M307.8,300.228c0,0.476-0.429,0.856-0.927,0.856c-0.523,0-0.928-0.381-0.928-0.856
			s0.428-0.855,0.928-0.855C307.371,299.372,307.8,299.752,307.8,300.228z"/>
		<path fill="#4A4F55" d="M307.752,300.18c0,0.381-0.333,0.714-0.761,0.714s-0.761-0.309-0.761-0.714
			c0-0.38,0.333-0.713,0.761-0.713S307.752,299.8,307.752,300.18z"/>
		<path fill="#FAD000" d="M324.68,307.765c0,0.143-0.119,0.262-0.261,0.285l-2.616,0.095c-0.143,0-0.285-0.118-0.285-0.262
			c0,0-0.451-1.688-0.665-4.231c-0.214-2.521-0.071-4.564-0.071-4.564c0-0.144,0.118-0.262,0.261-0.285l2.615-0.096
			c0.143,0,0.286,0.119,0.286,0.262c0,0-0.048,0.832,0.214,4.517C324.419,307.17,324.68,307.765,324.68,307.765z"/>
		<path fill="#FFFFFF" d="M323.372,300.228c0,0.476-0.428,0.856-0.928,0.856c-0.522,0-0.927-0.381-0.927-0.856
			s0.429-0.855,0.927-0.855C322.944,299.372,323.372,299.752,323.372,300.228z"/>
		<path fill="#4A4F55" d="M323.324,300.18c0,0.381-0.332,0.714-0.761,0.714c-0.428,0-0.761-0.309-0.761-0.714
			c0-0.38,0.333-0.713,0.761-0.713C322.992,299.467,323.324,299.8,323.324,300.18z"/>
		<path fill="#CDE4FF" d="M304.923,286.296c0,0,10.675-0.499,16.238,0.88c0,0,3.709,0.499,4.826,11.53c0,0-1.26-8.487-4.541-10.794
			C318.569,286.153,304.923,286.296,304.923,286.296z"/>
		<path fill="#DD2B78" d="M324.799,312.21c0-0.071-0.143-2.282-0.143-2.211c0,1.284-0.19,3.78-0.523,4.47
			c-0.499,1.046-1.807,1.45-3.043,1.546c-2.188,0.166-4.47-0.024-6.657,0.048c-1.974,0.047-4.041,0.428-5.92-0.286
			c-1.735-0.665-2.234-2.188-2.449-3.613c-0.023-0.095-0.166-1.878-0.166-1.783c-0.048,4.184,0.024,5.278,1.521,6.205
			c1.854,1.165,4.684,0.689,6.848,0.618c1.593-0.048,3.066-0.119,4.659-0.095c1.284,0.023,2.497,0,3.733-0.286
			C324.965,316.229,325.013,313.804,324.799,312.21z"/>
	</g>
	<rect x="285.57" y="252.726" fill="#8C8CC8" width="4.85" height="66.569"/>
	<rect x="288.114" y="252.726" fill="#B0B0E2" width="2.306" height="66.569"/>
	<g>
		<path fill="#6D4739" d="M271.21,270.89h0.024H271.21z"/>
	</g>
	<g>
		<path fill="#FF9676" d="M264.577,252.535c5.658,0.214,10.746,2.021,11.364,2.544c0.237,0.167,0.285,0.238,0.285,0.428
			c0-0.38,0.023-0.761,0.023-1.164c-1.354-0.88-6.11-2.283-11.079-2.592c-0.38,0.333-0.594,0.499-0.594,0.499
			C264.601,252.368,264.577,252.464,264.577,252.535z"/>
	</g>
	<path opacity="0.5" fill="#A2A2C9" enable-background="new    " d="M254.354,253.534c0.404-0.096,0.856-0.19,1.355-0.286
		c1.545-0.285,3.613-0.546,6.371-0.688c0.833-0.048,1.665-0.048,2.474-0.024c0-0.071,0.023-0.167,0.023-0.237
		c0,0,0.214-0.19,0.594-0.5c-1.046-0.07-2.092-0.07-3.138-0.023c-2.068,0.119-4.256,0.333-6.135,0.642
		c-0.546,0.096-1.046,0.19-1.545,0.31C254.378,252.939,254.378,253.225,254.354,253.534z"/>
	<g>
		<g>
			<g>
				
					<path fill="none" stroke="#BED6E3" stroke-width="9.8071" stroke-linecap="round" stroke-linejoin="round" stroke-miterlimit="10" d="
					M227.536,270.699c0,0,0,1.831,0,4.065c0,2.235,2.068,4.066,4.588,4.066h9.296c2.521,0,4.256-2.046,3.875-4.518l-1.046-6.753
					c-0.381-2.495-1.332-4.517-2.068-4.517c-0.761,0-1.379,0-1.379,0"/>
			</g>
			<g>
				
					<path fill="none" stroke="#C490D5" stroke-width="19.6141" stroke-linecap="round" stroke-linejoin="round" stroke-miterlimit="10" d="
					M244.083,263.067H232.1c-2.52,0-4.588,1.355-4.588,3.02c0,1.665,0,3.02,0,3.02"/>
			</g>
			<rect x="255.804" y="286.629" fill="#A6C6D7" width="5.159" height="18.877"/>
			<polygon fill="#8EB0BF" points="255.804,286.7 255.804,293.951 260.987,292.358 260.987,286.7 			"/>
			<g>
				<path fill="#CA9CDB" d="M265.1,283.419c0-1.545-1.26-2.805-2.805-2.805h-7.799c-1.545,0-2.805,1.26-2.805,2.805v3.305
					c0,1.546,1.26,2.806,2.805,2.806h7.774c1.545,0,2.806-1.26,2.806-2.806v-3.305H265.1z"/>
			</g>
			<g>
				<path fill="#CA9CDB" d="M274.586,281.969c0-1.546-1.26-2.806-2.806-2.806h-26.746c-1.545,0-2.806,1.26-2.806,2.806v1.926
					c0,1.546,1.26,2.806,2.806,2.806h26.746c1.546,0,2.806-1.26,2.806-2.806V281.969z"/>
			</g>
			<g>
				<path fill="#C490D5" d="M287.805,280.685c0.167,1.546-0.975,2.781-2.52,2.781h-33.499c-1.545,0-2.948-1.26-3.091-2.781
					l-2.568-24.631c-0.167-1.545,0-4.018,0.38-5.516l8.155-33.356c0.356-1.498,1.902-3.02,3.399-3.352l18.687-4.351
					c1.499-0.357,3.994-0.642,5.54-0.642h3.02c1.545,0,2.711,1.26,2.615,2.806l-2.758,38.824c-0.119,1.545-0.071,4.042,0.095,5.587
					L287.805,280.685z"/>
			</g>
			<g>
				<path fill="#F3DCFA" d="M283.146,280.685c0.166,1.546-0.976,2.781-2.521,2.781h-32.857c-1.545,0-2.948-1.26-3.091-2.781
					l-2.568-24.631c-0.166-1.545,0-4.018,0.381-5.516l9.629-38.967c0.38-1.498,1.926-2.734,3.471-2.734h20.708
					c1.545,0,2.829,1.26,2.877,2.806l1.022,38.801c0.048,1.545,0.214,4.065,0.356,5.587L283.146,280.685z"/>
			</g>
			<g>
				<path fill="#EDCAF7" d="M283.454,278.973c0,2.473-2.021,4.493-4.493,4.493h-50.974c-2.473,0-4.494-2.021-4.494-4.493v-1.26
					c0-2.473,2.021-4.494,4.494-4.494h50.95c2.472,0,4.493,2.021,4.493,4.494v1.26H283.454z"/>
			</g>
			<path fill="#E0B4ED" d="M261.771,273.219c-4.09,0-7.037,8.132-7.037,8.132c2.639,0-19.971,0-19.971,0l0.356-8.132H261.771z"/>
			<g>
				<path fill="#F3DCFA" d="M246.104,253.178c-1.545,0.047-2.544-1.142-2.211-2.64l8.321-38.943c0.333-1.498,1.854-2.734,3.4-2.734
					h25.034c1.546,0,2.711,1.26,2.615,2.805l-2.662,37.564c-0.119,1.546-1.45,2.829-2.996,2.9L246.104,253.178z"/>
			</g>
			
				<polyline fill="none" stroke="#D5E6EF" stroke-width="11.799" stroke-linecap="round" stroke-linejoin="round" stroke-miterlimit="10" points="
				233.099,311.164 258.396,306.504 284.072,311.164 			"/>
			
				<polyline fill="none" stroke="#D5E6EF" stroke-width="11.799" stroke-linecap="round" stroke-linejoin="round" stroke-miterlimit="10" points="
				248.909,311.164 258.396,306.504 268.262,311.164 			"/>
			<g>
				<path fill="#8EB0BF" d="M261.938,305.791v-6.585c0-0.762-0.642-1.403-1.402-1.403h-4.256c-0.761,0-1.402,0.642-1.402,1.403
					v6.585"/>
			</g>
			
				<line fill="none" stroke="#D5E6EF" stroke-width="11.799" stroke-linecap="round" stroke-linejoin="round" stroke-miterlimit="10" x1="233.123" y1="314.397" x2="233.123" y2="311.378"/>
			
				<line fill="none" stroke="#D5E6EF" stroke-width="11.799" stroke-linecap="round" stroke-linejoin="round" stroke-miterlimit="10" x1="248.909" y1="314.397" x2="248.909" y2="311.378"/>
			
				<line fill="none" stroke="#D5E6EF" stroke-width="11.799" stroke-linecap="round" stroke-linejoin="round" stroke-miterlimit="10" x1="268.429" y1="314.397" x2="268.429" y2="311.378"/>
			
				<line fill="none" stroke="#D5E6EF" stroke-width="11.799" stroke-linecap="round" stroke-linejoin="round" stroke-miterlimit="10" x1="284.072" y1="314.397" x2="284.072" y2="311.378"/>
			<path fill="#F3DCFA" d="M266.074,230.282c1.355,0.143,2.782,0.262,3.994,0.975c0.523,0.309,1.022,0.737,1.451,1.308
				c1.165,1.569,1.926,4.256,1.854,9.058c-0.167,10.651-0.619,20.352,1.854,24.559c1.189,2.045-1.711-2.092-4.921-2.187
				c-3.424-0.096-7.228,3.757-7.441,3.376c-0.404-0.762-1.284-11.626-1.284-11.626s-0.761-14.883,0.238-17.166
				c0.998-2.283,3.661-5.468,3.661-5.468L266.074,230.282z"/>
			<polygon fill="#BC90D3" points="281.719,273.314 243.893,273.219 243.821,272.435 281.576,272.435 			"/>
			<g>
				<path fill="#F3DCFA" d="M244.606,253.511c-1.545-0.144-2.52-1.499-2.211-2.996l8.321-38.943
					c0.333-1.498,1.854-2.734,3.399-2.734h8.56c1.546,0,2.711,1.26,2.615,2.806l-2.71,40.703c-0.096,1.545-1.45,2.686-2.972,2.544
					L244.606,253.511z"/>
			</g>
			<g>
				<path fill="#E0B4ED" d="M261.011,279.259c0,2.306,1.902,4.207,4.208,4.207h15.121c2.306,0,4.303-1.901,4.422-4.207l0.095-1.831
					c0.119-2.307-1.664-4.209-3.994-4.209h-15.668c-2.306,0-4.207,1.902-4.207,4.209v1.831H261.011z"/>
			</g>
			<path d="M251.786,316.633c0,1.593-1.284,2.876-2.877,2.876s-2.876-1.283-2.876-2.876"/>
			<path d="M271.305,316.633c0,1.593-1.283,2.876-2.876,2.876c-1.594,0-2.877-1.283-2.877-2.876"/>
			<path d="M286.926,316.633c0,1.593-1.284,2.876-2.877,2.876s-2.877-1.283-2.877-2.876"/>
			<path d="M235.976,316.633c0,1.593-1.284,2.876-2.877,2.876c-1.593,0-2.853-1.283-2.853-2.876"/>
			<g>
				<g>
					<path fill="#BED6E3" d="M230.246,316.775c-0.238,0-0.428-0.19-0.428-0.429c0-1.807,1.474-3.28,3.281-3.28
						c1.807,0,3.281,1.474,3.281,3.28c0,0.238-0.19,0.429-0.428,0.429H230.246z"/>
					<path fill="#BED6E3" d="M233.123,313.494c1.593,0,2.877,1.284,2.877,2.877h-5.753
						C230.246,314.778,231.53,313.494,233.123,313.494 M233.123,312.639c-2.044,0-3.708,1.664-3.708,3.708
						c0,0.476,0.38,0.832,0.832,0.832h5.729c0.476,0,0.832-0.38,0.832-0.832C236.832,314.303,235.167,312.639,233.123,312.639
						L233.123,312.639z"/>
				</g>
			</g>
			<g>
				<g>
					<path fill="#BED6E3" d="M246.033,316.775c-0.238,0-0.428-0.19-0.428-0.429c0-1.807,1.474-3.28,3.281-3.28
						c1.807,0,3.281,1.474,3.281,3.28c0,0.238-0.189,0.429-0.428,0.429H246.033z"/>
					<path fill="#BED6E3" d="M248.909,313.494c1.593,0,2.877,1.284,2.877,2.877h-5.73
						C246.033,314.778,247.316,313.494,248.909,313.494 M248.909,312.639c-2.045,0-3.709,1.664-3.709,3.708
						c0,0.476,0.38,0.832,0.833,0.832h5.729c0.476,0,0.833-0.38,0.833-0.832C252.618,314.303,250.953,312.639,248.909,312.639
						L248.909,312.639z"/>
				</g>
			</g>
			<g>
				<g>
					<path fill="#BED6E3" d="M265.575,316.775c-0.237,0-0.428-0.19-0.428-0.429c0-1.807,1.474-3.28,3.281-3.28
						c1.807,0,3.28,1.474,3.28,3.28c0,0.238-0.189,0.429-0.428,0.429H265.575z"/>
					<path fill="#BED6E3" d="M268.429,313.494c1.593,0,2.876,1.284,2.876,2.877h-5.729
						C265.575,314.778,266.859,313.494,268.429,313.494 M268.429,312.639c-2.045,0-3.71,1.664-3.71,3.708
						c0,0.476,0.381,0.832,0.833,0.832h5.729c0.476,0,0.833-0.38,0.833-0.832C272.137,314.303,270.473,312.639,268.429,312.639
						L268.429,312.639z"/>
				</g>
			</g>
			<g>
				<g>
					<path fill="#BED6E3" d="M281.195,316.775c-0.237,0-0.428-0.19-0.428-0.429c0-1.807,1.475-3.28,3.281-3.28s3.28,1.474,3.28,3.28
						c0,0.238-0.189,0.429-0.428,0.429H281.195z"/>
					<path fill="#BED6E3" d="M284.072,313.494c1.593,0,2.877,1.284,2.877,2.877h-5.73
						C281.195,314.778,282.479,313.494,284.072,313.494 M284.072,312.639c-2.045,0-3.709,1.664-3.709,3.708
						c0,0.476,0.38,0.832,0.832,0.832h5.73c0.475,0,0.832-0.38,0.832-0.832C287.781,314.303,286.117,312.639,284.072,312.639
						L284.072,312.639z"/>
				</g>
			</g>
		</g>
		<g>
			<path fill="#FFDE00" d="M232.41,303.604c-0.476,1.475-1.807,4.565-1.593,6.206c0.214,1.64,0.999,2.163,2.116,2.329
				c1.117,0.167,3.399-0.309,4.874-3.233c1.474-2.924,2.544-5.064,3.02-6.419c0.404-1.117-0.642-4.66-1.95-5.468
				c0,0-0.238,2.044-1.545,4.564c-1.378,2.639-2.853,2.853-3.447,2.853c-1.165,0-0.761-1.069-0.761-1.949
				C233.123,301.583,232.41,303.604,232.41,303.604z"/>
			<path fill="#B7BEBC" d="M233.907,305.529c-1.332-0.166-1.759-0.998-1.426-2.14c0.333-1.141,0.333-6.038,0.333-6.038l6.086-1.902
				l0.595,2.948C239.518,298.397,237.949,306.005,233.907,305.529z"/>
			<path fill="#B7BEBC" d="M249.717,303.723c0.214-0.737,0.643-2.401,0.952-3.353c0.309-0.951,0.309-3.138,0.309-3.138l6.086-2.378
				v2.116l-1.806,7.561l-3.805,3.875c0,0-2.021-1.142-1.973-1.236C249.503,307.075,249.717,303.723,249.717,303.723z"/>
			<path fill="#EFDC6F" d="M258.182,302.13c-0.356,0.88-1.213,3.638-2.259,6.181c-1.07,2.545-2.259,3.187-4.851,3.424
				c-2.567,0.238-3.708-1.236-3.375-2.9c0.309-1.664,2.401-7.013,2.972-8.464c-0.048,0.144-0.952,2.9-0.048,4.065
				c0.237,0.31,0.618,0.523,1.165,0.523c2.687,0,3.566-2.592,4.137-4.018c0.57-1.451,1.094-4.304,1.094-4.304
				s0.285,0.381,0.856,1.617c0.095,0.189,0.166,0.38,0.236,0.594C258.467,300.014,258.49,301.393,258.182,302.13z"/>
			<path fill="#FFDE00" d="M258.182,302.13c-0.356,0.88-1.213,3.638-2.259,6.181c-1.07,2.545-2.33,3.758-4.922,3.995
				c-2.567,0.237-3.637-1.808-3.328-3.472c0.309-1.664,2.4-7.013,2.971-8.464c-0.048,0.144-0.951,2.9-0.048,4.065
				c-0.998,2.996-1.521,4.327-0.57,5.278c1.07,1.07,3.804,0.642,5.515-3.827c1.094-2.877,2.021-5.54,2.521-7.062
				C258.467,300.014,258.49,301.393,258.182,302.13z"/>
			<path fill="#FFB287" d="M217.502,248.113c1.427-2.544,2.14-3.566,4.042-3.091s4.993,1.973,8.012,1.973
				c3.02,0,0.951,2.068,0.951,2.068L217.502,248.113z"/>
			<path fill="#E5D15E" d="M243.489,241.646c0.356-1.521-0.666-1.45,0.666-3.067c1.332-1.641,6.657-8.25,10.152-9.082
				c3.494-0.832,0.522,8.226,0.522,8.226l-5.396,6.158L243.489,241.646z"/>
			<path fill="#D6B90F" d="M249.123,241.052c-0.428,1.831,0.713,4.518,0.856,2.33c0.143-2.187,0.999-6.99,1.545-8.273
				c0,0-3.471,1.26-5.729,4.303L249.123,241.052z"/>
			<path fill="#E5D15E" d="M245.581,240.196c-0.594-0.119-1.617-0.904-1.426-1.521c0.19-0.595,1.949-1.474,5.254,2.496
				c2.425,2.9-2.568,5.753-4.304,0.404C244.749,240.458,245.581,240.196,245.581,240.196z"/>
			<g>
				<path fill="#FFB287" d="M221.663,250.515c8.488,1.545,16-0.071,20.137-2.639c2.473-1.521,4.327-3.257,5.73-4.921
					c0.476-0.571,0.903-1.142,1.284-1.665c0.286-0.404-0.428-1.474-1.759-2.425c-0.88-0.618-1.545-0.809-2.021-0.761
					c-0.452,0.024-0.737,0.262-0.88,0.452c-1.141,1.545-2.806,3.281-5.23,4.779c-4.47,2.782-10.271,3.947-17.213,3.495
					L221.663,250.515z"/>
				<path fill="#F58D6C" d="M245.058,238.128c1.427,1.117,2.188,3.091,2.497,4.85c0.476-0.571,0.903-1.142,1.284-1.665
					c0.285-0.404-0.428-1.474-1.759-2.425C246.199,238.271,245.533,238.08,245.058,238.128z"/>
			</g>
			<g>
				<path fill="#6A2DEA" d="M232.029,297.352l0.024-1.642c0.119-6.87,0.262-13.765,1.997-20.873c0.809-3.354,2.591-5.73,5.278-7.085
					c2.116-1.07,4.303-1.237,6.063-1.38c0.832-0.071,1.854-0.143,2.259-0.309c0.57-0.238,1.26-0.428,2.14-0.689
					c4.969-1.451,6.396-2.449,6.776-2.948c0.118-2.282,1.996-10.271,4.303-10.271c2.378,0,4.303,1.926,4.303,4.303
					c0,7.204-8.772,15.929-12.98,17.166c-0.499,0.143-1.142,0.333-1.332,0.403c-1.617,0.666-3.304,0.785-4.802,0.904
					c-3.281,0.262-3.305,0.451-3.661,1.901c-1.498,6.182-1.641,12.197-1.76,18.996l-0.023,1.664
					C240.588,299.871,231.981,299.729,232.029,297.352z"/>
			</g>
			<g>
				<path fill="#6A2DEA" d="M257.825,295.521c0.048-2.544-0.096-4.375-0.215-6.705c-0.237-4.279-0.475-8.345,0.523-12.506
					c0.428-1.759,2.877-3.97,7.275-3.97c1.141,0,3.756,1.022,5.159-0.642c2.068-2.497,2.473-7.87,2.473-15.264
					c0-2.378-1.926-4.304-4.304-4.304c-2.377,0-4.303,8.107-4.303,10.484c0,1.783-0.31,2.45-0.381,2.592
					c-0.404,0.19-1.735,0.286-2.544,0.334c-3.4,0.213-9.748,0.617-11.721,8.701c-1.308,5.421-1.046,10.294-0.761,15.049
					c0.143,2.283,0.261,4.422,0.213,6.634c-0.024,1.878,4.185,2.187,6.61,1.641C257.325,297.256,257.825,295.996,257.825,295.521z"
					/>
			</g>
			<path fill="#FFDE00" d="M251.952,245.688c-0.143,3.257-0.666,9.13-1.188,13.86c-0.357,3.305-0.737,6.063-0.999,6.99
				c-0.024,0.047-0.024,0.118-0.048,0.166l0,0c-0.024,0-0.024,0-0.024-0.023c-1.331-0.31-2.687-0.476-4.493-0.31
				c0.19-0.642,0.38-1.331,0.547-2.044c0.262-1.165,0.547-2.64,0.809-4.28c0.999-6.109,1.926-14.479,1.902-16.809
				c0,0,0.048-0.023,0.143-0.023c0.261-0.071,0.855-0.214,1.473-0.286c0.809-0.095,1.665-0.095,1.878,0.309
				C252,243.406,252,244.309,251.952,245.688z"/>
			<path d="M248.933,211.048c-0.523,7.037,5.73,13.337,12.743,13.932c7.014,0.595,13.268-2.187,14.17-9.177l0.762-6.871
				c0.903-6.99-4.113-13.171-11.127-13.766l-2.449-0.19c-7.014-0.571-13.219,4.707-13.742,11.721L248.933,211.048z"/>
			<path fill="#FFDE00" d="M274.943,247.115c-0.048,0.951-0.119,1.902-0.215,2.853c-0.166,1.641-0.38,4.137-0.665,6.8
				c-0.477,4.469-1.094,9.414-1.808,11.578c-0.499,1.498-2.234,0.998-4.327,0.119c-1.616-0.689-3.423-1.617-5.063-2.068
				c-1.355-0.381-2.473-0.404-3.424-0.262l0,0c-0.119,0.023-0.214,0.023-0.333,0.047c-1.807,0.333-3.162,1.213-4.826,1.427
				c-0.023,0-0.048,0-0.095,0c-0.048,0-0.096,0.024-0.143,0.024c-1.189,0.119,1.141-0.452-2.687-1.236
				c-0.643-0.143,0.023-2.925,0.784-7.038c0.88-4.755,1.831-11.269,0.975-17.474c-0.143-0.975-0.356-1.997-0.594-3.043
				c-0.832-3.566-1.76-7.323,0.546-9.01l0,0c0.618-0.452,1.45-0.761,2.592-0.88c0.048,0,0.095,0,0.143-0.024
				c0.071,0,0.167-0.023,0.238-0.023l2.472-0.143l7.941-0.476c3.638,0,5.92,2.544,7.204,6.372c0.665,1.973,1.046,4.303,1.236,6.776
				C275.038,243.263,275.038,245.189,274.943,247.115z"/>
			<path fill="#FFDE00" d="M269.188,253.581l-3.209,4.161l-6.515,8.393l0,0c-0.118,0.023-0.213,0.023-0.332,0.047
				c-1.808,0.333-3.162,1.213-4.826,1.427c-0.024,0-0.048,0-0.096,0s-0.096,0.024-0.143,0.024c-0.214,0.023-0.381,0.047-0.499,0.047
				c-0.333,0-0.5-0.071-0.928-0.214s-1.141-0.381-2.615-0.689l0,0c-0.095-0.023-0.19-0.048-0.286-0.048
				c-0.024,0-0.024,0-0.048-0.023c-0.023,0-0.023,0-0.023-0.023c-0.594-0.31,0.333-2.734,0.927-7.109
				c0.476-3.447,0.737-8.106-0.071-13.884c-0.119-0.904-0.285-1.831-0.475-2.782c-0.071-0.31-0.119-0.642-0.19-0.975
				c-0.69-3.233-0.88-7.346,0.832-10.081c0.975-1.545,2.544-2.639,5.017-2.9c0.047,0,0.095,0,0.143-0.024
				c0.071,0,0.166-0.023,0.238-0.023l2.472-0.143c0.404,1.26,0.523,4.66,2.045,4.565c3.139-0.238,4.518,0.238,4.874,3.78
				c0.523,5.183,0.642,9.082,0.642,9.082h2.544L269.188,253.581z"/>
			<path fill="#FFB287" d="M271.995,216.92c-0.167,1.308,0.76,2.473,2.068,2.639l0,0c1.308,0.167,2.472-0.761,2.639-2.068
				l0.238-1.997c0.166-1.308-0.762-2.473-2.069-2.639l0,0c-1.308-0.167-2.473,0.761-2.639,2.068L271.995,216.92z"/>
			<path fill="#FFFFFF" d="M266.479,228.309c0.167,2.568-3.328,4.897-5.896,5.041l-0.69,0.047c-2.567,0.167-3.685-1.878-3.851-4.446
				L266.479,228.309z"/>
			<path fill="#FFB287" d="M257.254,228.618c0.119,1.902,0.547,3.281,2.544,3.138l0.689-0.047c2.021-0.119,4.874-1.688,4.755-3.59
				l-0.166-2.663c-0.119-1.902-1.854-3.376-3.876-3.257l-0.688,0.048c-2.021,0.119-3.566,1.783-3.448,3.709L257.254,228.618z"/>
			<path fill="#F58D6C" d="M265.147,226.288c0.071,1.142-2.734,2.71-4.208,2.924c-1.475,0.19-3.614,0.381-3.709-0.927l-0.404-6.633
				l7.965-1.07L265.147,226.288z"/>
			<path fill="#FFB287" d="M250.169,215.803c-0.261,6.395,3.162,10.39,9.511,10.913c6.348,0.523,13.884-4.47,14.669-10.818
				l0.547-3.804c0.784-6.348-3.709-10.627-10.081-11.15l-5.729-0.476c-6.372-0.523-8.393,3.233-8.654,9.629L250.169,215.803z"/>
			<path fill="#FFFFFF" fill-opacity="0" d="M266.051,212.57c-0.071,0.927-0.903,1.64-1.83,1.545
				c-0.928-0.071-1.641-0.904-1.546-1.831c0.096-0.927,0.903-1.641,1.831-1.545C265.433,210.811,266.122,211.619,266.051,212.57z"/>
			<g>
				<path fill="#422B27" d="M264.862,213.402c-0.024,0-0.048,0-0.071,0c-0.214-0.024-0.429-0.119-0.547-0.285
					c-0.143-0.167-0.214-0.38-0.19-0.594c0.024-0.428,0.404-0.761,0.809-0.761c0.023,0,0.048,0,0.071,0
					c0.452,0.048,0.784,0.428,0.761,0.88C265.646,213.069,265.29,213.402,264.862,213.402L264.862,213.402z"/>
				<path fill="#422B27" d="M264.862,211.833c0.023,0,0.048,0,0.071,0c0.404,0.024,0.713,0.404,0.689,0.809
					c-0.024,0.38-0.356,0.689-0.737,0.689c-0.023,0-0.048,0-0.071,0c-0.404-0.024-0.713-0.404-0.689-0.808
					C264.148,212.142,264.481,211.833,264.862,211.833L264.862,211.833z M264.862,211.69c-0.452,0-0.856,0.357-0.88,0.833
					c-0.048,0.499,0.333,0.927,0.809,0.975c0.023,0,0.047,0,0.071,0c0.451,0,0.855-0.357,0.88-0.833
					c0.023-0.237-0.048-0.475-0.214-0.642c-0.167-0.19-0.381-0.285-0.618-0.309C264.91,211.69,264.886,211.69,264.862,211.69
					L264.862,211.69z"/>
			</g>
			<g opacity="0">
				<path fill="#FFFFFF" d="M263.745,212.237c-0.024,0.19,0.118,0.333,0.309,0.357c0.19,0.023,0.333-0.119,0.356-0.309
					c0.024-0.19-0.119-0.333-0.309-0.357C263.911,211.904,263.745,212.047,263.745,212.237z"/>
			</g>
			<path d="M269.522,203.179c-1.926-0.167-10.129-0.832-13.742-1.118c-1.498-0.119-2.829-0.261-3.638-1.141
				c-2.591-2.829-1.664-7.917-1.664-7.917s1.117,1.022,7.347,1.545c6.514,0.523,11.697,0.024,15.929,5.23
				C274.824,201.086,269.522,203.179,269.522,203.179z"/>
			<path d="M264.601,201.538c-0.071,0.975-1.188,1.118,0.928,1.284c2.163,0.167,5.491,1.498,5.111,6.206
				c-0.167,1.973-0.309,3.899-0.381,4.779c-0.071,0.855,1.641,1.426,2.188,0.19c0.737-1.617,2.354-1.165,2.473-1.165
				c0.903,0.095,0.88-7.156,0.452-7.798c-0.428-0.642-2.401-3.495-3.02-3.971c-0.643-0.476-5.517-2.544-5.517-2.544
				s-1.641-0.666-2.306,0.119C263.84,199.446,264.601,201.538,264.601,201.538z"/>
			<g>
				<path d="M266.646,210.288c-0.119,0-0.238-0.048-0.333-0.167c-0.57-0.713-1.26-0.951-2.33-0.809
					c-0.237,0.024-0.428-0.143-0.476-0.356c-0.023-0.238,0.143-0.428,0.356-0.476c1.355-0.167,2.307,0.167,3.067,1.117
					c0.143,0.19,0.119,0.452-0.071,0.595C266.812,210.264,266.717,210.288,266.646,210.288z"/>
			</g>
			<g>
				<path d="M252.309,209.336c-0.071,0-0.166-0.024-0.213-0.071c-0.191-0.119-0.262-0.38-0.119-0.571
					c0.689-1.07,2.187-1.141,3.305-0.737c0.214,0.071,0.333,0.309,0.261,0.523c-0.071,0.214-0.309,0.333-0.522,0.262
					c-0.832-0.309-1.902-0.262-2.33,0.404C252.595,209.289,252.452,209.336,252.309,209.336z"/>
			</g>
			<g>
				<path fill="#FFB287" d="M253.355,215.232c0,1.308-1.07,2.377-2.378,2.377l0,0c-1.308,0-2.377-1.07-2.377-2.377v-2.021
					c0-1.308,1.069-2.377,2.377-2.377l0,0c1.308,0,2.378,1.07,2.378,2.377V215.232z"/>
			</g>
			<path fill="#FFDE00" d="M259.133,266.182c1.046-0.189,2.234-0.189,3.756,0.215c1.641,0.451,3.448,1.379,5.064,2.068
				c4.47-4.731,5.111-21.73,5.111-21.73l-0.785,2.092c0,0-6.275,2.854-6.229,3.162C266.099,252.25,261.604,264.613,259.133,266.182z
				"/>
			<path fill="#FFDE00" d="M274.087,256.768c-0.476,4.469-1.094,9.414-1.808,11.578c-0.499,1.498-2.234,0.998-4.326,0.119
				c-1.616-0.689-3.424-1.617-5.064-2.068c-1.355-0.381-2.473-0.404-3.424-0.262l0,0c-0.118,0.023-0.213,0.023-0.332,0.047
				c-1.808,0.333-3.162,1.213-4.826,1.427c-0.024,0-0.048,0-0.096,0s-0.096,0.024-0.143,0.024c-0.214,0.023-0.381,0.047-0.499,0.047
				c-0.333,0-0.5-0.071-0.928-0.214s-1.141-0.381-2.615-0.689l0,0c-0.095-0.023-0.19-0.048-0.286-0.048
				c-0.024,0-0.024,0-0.048-0.023c-0.023,0-0.023,0-0.023-0.023c-1.332-0.31-2.687-0.476-4.493-0.31
				c0.19-0.642,0.38-1.331,0.547-2.044c0.261-1.165,0.547-2.64,0.808-4.28l4.065-0.476l0.167-0.023l1.427-0.166l13.789-1.641
				L274.087,256.768z"/>
			<path fill="#422B27" d="M254.544,212.57c-0.024,0-0.048,0-0.071,0c-0.214-0.024-0.428-0.119-0.547-0.285
				c-0.143-0.167-0.214-0.381-0.19-0.595c0.023-0.428,0.404-0.761,0.809-0.761c0.023,0,0.047,0,0.071,0
				c0.451,0.047,0.784,0.428,0.761,0.88C255.328,212.237,254.972,212.57,254.544,212.57L254.544,212.57z"/>
			<path fill="#8E2B30" d="M264.173,218.704c0,0-1.76,4.208-6.016,3.899c-4.707-0.357-4.303-4.66-4.303-4.66L264.173,218.704
				L264.173,218.704z"/>
			<g>
				<path fill="#F58D6C" d="M257.777,216.279c-1.142-0.095-2.068-0.833-1.974-1.474c0.048-0.238,0.31-0.523,0.737-0.262
					c0.189,0.119,0.761,0.286,1.355,0.309c0.594,0.047,0.927-0.047,1.26-0.119c0.761-0.167,0.951,0.143,0.951,0.38
					C260.107,215.779,258.919,216.35,257.777,216.279z"/>
			</g>
			<path fill="#D85365" d="M255.732,221.842c1.309-1.355,4.327-1.07,6.657-0.713c-0.975,0.879-2.354,1.616-4.232,1.474
				C257.111,222.531,256.327,222.246,255.732,221.842C255.732,221.866,255.732,221.842,255.732,221.842z"/>
			<path fill="#FFFFFF" d="M264.148,218.751c-0.07,0.143-0.285,0.595-0.665,1.094c0,0,0.309-0.38,0.143-0.333
				c0,0-8.06,0.333-9.082-0.88l-0.237-0.642l9.866,0.737L264.148,218.751z"/>
			<path fill="#F58D6C" d="M273.611,215.589c0.071-0.523,0.522-0.88,1.046-0.809c0.024,0,0.071,0.024,0.095,0.024
				c0.096-0.024,0.191-0.024,0.286-0.024c0.522,0.071,0.879,0.523,0.809,1.046l-0.144,1.212c-0.07,0.523-0.522,0.879-1.046,0.808
				c-0.023,0-0.071-0.023-0.095-0.023c-0.095,0.023-0.19,0.023-0.285,0.023c-0.523-0.047-0.88-0.523-0.809-1.046L273.611,215.589z"
				/>
			<path fill="#FFDE00" d="M253.069,229.854c-3.613,1.902-4.755,5.92-4.612,12.648l0.428,3.186h3.234L253.069,229.854z"/>
			<path fill="#E5D15E" d="M269.094,245.617c1.332-2.924,1.546-4.802,1.783-6.086l-2.045,4.018l-3.565-2.948l-0.356,0.238
				l-0.333,0.333c-0.071,1.545-0.19,4.137-0.262,6.158c-0.024,0.357,0.927,0.499,1.616,0.523
				C267.145,247.828,268.5,246.924,269.094,245.617z"/>
			<path fill="#E5D15E" d="M269.165,232.113c-1.568-0.927-1.807,0.238-5.967,6.324c0,0,0.855,1.498,0.927,1.521
				c0.096,0.047,2.473,1.141,2.473,1.141l3.328-5.682L269.165,232.113z"/>
			<path fill="#D6B90F" d="M264.529,240.196c-0.595-0.119-1.616-0.904-1.427-1.521c0.19-0.595,1.95-1.474,5.255,2.496
				c2.425,2.9-2.568,5.753-4.304,0.404C263.721,240.458,264.529,240.196,264.529,240.196z"/>
			<g>
				<path fill="#FFB287" d="M240.683,250.515c8.511,1.545,16.024-0.071,20.161-2.639c2.426-1.498,4.28-3.233,5.683-4.874
					c0.499-0.594,0.927-1.165,1.331-1.735c0.285-0.404-0.428-1.474-1.759-2.425c-0.404-0.285-0.737-0.475-1.07-0.594
					c-1.046-0.404-1.641-0.024-1.854,0.285c-1.141,1.545-2.806,3.281-5.23,4.779c-4.493,2.782-10.27,3.947-17.212,3.495
					L240.683,250.515z"/>
				<path fill="#F58D6C" d="M266.074,238.889c-0.404-0.286-0.736-0.476-1.069-0.595c0.119,0.119,0.262,0.262,0.428,0.404
					c1.117,1.189,1.284,3.091,1.069,4.327c0.5-0.594,0.928-1.165,1.332-1.736C268.119,240.91,267.43,239.839,266.074,238.889z"/>
			</g>
			<path fill="#6F43E8" d="M252.333,277.736c-0.761-3.494-1.117-8.201,1.474-10.032c2.567-1.831,5.944-2.734,11.341-0.476
				s-8.131,3.399-8.273,3.519C256.684,270.89,252.333,277.736,252.333,277.736z"/>
		</g>
		<g>
			<g>
				
					<path fill="none" stroke="#D5E6EF" stroke-width="9.8071" stroke-linecap="round" stroke-linejoin="round" stroke-miterlimit="10" d="
					M265.67,265.23v9.439c0,2.687,2.188,4.874,4.874,4.874h8.488c2.687,0,4.518-2.164,4.089-4.803l-0.879-5.325
					c-0.429-2.64-1.403-4.803-2.164-4.803s-1.379,0-1.379,0"/>
			</g>
			
				<path fill="none" stroke="#BED6E3" stroke-width="9.8071" stroke-linecap="round" stroke-linejoin="round" stroke-miterlimit="10" d="
				M284.904,274.337c0.381,2.496-1.354,4.518-3.875,4.518h-9.296c-2.521,0-4.589-1.831-4.589-4.065v-2.141"/>
			
				<path fill="none" stroke="#BED6E3" stroke-width="9.8071" stroke-linecap="round" stroke-linejoin="round" stroke-miterlimit="10" d="
				M284.904,274.337l-1.046-6.752c-0.048-0.333-0.119-0.666-0.19-0.999"/>
			
				<path fill="none" stroke="#BED6E3" stroke-width="9.8071" stroke-linecap="round" stroke-linejoin="round" stroke-miterlimit="10" d="
				M283.691,266.586c-0.451-2.021-1.235-3.519-1.901-3.519c-0.761,0-1.379,0-1.379,0"/>
			
				<path fill="none" stroke="#BED6E3" stroke-width="9.8071" stroke-linecap="round" stroke-linejoin="round" stroke-miterlimit="10" d="
				M267.169,270.699c0,0,0-0.309,0,1.926"/>
			<g>
				
					<path fill="none" stroke="#F3DCFA" stroke-width="19.6141" stroke-linecap="round" stroke-linejoin="round" stroke-miterlimit="10" d="
					M283.098,263.067h-11.341c-2.521,0-4.588,1.617-4.588,3.614s0,3.613,0,3.613"/>
			</g>
			<g>
				
					<path fill="none" stroke="#C490D5" stroke-width="19.6141" stroke-linecap="round" stroke-linejoin="round" stroke-miterlimit="10" d="
					M281.457,260.096h-11.341c-2.52,0-4.588,2.068-4.588,4.589v5.61"/>
			</g>
		</g>
	</g>
	<g>
		<path fill="#CC2B33" d="M276.179,256.934c-0.023-0.333-0.023-0.666-0.023-0.975h0.023c0,0.381,0,0.784,0.024,1.188
			C276.203,257.076,276.179,257.005,276.179,256.934z"/>
		<path fill="#CC2B33" d="M267.097,258.479L267.097,258.479c0.048-0.07,0.096-0.118,0.119-0.166c0,0.024-0.023,0.071-0.047,0.166
			H267.097z"/>
	</g>
	<path fill="#E8E8E8" d="M313.054,320.199H158.755c-0.523,0-0.951-0.429-0.951-0.951l0,0c0-0.523,0.428-0.951,0.951-0.951h154.299
		c0.523,0,0.951,0.428,0.951,0.951l0,0C314.005,319.771,313.577,320.199,313.054,320.199z"/>
	<rect x="178.892" y="252.726" fill="#B0B0E2" width="4.85" height="66.569"/>
	<rect x="178.892" y="252.726" fill="#8C8CC8" width="2.473" height="66.569"/>
	<rect x="161.703" y="252.726" fill="#B0B0E2" width="4.85" height="66.569"/>
	<rect x="164.081" y="252.726" fill="#8C8CC8" width="2.52" height="66.569"/>
	<g>
		<path fill="#43535B" d="M256.137,250.871c0.404,0.143,0.381,0.262-0.047,0.262h-34.498c-0.428,0-0.761-0.333-0.761-0.761v-1.022
			c0-0.428,0.333-0.761,0.761-0.761h27.484c0.428,0,1.07,0.119,1.474,0.262L256.137,250.871z"/>
	</g>
	<g>
		<path fill="#61778C" d="M257.873,250.372c0,0.428-0.334,0.761-0.762,0.761h-7.227c-0.428,0-0.761-0.333-0.761-0.761v-1.022
			c0-0.428,0.333-0.737,0.761-0.713l7.227,0.428c0.428,0.024,0.762,0.381,0.762,0.809V250.372z"/>
	</g>
	<rect x="161.465" y="252.749" fill="#C490D5" width="146.501" height="9.272"/>
	<rect x="290.087" y="257.172" fill="#AF84BF" width="17.879" height="4.897"/>
	<rect x="161.465" y="252.512" fill="#FFFFFF" width="128.836" height="4.66"/>
	<rect x="155.308" y="250.372" fill="#F3DCFA" width="138.037" height="4.898"/>
	<rect x="292.679" y="250.372" fill="#DAC3E2" width="22.942" height="4.898"/>
	<polygon fill="#8C8CC8" points="290.468,262.021 285.522,262.021 285.522,265.255 287.995,263.639 290.468,263.639 	"/>
	<path fill="#BFCBD1" d="M206.495,243.144c-0.023,0.048-0.047,0.048-0.047,0.048C206.447,243.168,206.471,243.168,206.495,243.144z"
		/>
	<path fill="#492323" d="M261.891,268.155c-0.333,0-0.499-0.071-0.928-0.214C261.272,268.013,261.581,268.084,261.891,268.155z"/>
	<rect x="290.087" y="255.27" fill="#E9ECF5" width="17.855" height="1.902"/>
	<g>
		
			<rect x="238.423" y="224.979" transform="matrix(-0.9987 -0.0507 0.0507 -0.9987 473.2314 470.5214)" fill="#FF65A7" width="8.321" height="8.559"/>
		<path fill="#755BAE" d="M187.665,239.958c0.024,0.832,2.829,1.498,3.661,1.498h49.856c0.832,0,1.498-0.666,1.474-1.498
			l-0.832-35.71c-0.024-0.832-0.713-1.498-1.545-1.498h-51.972c-0.832,0-1.498,0.666-1.474,1.498L187.665,239.958z"/>
		<path fill="#AE9DCF" d="M239.898,239.958c0.024,0.832-0.642,1.498-1.474,1.498h-51.972c-0.832,0-1.521-0.666-1.545-1.498
			l-0.832-35.71c-0.024-0.832,0.642-1.498,1.474-1.498h51.972c0.832,0,1.521,0.666,1.545,1.498L239.898,239.958z"/>
		<path fill="#AE9DCF" d="M221.069,241.433c0,0-0.071,0-0.238,0.023h-16.5c2.092-4.684,10.912-15.216,11.222-15.287
			c0.428-0.095,2.829-0.095,2.829-0.095L221.069,241.433z"/>
		<path fill="#8C8CC8" d="M217.289,224.552h-7.465c-0.832,0-1.688,0.666-1.878,1.498l-2.163,8.725l-3.376,13.932
			c-0.071,0.333-0.047,0.618,0.048,0.879c0.167,0.381,0.571,0.643,1.07,0.643h7.465c0.832,0,1.664-0.666,1.878-1.498l1.355-5.563
			l0.404-1.688l3.78-15.406C218.62,225.242,218.121,224.552,217.289,224.552z M203.832,244.024l0.903-3.471
			c0.143-0.547,0.689-0.999,1.236-0.999h4.945c0.547,0,0.879,0.452,0.737,0.999l-0.903,3.471c-0.143,0.547-0.689,0.999-1.26,0.999
			h-4.921C204.022,245.022,203.689,244.571,203.832,244.024z"/>
		<polygon fill="#8C8CC8" points="217.502,226.454 218.121,224.909 217.336,223.149 212.867,222.841 215.553,226.335 		"/>
		<path fill="#B0B0E2" d="M216.266,222.531h-7.465c-0.833,0-1.688,0.666-1.878,1.498l-5.849,24.036
			c-0.214,0.833,0.285,1.498,1.117,1.498h7.465c0.832,0,1.688-0.666,1.878-1.498l5.706-23.513l0.119-0.523
			C217.598,223.197,217.099,222.531,216.266,222.531z M211.678,240.553l-0.903,3.471c-0.143,0.547-0.689,0.999-1.26,0.999h-4.945
			c-0.547,0-0.88-0.452-0.737-0.999l0.903-3.471c0.143-0.547,0.689-0.999,1.236-0.999h4.945
			C211.464,239.554,211.796,240.006,211.678,240.553z"/>
		<g>
			<path fill="#8C8CC8" d="M222.899,250.086c0,0.428-0.333,0.761-0.761,0.761H198.53c-0.428,0-0.761-0.333-0.761-0.761v-1.022
				c0-0.428,0.333-0.761,0.761-0.761h23.608c0.428,0,0.761,0.333,0.761,0.761V250.086L222.899,250.086z"/>
		</g>
		<g>
			<path fill="#B0B0E2" d="M223.922,250.086c0,0.428-0.333,0.761-0.761,0.761h-7.228c-0.428,0-0.761-0.333-0.761-0.761v-1.022
				c0-0.428,0.333-0.761,0.761-0.761h7.228c0.428,0,0.761,0.333,0.761,0.761V250.086z"/>
		</g>
	</g>
</g>
</svg>
