<?xml version="1.0" encoding="utf-8"?>
<!-- Generator: Adobe Illustrator 16.0.0, SVG Export Plug-In . SVG Version: 6.00 Build 0)  -->
<!DOCTYPE svg PUBLIC "-//W3C//DTD SVG 1.1//EN" "http://www.w3.org/Graphics/SVG/1.1/DTD/svg11.dtd">
<svg version="1.1" id="Layer_1" xmlns="http://www.w3.org/2000/svg" xmlns:xlink="http://www.w3.org/1999/xlink" x="0px" y="0px"
	 width="200px" height="190.355px" viewBox="155.138 151.943 200 190.355" enable-background="new 155.138 151.943 200 190.355"
	 xml:space="preserve">
<g>
	<path opacity="0.5" fill="#E9ECF5" enable-background="new    " d="M217.343,162.804c0,0,125.001,6.434,137.199,53.505
		c0,0,8.159,46.403-35.901,81.07c-3.526,2.779-7.361,5.456-11.582,8.055c0,0-8.621,6.769-12.688,9.96
		c-15.236,11.864-52.399,31.99-96.743-19.92c-2.779-3.242-19.276-19.225-25.607-28.516c-5.945-8.698-9.007-17.964-10.526-27.795
		C161.495,239.163,164.326,168.26,217.343,162.804z"/>
	<path opacity="0.5" fill="#E9ECF5" enable-background="new    " d="M214.46,151.943c0,0,125.001,6.434,137.2,53.506
		c0,0,8.158,46.402-35.902,81.069c-3.526,2.779-7.36,5.456-11.581,8.056c0,0-8.622,6.769-12.688,9.959
		c-15.235,11.865-52.398,31.991-96.742-19.919c-2.779-3.243-19.276-19.225-25.607-28.516c-5.945-8.699-9.008-17.964-10.526-27.795
		C158.638,228.302,161.443,157.399,214.46,151.943z"/>
	<rect x="196.059" y="271.205" fill="#0A89E8" width="32.454" height="1.157"/>
	<path fill="#F3DCFA" d="M331.02,167.951l0.18,106.599c0,5.251-4.221,9.497-9.471,9.497l-156.888,0.283
		c-5.25,0-9.497-4.221-9.497-9.471l-0.206-106.6c0-5.25,4.221-9.497,9.471-9.497l156.888-0.283
		C326.747,158.48,330.993,162.727,331.02,167.951z"/>
	<path fill="#C490D5" d="M164.043,171.194v89.536c0,1.956,1.57,3.526,3.525,3.526h151.046c1.956,0,3.526-1.57,3.526-3.526v-89.536
		c0-1.956-1.57-3.526-3.526-3.526h-151.02C165.639,167.667,164.043,169.238,164.043,171.194z"/>
	<rect x="174.105" y="172.223" fill="#FFFFFF" width="120.034" height="7.489"/>
	<path fill="#FFFFFF" d="M164.043,188.514v71.546c0,2.343,1.904,4.221,4.221,4.221h150.016c2.137,0,3.861-1.724,3.861-3.86v-71.907
		H164.043z"/>
	<rect x="167.568" y="198.448" fill="#E8E8E8" width="78.213" height="52.708"/>
	<rect x="167.568" y="251.131" opacity="0.68" fill="#B0B0E2" enable-background="new    " width="78.213" height="8.775"/>
	<rect x="245.781" y="198.448" fill="#EBDEF9" width="32.273" height="20.486"/>
	<rect x="245.781" y="218.935" opacity="0.68" fill="#B0B0E2" enable-background="new    " width="32.273" height="20.486"/>
	<rect x="245.781" y="239.42" fill="#EBDEF9" width="32.273" height="20.486"/>
	<path fill="#B0B0E2" d="M318.049,209.772h-35.337c-0.309,0-0.54-0.257-0.54-0.54v-0.875c0-0.309,0.258-0.541,0.54-0.541h35.337
		c0.309,0,0.54,0.257,0.54,0.541v0.875C318.589,209.515,318.331,209.772,318.049,209.772z"/>
	<path fill="#B0B0E2" d="M318.049,229.898h-35.337c-0.309,0-0.54-0.257-0.54-0.541v-0.875c0-0.309,0.258-0.541,0.54-0.541h35.337
		c0.309,0,0.54,0.257,0.54,0.541v0.875C318.589,229.641,318.331,229.898,318.049,229.898z"/>
	<path fill="#B0B0E2" d="M318.049,252.16h-35.337c-0.309,0-0.54-0.258-0.54-0.541v-0.875c0-0.309,0.258-0.54,0.54-0.54h35.337
		c0.309,0,0.54,0.257,0.54,0.54v0.875C318.589,251.902,318.331,252.16,318.049,252.16z"/>
	<path fill="#F3DCFA" d="M317.714,179.712h-18.582c-0.488,0-0.875-0.386-0.875-0.875v-5.765c0-0.489,0.387-0.875,0.875-0.875h18.582
		c0.489,0,0.875,0.386,0.875,0.875v5.765C318.589,179.326,318.203,179.712,317.714,179.712z"/>
	<rect x="164.197" y="183.058" fill="#FFFFFF" width="157.969" height="8.519"/>
	<g>
		<path fill="#C490D5" d="M243.156,268.091c3.268,0,5.919,2.625,5.919,5.894c0,3.268-2.625,5.919-5.894,5.919
			s-5.919-2.625-5.919-5.894C237.262,270.767,239.888,268.116,243.156,268.091z"/>
		<path fill="#FFFFFF" d="M243.156,269.892c2.265,0,4.118,1.827,4.118,4.118c0,2.265-1.828,4.118-4.118,4.118
			c-2.291,0-4.118-1.827-4.118-4.118C239.038,271.745,240.891,269.892,243.156,269.892z"/>
	</g>
	<path fill="#FFA786" d="M268.12,269.403l2.316,2.496l0.54,4.941l-0.746,0.927l-0.644-3.166l-0.309,3.938l0.515,2.986l-1.056,0.128
		l-0.643-3.088l-0.335-2.96l0.025,3.423l0.154,2.96l-0.617,0.128l-0.515-3.19l-0.154-2.702l-0.231,2.444l0.231,2.497l-0.67-0.232
		l-0.282-2.315l-0.231-2.857l-0.077,1.827l0.205,1.931l-0.488-0.104c-0.155-0.36-0.361-1.725-0.361-2.059
		c-0.051-2.831,0.181-5.585,0.464-7.901h2.908V269.403z"/>
	<path fill="#050505" d="M199.919,209.798c0,0-2.805,11.092-0.695,15.854l5.147-5.122c-1.132-2.831-1.93-4.967,0.283-7.051
		L199.919,209.798z"/>
	<path fill="#FFFFFF" d="M267.734,218.445c0.051,0.206-0.052,0.386-0.232,0.386c-0.18,0-0.386-0.155-0.437-0.36
		c-0.052-0.206,0.051-0.386,0.231-0.386C267.477,218.059,267.683,218.24,267.734,218.445z"/>
	<path fill="#434A54" d="M292.08,333.744v7.592c0,1.209,5.766,1.363,6.666-0.026c0,0,0.746-3.217-2.394-7.592h-4.272V333.744z"/>
	<path fill="#3D3D3D" d="M292.93,279.492c-5.147,0.9-10.063,1.003-14.67,0v-17.089h14.67V279.492z"/>
	<path fill="#434A54" d="M276.639,334.696c0,0-6.949,1.904-8.39,2.29c-1.287,0.129-3.243,2.779-0.67,2.883
		c0,0,1.673,0.231,5.791-0.231c2.11-0.232,8.647-1.519,8.647-1.519s0.566-3.604-1.21-3.681L276.639,334.696z"/>
	<path fill="#3D3D3D" d="M282.095,334.772h-7.18c0,0-3.784-49.078-1.905-74.454l11.941,0.129
		C282.353,285.616,282.095,334.772,282.095,334.772z"/>
	<path fill="#3D3D3D" d="M290.769,334.772h7.54c0,0,1.39-49.078-0.489-74.454l-13.537,1.313
		C286.855,286.801,290.769,334.772,290.769,334.772z"/>
	<path fill="#B9B9BA" d="M273.164,335.03c-0.025-0.103-0.334-2.548-0.334-2.548c3.5,0.927,6.896,1.029,10.165,0.181l0.155,2.367
		C279.984,335.751,276.664,335.699,273.164,335.03z"/>
	<path opacity="0.46" fill="#363D44" enable-background="new    " d="M292.055,227.659c-1.854,0.927-3.783-0.309-6.279-0.283
		c-2.496,0.025-3.166,0.025-5.019-0.901c-2.471-0.231-4.916-3.86-8.107-2.239l-0.128,48.745c2.315,1.004,4.478,1.441,9.573,1.544
		c0.283,0,1.081,0.025,1.39,0c4.504-0.18,12.534-0.54,14.927-1.313l0.695-48.847C295.967,222.666,294.963,227.479,292.055,227.659z"
		/>
	<path fill="#EDC006" d="M292.055,226.321c-1.854,0.926-3.783-0.309-6.279-0.283c-2.496,0.025-3.166,0.025-5.019-0.901
		c-2.471-0.231-5.199-3.731-8.391-2.11l-1.184,47.432c0,1.39,3.294,2.677,10.14,2.806c0.283,0,2.935,0.154,3.269,0.128
		c6.409-0.257,15.468-1.338,15.468-2.599l0.618-47.586C297.511,221.534,294.963,226.141,292.055,226.321z"/>
	<path fill="#EDC006" d="M285.389,217.931h-4.581c0,0-5.507,3.475-8.081,3.475c-4.529,0-5.533,4.144-5.533,4.144
		c-2.728,6.099,4.092,5.173,4.092,5.173s6.614-0.052,14.078-0.077v-12.714H285.389z"/>
	<path fill="#EDC006" d="M285.389,217.931h4.71c0,0,4.89,3.475,7.387,3.475c4.426,0,5.816,2.471,5.816,2.471
		c2.677,6.099-4.272,6.846-4.272,6.846s-6.949-0.052-13.641-0.077V217.931z"/>
	<rect x="281.271" y="211.985" fill="#F9A48A" width="7.129" height="10.758"/>
	<path fill="#DD920B" d="M276.407,220.324l3.114-1.441c0.257,0.077,1.158,2.084,1.44,2.162c2.214,0.463,5.045,0.618,7.541,0.386
		c0.438-0.051,1.956-2.856,2.368-2.908l2.65,1.467l-5.353,6.357c-3.552,4.838-6.614,4.787-9.111-0.798L276.407,220.324z"/>
	<path fill="#EDC006" d="M267.426,224.957c-2.472,8.364-6.409,23.549-1.082,28.49l3.32-1.75l4.735-19.945L267.426,224.957z"/>
	<path fill="#FFA786" d="M292.569,198.577c0,0,1.467,18.479-9.136,19.096c-11.659,0.669-10.759-15.467-10.759-15.467
		c-0.617-0.952-1.955-6.872,0.284-9.24c4.606-4.864,15.21-7.412,19.481,0.103C293.187,194.408,292.158,196.57,292.569,198.577z"/>
	<path fill="#FFA786" d="M291.36,204.728c-0.464,1.441-0.104,2.831,0.798,3.14c0.9,0.309,2.032-0.618,2.496-2.059
		c0.463-1.441,0.103-2.831-0.798-3.14C292.956,202.36,291.823,203.287,291.36,204.728z"/>
	<path fill="#FFA786" d="M274.837,204.728c0.464,1.441,0.104,2.831-0.798,3.14c-0.9,0.309-2.033-0.618-2.496-2.059
		c-0.464-1.441-0.104-2.831,0.798-3.14C273.268,202.36,274.374,203.287,274.837,204.728z"/>
	<path fill="#2B2B2B" d="M282.995,203.055c-0.283-0.051-0.463-0.463-0.411-0.952l0,0c0.103-0.489,0.309-0.669,0.644-0.824
		c1.647-0.283,5.585,0.644,5.275,1.647l0,0C287.551,202.334,284.308,202.18,282.995,203.055z"/>
	<path fill="#2B2B2B" d="M278.415,202.978c0.257-0.026,0.411-0.463,0.334-0.952l0,0c-0.103-0.489-0.283-0.695-0.566-0.824
		c-1.415-0.309-4.838,0.489-4.555,1.493l0,0C274.451,202.154,277.257,202.077,278.415,202.978z"/>
	<path fill="none" stroke="#CC7E66" stroke-width="1.4775" stroke-miterlimit="10" d="M279.264,202.618c0,0,1.056,1.647,0.618,2.959
		"/>
	<path fill="#CC7E66" d="M279.753,209.463c-0.875-0.515-1.338-0.952-1.364-1.287c-0.025-0.334,0.36-0.849,1.133-1.493
		c0.334-0.283,0.643,0,0.309,0.284c-0.412,0.334-0.85,0.823-1.056,1.132c0.283,0.489,0.798,0.72,1.262,0.978
		C280.576,209.412,280.293,209.772,279.753,209.463z"/>
	<path fill="#CC7E66" d="M279.058,211.239c0.104,0.077,2.42,2.033,4.891,0.051c0.617-0.489,1.132,0.334,0.488,0.824
		c-3.011,2.394-5.894-0.051-5.919-0.077C278.132,211.703,278.646,210.905,279.058,211.239z"/>
	<path fill="#2B2B2B" d="M290.613,188.54c0,0,1.39,0.952-0.566,5.404c0.026,1.596-0.334,2.754-1.853,3.783
		c0.103-0.901-0.052-1.724-0.258-1.57c-0.9,0.644-0.694,2.11-0.334,3.037c-0.747-0.154-1.699-0.721-2.162-1.596
		c-0.231,0.798,0.052,2.471,0.695,3.243c-2.265-0.798-3.654-1.853-3.964-2.548c-0.463,0.618-0.283,1.519,0.335,2.059
		c-2.008-0.566-2.96-0.747-4.633-1.75c-1.519-0.952-5.147-2.805-4.169-7.129c0.104-0.438,0.154-0.025,0.36-0.489
		c0,0-1.185-1.158,0.978-2.419C277.102,187.356,288.915,187.382,290.613,188.54z"/>
	<path fill="#2B2B2B" d="M291.797,206.35c0,0-0.669-1.493-1.492-6.383c0,0-10.037-6.872-5.662-6.28
		c0.387,0.051,2.162-4.735,3.552-5.379c2.342-1.081,5.276,2.703,5.276,2.703c0.72,1.235,1.261,2.419,1.338,3.5
		C294.809,194.511,295.786,202.129,291.797,206.35z"/>
	<path fill="#2B2B2B" d="M273.19,206.041c0,0-1.21-2.316,0-7.18c0,0,6.048-6.203,4.118-5.636c-0.36,0.103,0.514-3.835-0.876-4.479
		c-2.342-1.081-4.195,2.265-4.195,2.265c-0.721,1.235-1.261,2.419-1.338,3.5C270.874,194.511,270.102,202.103,273.19,206.041z"/>
	<path fill="#B9B9BA" d="M299.441,335.134c0.025-0.104,0.154-2.548,0.154-2.548c-3.449,1.003-6.82,1.363-10.141,0.874l0.026,2.368
		C292.801,336.317,296.121,336.06,299.441,335.134z"/>
	<path fill="#EDC006" d="M302.761,223.232c5.173,4.838,10.938,20.537,8.699,26.226l-5.431-2.471
		c-3.346-5.302-4.606-8.596-10.938-14.721L302.761,223.232z"/>
	<polygon fill="#EDC006" points="283.073,222.846 280.499,217.854 277.23,219.32 281.168,226.681 	"/>
	<polygon opacity="0.22" fill="#303030" enable-background="new    " points="283.073,222.846 281.194,226.655 281.605,227.453 
		283.073,224.21 285.184,228.071 285.775,227.376 	"/>
	<polygon fill="#EDC006" points="283.073,222.846 289.43,217.39 292.595,218.935 285.595,227.582 	"/>
	<path fill="#434A54" d="M215.695,331.53c4.607,3.423,3.577,2.883,6.537,4.864l2.136,2.059c0,0-3.655,0.232-6.305-0.129
		c-0.875-0.103-7.155-5.327-7.155-5.327l1.081-1.44l1.261-1.339l2.265,1.209L215.695,331.53z"/>
	<path fill="#FFA786" d="M215.644,332.097c2.033,1.827,5.276,4.041,5.276,4.041c-1.93,1.157-2.291,0.386-7.772-2.909l-1.544-0.823
		l0.334-1.621l3.5,0.746L215.644,332.097z"/>
	<path fill="#FFA786" d="M212.118,332.199h3.423l0.927-36.932c2.136-12.944,1.492-38.218,1.492-38.218l-9.599,0.798
		c0.592,10.731,1.235,42.928,1.235,42.928C208.103,306.386,209.699,315.213,212.118,332.199z"/>
	<polygon fill="#434A54" points="212.324,337.321 210.883,332.972 213.482,333.872 212.838,337.166 	"/>
	<path fill="#434A54" d="M200.974,332.74c3.552,4.504,2.084,3.757,4.453,6.434l2.136,2.497c0,0-3.963,0.154-6.434-0.876
		c-0.824-0.334-4.941-7.798-4.941-7.798l1.184-1.209l1.57-0.979l1.879,1.75L200.974,332.74z"/>
	<path fill="#FFA786" d="M200.794,333.28c1.493,2.316,3.346,5.431,3.346,5.431c-2.162,0.617-3.423-1.313-5.997-4.993v-0.412
		l0.309-1.492l2.265,0.875L200.794,333.28z"/>
	<path fill="#FFA786" d="M198.426,334.026l1.673,1.416l7.978-36.829c0.412-12.971-0.283-32.324-0.283-32.324l-8.725,6.356
		c0.772,10.732,2.394,28.053,2.394,28.053C199.996,306.283,195.724,317.066,198.426,334.026z"/>
	<polygon fill="#434A54" points="197.088,337.604 196.213,332.997 198.426,334.361 197.448,337.784 	"/>
	<path fill="#4C3801" d="M199.095,257.179c-1.801,14.129-3.371,27.743-2.162,40.38c8.364,4.35,16.291,4.375,23.806-0.283
		c0.412-15.133,0-29.185-2.728-40.199L199.095,257.179z"/>
	<path fill="#FFDE00" d="M194.386,228.74c0,0-1.441-7.334,5.482-7.232c0,0,3.989-0.231,6.125-2.291h5.894
		c0,0,3.166,2.291,5.842,2.291c2.985,0.026,6.1,2.857,5.533,7.232H194.386z"/>
	<path fill="#FFDE00" d="M222.104,223.695c3.5,5.25,2.908,6.434,5.996,21.335l-5.121,1.441l-4.066-18.17L222.104,223.695z"/>
	<path fill="#FFDE00" d="M195.364,223.078c-3.706,5.25-5.791,14.232-5.636,29.751l4.529,1.158l4.582-26.534L195.364,223.078z"/>
	<polygon fill="#FFDE00" points="196.856,227.324 198.529,244.104 197.912,261.45 219.633,261.039 218.526,243.307 220.096,226.089 
			"/>
	<polygon fill="#5D9BEC" points="204.191,219.449 204.191,221.147 203.548,220.916 	"/>
	<polygon fill="#5D9BEC" points="209.596,219.629 209.596,221.405 210.265,221.122 	"/>
	<polygon fill="#F9A48A" points="210.832,222.229 205.478,222.306 205.324,212.475 210.677,212.191 	"/>
	<path fill="#F9A48A" d="M204.912,220.916c0,0,2.882,1.39,6.717,0.206l-0.489,2.11l-2.754,9.11l-2.471-9.007L204.912,220.916z"/>
	<path fill="#FFA786" d="M216.133,198.731c-2.471-5.225-7.026-7.592-11.375-7.18c-4.298,0.849-7.978,4.452-8.853,10.14
		c-0.232,1.519,0.206,0.103,0.541,2.085c0,0,2.342,16.291,12.302,14.824c9.96-1.467,7.515-17.732,7.515-17.732
		C215.953,198.886,216.776,200.121,216.133,198.731z"/>
	<path fill="#050505" d="M198.993,205.474c0.644-0.386,0.849-1.209,2.522-1.493c1.493-0.257,1.75,0.386,2.188,0.257
		c0.309-0.206,0.438-0.515-0.128-0.72c-0.36-0.232-1.107-0.386-1.544-0.36C199.43,203.313,198.581,205.757,198.993,205.474z"/>
	<path fill="#050505" d="M213.894,203.338c-0.721-0.18-1.158-0.9-2.857-0.72c-1.519,0.18-1.57,0.875-2.007,0.875
		c-0.334-0.103-0.566-0.386-0.077-0.721c0.283-0.309,0.952-0.695,1.364-0.798C212.864,201.382,214.383,203.467,213.894,203.338z"/>
	<path fill="#FFFFFF" d="M204.372,213.401c0,0,1.493,2.265,3.654,1.981c1.879-0.257,2.754-2.908,2.754-2.908
		C208.798,213.144,206.662,213.427,204.372,213.401z"/>
	<path fill="#CC7E66" d="M205.89,211.857c-0.875-0.36-1.338-0.695-1.416-0.978c-0.077-0.309,0.206-0.798,0.823-1.493
		c0.257-0.283,0.566-0.077,0.309,0.206c-0.309,0.36-0.643,0.849-0.797,1.158c0.309,0.386,0.823,0.541,1.261,0.721
		C206.61,211.703,206.43,212.063,205.89,211.857z"/>
	<path fill="#050505" d="M204.423,190.084c0,0-10.989-2.188-10.449,11.684c0,0-0.309,10.038,2.856,14.052
		c2.677,3.372,0.515-0.232,0.541-2.908c0.154-10.088,6.923-8.699,10.758-16.548L204.423,190.084z"/>
	<path fill="#050505" d="M205.375,195.695c0,0,6.434,2.985,8.184,4.941c2.342,2.6,3.269,3.835,2.78,10.397
		c0.051,4.941,2.779-0.926,1.647-9.033c-0.901-3.732-3.397-16.446-13.794-11.967L205.375,195.695z"/>
	<path fill="#FFA786" d="M200.537,209.901c0.644,1.287,0.438,2.6-0.463,2.96c-0.9,0.36-2.136-0.386-2.779-1.673
		c-0.644-1.287-0.438-2.599,0.463-2.959S199.893,208.614,200.537,209.901z"/>
	<path fill="#FFA786" d="M214.614,207.61c-0.154,1.416,0.489,2.6,1.467,2.625c0.978,0.025,1.878-1.107,2.033-2.522
		c0.154-1.416-0.489-2.6-1.467-2.625C215.695,205.063,214.769,206.195,214.614,207.61z"/>
	<path fill="#050505" d="M200.871,217.699c0,0-2.239,1.775-2.368,4.504c-0.103,2.059,1.133,4.426,4.401,8.132
		c0,0,4.375,5.199,4.272,6.691l-1.647-8.39c0,0,2.394,2.934,2.136,4.581c0,0,0.952-5.688-3.629-13.64L200.871,217.699z"/>
	<polygon fill="#2B537F" points="208.798,264.951 221.872,258.233 211.758,238.417 198.684,245.134 	"/>
	<polygon fill="#FFFFFF" points="208.695,265.671 221.769,258.954 211.655,239.137 198.581,245.854 	"/>
	<polygon fill="#2B537F" points="208,266.701 221.074,259.983 210.96,240.167 197.886,246.884 	"/>
	<polygon fill="#2B537F" points="199.507,246.061 199.945,244.465 198.684,245.134 197.886,246.884 	"/>
	<polygon fill="#FFA786" points="211.5,254.373 206.482,253.523 203.188,254.785 203.497,255.402 206.096,255.763 203.265,257.59 
		203.6,259.083 205.452,258.414 203.805,259.289 204.32,260.652 205.529,260.447 204.809,260.936 205.478,261.785 206.791,261.014 
		205.71,261.965 206.559,262.223 212.375,257.976 	"/>
	<path fill="#FFA786" d="M227.869,245.777c-3.578,4.761-10.681,8.956-15.75,12.379l-1.467-3.165
		c5.096-3.604,7.154-6.357,11.375-10.115C222.052,244.876,228.486,238.751,227.869,245.777z"/>
	<polygon fill="#2B537F" points="295.632,267.627 309.864,260.524 299.209,240.604 284.978,247.708 	"/>
	<polygon fill="#FFFFFF" points="295.529,268.373 309.735,261.271 299.081,241.325 284.875,248.428 	"/>
	<polygon fill="#2B537F" points="294.757,269.429 308.989,262.325 298.334,242.38 284.102,249.509 	"/>
	<path fill="#FFA786" d="M296.533,257.925l-4.685,0.386c-2.419-1.184-2.676-0.257-1.596,0.772c0,0,1.029,1.133,1.776,0.875
		c0.952-0.36-0.077-0.231-0.077-0.231l-1.673,1.338l0.694,1.879l0.823-0.463l-0.771,0.591l0.592,1.776l0.823-0.489l-0.746,0.566
		l0.283,0.824l1.544-0.695l-1.415,0.875l0.282,0.618c4.067-2.6,3.964-3.012,6.924-5.533L296.533,257.925z"/>
	<polygon fill="#DD920B" points="302.555,258.696 298.515,261.76 295.504,257.487 300.085,254.219 	"/>
	<polygon fill="#DD920B" points="268.995,265.749 269.51,270.793 264.286,271.179 263.874,265.543 	"/>
	<path fill="#EDC006" d="M306.029,246.987l-9.471,9.111l3.757,5.327c0,0,10.964-10.526,11.145-11.993L306.029,246.987z"/>
	<path fill="none" stroke="#C1C1C1" stroke-width="0.8666" stroke-miterlimit="10" d="M231.832,230.026
		c0,0-0.154,11.633-0.18,12.431"/>
	<path fill="#FFA786" d="M189.599,252.365c-0.231,5.971,1.416,13.023,2.368,18.685l2.265-1.287c-0.978-6.768,0.231-10.396,0-16.573
		C194.206,251.902,189.65,251.362,189.599,252.365z"/>
	<path fill="#FFA786" d="M194.283,268.193l1.956,2.342l0.283,4.427l-0.721,0.823l-0.438-2.831l-0.438,3.476l0.334,2.65l-0.952,0.052
		l-0.438-2.78l-0.18-2.625l-0.103,3.037l0.026,2.625l-0.566,0.077l-0.335-2.856l-0.026-2.42l-0.309,2.162l0.128,2.239l-0.592-0.231
		l-0.154-2.085l-0.077-2.548l-0.129,1.621l0.103,1.725l-0.438-0.129c-0.103-0.309-0.257-1.569-0.257-1.878
		c0.077-2.522,0.386-4.993,0.721-7.026L194.283,268.193z"/>
	<path fill="#050505" d="M212.375,205.783c0.026,0.849-0.463,1.544-1.081,1.57c-0.643,0.026-1.158-0.644-1.209-1.467
		c-0.026-0.85,0.463-1.544,1.081-1.57C211.784,204.291,212.35,204.959,212.375,205.783z"/>
	<path fill="#FFFFFF" d="M211.886,205.32c0,0.103-0.077,0.18-0.154,0.18c-0.103,0-0.18-0.077-0.18-0.154
		c0-0.103,0.078-0.18,0.155-0.18C211.809,205.166,211.886,205.243,211.886,205.32z"/>
	<path fill="#050505" d="M209.081,205.217c0,0,1.622-2.265,3.655-0.309c0,0,0.025,0.154-0.052,0.103
		c-0.463-0.18-2.188-0.798-3.448,0.232C209.159,205.32,209.03,205.294,209.081,205.217z"/>
	<path fill="#050505" d="M203.188,207.044c0.026,0.849-0.463,1.544-1.081,1.57c-0.643,0.026-1.158-0.644-1.209-1.467
		c-0.026-0.849,0.463-1.544,1.081-1.57C202.596,205.552,203.162,206.195,203.188,207.044z"/>
	<path fill="#FFFFFF" d="M202.673,206.581c0,0.103-0.077,0.18-0.154,0.18c-0.103,0-0.18-0.078-0.18-0.155
		c0-0.103,0.077-0.18,0.154-0.18C202.596,206.401,202.673,206.478,202.673,206.581z"/>
	<path fill="#050505" d="M199.868,206.452c0,0,1.621-2.265,3.655-0.309c0,0,0.025,0.154-0.052,0.103
		c-0.463-0.18-2.188-0.798-3.449,0.231C199.945,206.555,199.842,206.529,199.868,206.452z"/>
	<g>
		<g>
			<path fill="#434A54" d="M206.07,207.276c0.489-0.386,0.978-0.412,1.518-0.129c0.412,0.232,0.798-0.412,0.386-0.643
				c-0.875-0.463-1.673-0.36-2.419,0.257C205.169,207.044,205.684,207.559,206.07,207.276L206.07,207.276z"/>
		</g>
	</g>
	<path opacity="0.2" fill="#FFFFFF" enable-background="new    " d="M204.603,209.026l-4.349,0.36
		c-0.644,0.052-1.21-0.438-1.261-1.081l-0.103-1.364c-0.051-0.644,0.438-1.21,1.081-1.261l4.35-0.36
		c0.643-0.051,1.209,0.438,1.261,1.081l0.103,1.364C205.735,208.408,205.247,208.974,204.603,209.026z"/>
	<path fill="#434A54" d="M198.813,208.434c0.128,0.798,0.849,1.338,1.647,1.235l4.092-0.618c0.798-0.129,1.338-0.85,1.235-1.647
		l-0.181-1.132c-0.128-0.798-0.849-1.338-1.647-1.235l-4.092,0.618c-0.798,0.129-1.338,0.85-1.235,1.647L198.813,208.434z
		 M199.147,207.327c-0.103-0.618,0.489-1.209,1.132-1.287l3.654-0.541c0.618-0.103,1.21,0.334,1.287,0.952l0.154,0.978
		c0.103,0.618-0.36,1.004-0.978,1.107l-3.886,0.617c-0.618,0.104-1.107-0.18-1.21-0.797L199.147,207.327z"/>
	<path opacity="0.2" fill="#FFFFFF" enable-background="new    " d="M213.457,207.662l-4.35,0.36
		c-0.644,0.052-1.209-0.438-1.261-1.081l-0.103-1.364c-0.051-0.644,0.438-1.209,1.081-1.261l4.35-0.36
		c0.643-0.052,1.209,0.438,1.261,1.081l0.103,1.364C214.589,207.044,214.1,207.61,213.457,207.662z"/>
	<path fill="#434A54" d="M207.691,207.07c0.129,0.798,0.849,1.338,1.647,1.235l4.092-0.618c0.798-0.128,1.338-0.849,1.235-1.647
		l-0.18-1.132c-0.129-0.798-0.85-1.338-1.647-1.235l-4.092,0.618c-0.798,0.128-1.338,0.849-1.235,1.647L207.691,207.07z
		 M208,205.963c-0.103-0.618,0.489-1.209,1.133-1.287l3.654-0.541c0.618-0.103,1.21,0.335,1.287,0.953l0.154,0.978
		c0.103,0.617-0.36,1.003-0.978,1.106l-3.886,0.618c-0.618,0.103-1.106-0.18-1.209-0.798L208,205.963z"/>
	<path fill="#434A54" d="M286.934,204.471c0,0.798-0.489,1.441-1.106,1.441c-0.593,0-1.082-0.643-1.082-1.441
		s0.489-1.441,1.107-1.441C286.444,203.029,286.934,203.673,286.934,204.471z"/>
	<path fill="#434A54" d="M277.899,204.831c0.026,0.849-0.463,1.544-1.106,1.57c-0.643,0.025-1.184-0.644-1.209-1.493
		c-0.026-0.85,0.463-1.544,1.106-1.57C277.334,203.338,277.874,204.007,277.899,204.831z"/>
	<path fill="#FFFFFF" d="M286.47,204.007c0,0.103-0.077,0.154-0.154,0.154c-0.103,0-0.154-0.077-0.154-0.154
		c0-0.103,0.077-0.154,0.154-0.154S286.47,203.93,286.47,204.007z"/>
	<path fill="#FFFFFF" d="M277.334,204.394c0,0.103-0.077,0.18-0.181,0.18c-0.103,0-0.181-0.077-0.181-0.18s0.078-0.181,0.181-0.181
		C277.257,204.213,277.334,204.291,277.334,204.394z"/>
	<path fill="#434A54" d="M283.819,203.776c0,0,1.621-2.085,3.474-0.155c0,0,0.026,0.129-0.051,0.103
		c-0.438-0.18-2.033-0.849-3.269,0.078C283.871,203.879,283.768,203.853,283.819,203.776z"/>
	<path fill="#434A54" d="M278.157,204.007c0,0-1.827-2.11-3.706,0.026c0,0-0.025,0.154,0.052,0.103
		c0.463-0.206,2.109-1.003,3.474-0.103C278.08,204.11,278.208,204.084,278.157,204.007z"/>
	<polygon fill="#2B537F" points="285.878,248.608 286.393,247.013 284.978,247.708 284.102,249.509 	"/>
	<polygon fill="#D14739" points="263.874,263.123 264.311,268.167 269.51,267.55 268.866,261.965 	"/>
	<path fill="#EDC006" d="M270.487,246.523l-0.644,21.876l-6.511,0.798c0,0-0.103-26.74,0.875-27.821L270.487,246.523z"/>
	<path fill="#767F87" d="M253.039,278.462c-5.147,0.901-10.063,1.004-14.67,0v-17.088h14.67V278.462z"/>
	<path fill="#434A54" d="M254.814,335.726c0,0,7.026,1.93,8.493,2.316c1.287,0.154,3.269,2.805,0.669,2.907
		c0,0-1.698,0.232-5.868-0.231c-2.136-0.231-8.75-1.544-8.75-1.544s-0.592-3.654,1.235-3.731L254.814,335.726z"/>
	<path fill="#434A54" d="M236.722,335.726c0,0-6.949,1.904-8.39,2.29c-1.287,0.129-3.243,2.779-0.669,2.883
		c0,0,1.673,0.231,5.791-0.231c2.11-0.231,8.647-1.519,8.647-1.519s0.566-3.604-1.209-3.681L236.722,335.726z"/>
	<path fill="#767F87" d="M243.233,336.06l-10.089-0.771c0,0-2.291-48.616-0.412-74.018l12.636,0.463
		C242.77,286.93,243.233,336.06,243.233,336.06z"/>
	<path fill="#767F87" d="M248.38,336.06h9.986c0,0,1.802-49.388-0.077-74.789l-12.92,0.463
		C247.943,286.93,248.38,336.06,248.38,336.06z"/>
	<path fill="#767F87" d="M233.248,336.06c-0.026-0.103-0.18-2.521-0.18-2.521c3.5,0.926,6.743,1.029,10.011,0.18l0.155,2.368
		C240.093,336.78,236.748,336.729,233.248,336.06z"/>
	<path fill="#767F87" d="M258.366,336.06c0.025-0.103,0.077-2.521,0.077-2.521c-3.5,0.771-6.666,0.875-9.909,0.18l-0.154,2.368
		C251.649,336.755,254.969,336.755,258.366,336.06z"/>
	<path fill="#6A2DEA" d="M252.138,225.291c-1.853,0.927-3.783-0.309-6.279-0.283c-2.497,0.026-3.166,0.026-5.019-0.9
		c-2.471-0.231-5.199-3.732-8.39-2.11l-1.158,35.876l0.978,6.229c0.128,4.658,26.817,4.555,26.688,0l1.055-5.919l-0.798-36.16
		C256.05,220.324,255.072,225.111,252.138,225.291z"/>
	<path fill="#363D44" d="M248.123,244.362l-17.037,0.772l0.875,0.875l-0.283,7c6.949-1.698,12.739-3.14,16.522-3.654v-0.412
		L248.123,244.362z"/>
	<polygon fill="#363D44" points="248.097,244.851 248.174,248.686 250.594,248.299 259.756,251.131 259.652,245.571 	"/>
	<path fill="#6A2DEA" d="M245.24,216.901h-4.349c0,0-5.508,3.474-8.081,3.474c-4.53,0-5.945,2.471-5.945,2.471
		c-2.728,6.1,4.401,6.846,4.401,6.846s6.769-0.052,13.975-0.077V216.901z"/>
	<path fill="#6A2DEA" d="M245.24,216.901h5.096c0,0,5.044,3.474,7.644,3.474c4.58,0,5.996,2.471,5.996,2.471
		c2.754,6.1-4.529,6.846-4.529,6.846s-7-0.052-14.207-0.077V216.901L245.24,216.901z"/>
	<path fill="#6A2DEA" d="M263.822,222.692c3.963,6.151,3.86,20.203,0.464,26.895h-4.376l-3.371-20.229L263.822,222.692z"/>
	<rect x="241.869" y="210.956" fill="#F9A48A" width="7.129" height="10.758"/>
	<polygon fill="#3F09D3" points="245.601,221.74 240.531,216.67 237.468,218.214 242.641,225.986 	"/>
	<polygon fill="#3F09D3" points="245.549,221.74 250.619,216.67 253.708,218.214 248.406,225.986 	"/>
	<path opacity="0.63" fill="none" stroke="#363D44" stroke-width="0.8656" stroke-miterlimit="10" enable-background="new    " d="
		M258.572,232.497c0,0,0.257,12.508,0.231,13.357"/>
	<polygon fill="#C1ADF7" points="245.549,221.74 243.027,225.42 244.648,227.736 243.439,229.615 242.41,243.95 247.969,242.972 
		245.524,228.972 248.174,225.651 	"/>
	<polygon fill="#C1ADF7" points="245.035,228.714 247.969,243.358 247.763,229.615 246.527,227.736 	"/>
	<polygon opacity="0.22" fill="#303030" enable-background="new    " points="245.549,221.74 242.667,225.96 242.898,226.81 
		245.549,222.64 248.2,226.732 248.406,225.986 	"/>
	<path fill="#F9A48A" d="M234.688,194.536c0,0-1.724,21.181,11.427,20.332c11.865-0.772,9.986-16.446,9.986-16.446
		c0.565-1.003,1.596-7.103-0.798-9.368c-4.967-4.684-15.879-6.666-19.817,1.209C234.766,191.68,234.998,192.478,234.688,194.536z"/>
	<path fill="#F9A48A" d="M258.083,203.827c-0.592,1.184-1.775,1.802-2.625,1.364s-1.055-1.75-0.438-2.934
		c0.592-1.184,1.776-1.801,2.625-1.364C258.494,201.331,258.701,202.643,258.083,203.827z"/>
	<path fill="#F9A48A" d="M236.722,202.875c0.514,1.235,0.206,2.522-0.695,2.908c-0.9,0.386-2.059-0.309-2.573-1.544
		c-0.515-1.235-0.206-2.522,0.695-2.908C235.049,200.945,236.207,201.64,236.722,202.875z"/>
	<path fill="#E7E9EE" d="M235.77,200.25c0.875-0.36,1.287-0.927,3.449-0.978c1.956-0.052,1.981,0.823,2.548,0.721
		c0.824-0.078,0.849-1.03,0.18-1.364c-0.412-0.36-1.338-0.695-1.878-0.746C236.696,197.573,235.152,200.507,235.77,200.25z"/>
	<path fill="#434A54" d="M241.38,202.026c-0.052,0.823-0.566,1.467-1.158,1.441c-0.592-0.026-1.055-0.721-1.004-1.544
		c0.052-0.824,0.566-1.467,1.158-1.441C240.968,200.507,241.432,201.202,241.38,202.026z"/>
	<path fill="#E7E9EE" d="M253.116,199.761c-0.901-0.309-1.339-0.849-3.5-0.798c-1.956,0.052-1.93,0.927-2.497,0.875
		c-0.823-0.025-0.9-0.978-0.257-1.364c0.386-0.36,1.287-0.772,1.853-0.85C252.035,197.162,253.733,199.993,253.116,199.761z"/>
	<path fill="#434A54" d="M248.895,201.897c0,0.824,0.489,1.519,1.081,1.519c0.618,0,1.107-0.669,1.107-1.493
		c0-0.824-0.489-1.519-1.082-1.519C249.384,200.378,248.895,201.048,248.895,201.897z"/>
	<path fill="#E7E9EE" d="M246.038,217.905c11.607-1.416,9.368-18.375,9.368-18.375c-0.154,0.18-0.463,0.515-0.386,1.699
		c0.154,2.213-0.875,5.816-3.191,7.386c-1.364,0.926-4.092-0.901-7.335-0.772c-3.32,0.154-4.684,1.493-6.408,0.231
		c-1.725-1.287-2.831-3.629-3.269-6.537c-0.129-0.798-0.541-2.342-0.644-3.063C234.123,204.188,235.976,219.14,246.038,217.905z
		 M239.707,210.081c-0.051-1.004,3.732-0.823,5.997-0.823c2.265,0,4.272-0.232,4.324,0.746c0.052,1.004-1.441,3.14-4.503,3.14
		C242.795,213.144,239.759,211.085,239.707,210.081z"/>
	<path fill="none" stroke="#B7715E" stroke-width="1.8412" stroke-miterlimit="10" d="M244.005,199.323c0,0,1.106,2.033,0.515,3.526
		"/>
	<path fill="#C98469" d="M243.465,207.276c-0.952-0.669-1.441-1.184-1.441-1.57c0-0.386,0.463-0.927,1.39-1.596
		c0.386-0.283,0.721,0.051,0.335,0.334c-0.489,0.36-1.004,0.85-1.287,1.209c0.283,0.566,0.85,0.875,1.338,1.21
		C244.391,207.276,244.057,207.688,243.465,207.276z"/>
	<path fill="#C98469" d="M241.432,197.573c-1.004-0.18-1.622-0.438-1.647-0.438l0.077-0.18c0.051,0.026,4.066,1.596,8.673-0.36
		l0.077,0.18C245.729,198.011,243.053,197.882,241.432,197.573z"/>
	<path fill="none" stroke="#C98469" stroke-width="0.6602" stroke-miterlimit="10" d="M236.645,201.15c0,0,0.901,0.772,1.673,0.232"
		/>
	<path fill="none" stroke="#C98469" stroke-width="0.6602" stroke-miterlimit="10" d="M236.645,201.794c0,0,1.132,0.412,1.647-0.386
		"/>
	<path fill="none" stroke="#C98469" stroke-width="0.6662" stroke-miterlimit="10" d="M253.296,200.893c0,0-0.849,0.85-1.673,0.335"
		/>
	<path fill="none" stroke="#C98469" stroke-width="0.6662" stroke-miterlimit="10" d="M253.321,201.563c0,0-1.106,0.463-1.672-0.283
		"/>
	<path fill="#434A54" d="M242.384,201.176c0,0-2.213-2.368-4.298,0.206c0,0-0.026,0.18,0.077,0.128
		c0.515-0.257,2.419-1.261,4.041-0.257C242.307,201.305,242.436,201.254,242.384,201.176z"/>
	<path fill="#434A54" d="M247.814,201.228c0,0,2.11-2.522,4.349-0.052c0,0,0.026,0.18-0.077,0.129
		c-0.54-0.232-2.496-1.133-4.091-0.051C247.892,201.356,247.763,201.305,247.814,201.228z"/>
	
		<line fill="none" stroke="#C98469" stroke-width="0.777" stroke-miterlimit="10" x1="246.244" y1="201.15" x2="247.505" y2="202.901"/>
	
		<line fill="none" stroke="#C98469" stroke-width="0.777" stroke-miterlimit="10" x1="242.744" y1="201.279" x2="241.483" y2="203.055"/>
	<path fill="#E7E9EE" d="M256.075,193.456c0,0-6.434-2.316-9.574-1.776c-3.423,0.592-6.202,0.18-11.838,1.544l0.772,12.816
		l0.257,1.004c0,0-3.834-13.898-1.647-17.552c1.493-2.96,5.379-5.096,9.394-5.276c14.902-0.618,13.949,10.681,13.949,10.681"/>
	<path fill="#E7E9EE" d="M234.663,193.25c0,0,2.548-3.243,5.379-2.625c2.856,0.618,4.555,0.772,9.703-0.077
		c2.78-0.463,4.478,2.188,5.018,1.261l0.387,14.463l0.103,1.081c0,0,3.603-13.897,1.338-17.604
		c-1.569-3.011-5.507-5.225-9.522-5.456c-14.927-0.927-13.717,10.397-13.717,10.397"/>
	<path fill="#FFFFFF" d="M240.016,201.743c-0.026,0.154-0.206,0.257-0.36,0.206c-0.154-0.025-0.257-0.206-0.206-0.36
		c0.026-0.154,0.206-0.257,0.36-0.206C239.965,201.434,240.042,201.588,240.016,201.743z"/>
	<path fill="#FFFFFF" d="M249.719,201.923c-0.051,0.154-0.206,0.257-0.36,0.206c-0.155-0.052-0.257-0.206-0.206-0.361
		c0.051-0.154,0.206-0.257,0.36-0.206C249.667,201.614,249.745,201.768,249.719,201.923z"/>
	<path fill="#CC7E66" d="M242.384,209.824c0.103,0.103,2.651,2.213,5.379,0.077c0.669-0.541,1.235,0.36,0.541,0.901
		c-3.294,2.6-6.46-0.052-6.486-0.103C241.38,210.338,241.972,209.463,242.384,209.824z"/>
	<path fill="#646D78" d="M246.604,202.103c-0.051-0.077-1.493-1.673-3.037-0.026c-0.386,0.412-0.694-0.257-0.309-0.669
		c1.853-1.982,3.655,0.025,3.655,0.051C247.171,201.717,246.836,202.386,246.604,202.103z"/>
	<path fill="#646D78" d="M240.402,198.654c-1.853,0-3.346,1.518-3.346,3.397c0,1.853,1.519,3.346,3.397,3.346
		s3.346-1.518,3.346-3.397S242.255,198.628,240.402,198.654z M240.376,204.728c-1.493,0-2.702-1.184-2.702-2.677
		s1.184-2.702,2.676-2.702s2.703,1.184,2.703,2.677C243.053,203.493,241.869,204.702,240.376,204.728z"/>
	<path fill="#646D78" d="M249.77,198.525c-1.853,0-3.346,1.519-3.346,3.397c0,1.853,1.519,3.346,3.397,3.346
		c1.853,0,3.346-1.519,3.346-3.397C253.142,200.018,251.623,198.525,249.77,198.525z M249.77,204.6
		c-1.493,0-2.702-1.184-2.702-2.677s1.184-2.703,2.677-2.703c1.493,0,2.703,1.184,2.703,2.677S251.263,204.574,249.77,204.6z"/>
	<path fill="#FFA786" d="M238.498,240.836c-2.368-0.978-5.199-1.184-8.235-1.004l0.077-0.669l1.416,1.904l-5.07-1.313l-0.077,0.823
		l6.177,1.082l-6.254-0.258l-0.077,0.824l5.508,0.875l-4.118,0.232l0.18,0.643l3.835,0.077l-2.008,0.438l0.85,0.618
		c1.261-1.287,4.813-1.081,8.467-0.901L238.498,240.836z"/>
	<path fill="#6A2DEA" d="M227.405,253.163c7.592-1.904,15.802-3.628,19.997-4.194v-0.412l-0.051-4.581
		c-6.846-0.103-14.026-0.283-17.038,0.772C230.288,244.748,225.141,251.929,227.405,253.163z"/>
	<polygon fill="#3F09D3" points="238.498,240.836 241.869,240.939 242.718,245.108 239.115,244.208 	"/>
	<polygon fill="#3F09D3" points="250.13,247.733 247.479,248.299 247.454,244.465 250.13,243.358 	"/>
	<path fill="#FFA786" d="M249.358,243.487l3.989-3.912c1.854-1.519,2.882-1.519,5.816-2.702l0.592,0.927
		c-2.548,1.106-4.813,1.956-4.813,3.268c0.72-1.338,2.754-2.033,5.069-3.088l0.36,1.055c-1.904,1.056-3.474,1.699-4.04,3.217
		c0.952-1.03,2.213-1.622,3.654-1.905l0.231,0.695c-1.209,0.412-2.548,1.261-3.963,2.445l2.728-1.004l-0.077,0.541l-8.081,3.989
		L249.358,243.487z"/>
	<path fill="#6A2DEA" d="M260.373,250.821l-17.655-5.224l-1.029-5.636c7.232,0.077,11.581,1.904,19.354,3.14
		C264.028,243.461,267.631,251.619,260.373,250.821z"/>
	<path fill="#6A2DEA" d="M227.122,222.64c-3.963,6.151-5.302,26.329,0.309,30.498l3.243-2.239l3.603-20.743L227.122,222.64z"/>
	<path opacity="0.63" fill="none" stroke="#363D44" stroke-width="0.8656" stroke-miterlimit="10" enable-background="new    " d="
		M232.115,232.78c0,0-0.154,10.938-0.18,11.685"/>
	<path fill="#3F09D3" d="M258.933,267.035c-8.982,2.908-17.887,3.166-26.689,0v-2.959c8.956,2.033,17.835,1.955,26.689,0V267.035z"
		/>
	<g>
		<path fill="#2B2B2B" d="M279.624,209.772l3.577-0.051c0,0,0.618,0.077,2.342,1.235h-4.581c0,0-2.728-0.103-3.603,0.309
			C277.334,211.265,278.492,209.927,279.624,209.772z"/>
		<path fill="#2B2B2B" d="M282.301,210.441c0,0,1.853,0.798,2.779,0.721l-1.39-1.158L282.301,210.441z"/>
		<path fill="#2B2B2B" d="M280.499,210.441c0,0,1.854,0.798,2.78,0.721l-1.391-1.158L280.499,210.441z"/>
		<path fill="#2B2B2B" d="M281.838,210.338c0,0-1.802,0.952-2.703,0.978l1.287-1.287L281.838,210.338z"/>
		<path fill="#2B2B2B" d="M280.808,210.338c0,0-1.802,0.952-2.701,0.978l1.286-1.287L280.808,210.338z"/>
	</g>
</g>
</svg>
