<?xml version="1.0" encoding="utf-8"?>
<!-- Generator: Adobe Illustrator 16.0.0, SVG Export Plug-In . SVG Version: 6.00 Build 0)  -->
<!DOCTYPE svg PUBLIC "-//W3C//DTD SVG 1.1//EN" "http://www.w3.org/Graphics/SVG/1.1/DTD/svg11.dtd">
<svg version="1.1" id="Layer_1" xmlns="http://www.w3.org/2000/svg" xmlns:xlink="http://www.w3.org/1999/xlink" x="0px" y="0px"
	 width="235.573px" height="192.021px" viewBox="0 0 235.573 192.021" enable-background="new 0 0 235.573 192.021"
	 xml:space="preserve">
<g>
	<path fill="#F1F1F9" d="M114.619,8.728c47.188,0,85.441,38.253,85.441,85.441s-38.253,85.442-85.441,85.442
		s-85.442-38.254-85.442-85.442S67.431,8.728,114.619,8.728"/>
	<path fill="#FFFFFF" d="M31.074,143.725h174c2.75,0,5-2.25,5-5v-109c0-2.75-2.25-5-5-5h-174c-2.75,0-5,2.25-5,5v109
		C26.074,141.475,28.324,143.725,31.074,143.725"/>
	<path fill="none" stroke="#3B2D61" stroke-width="3.2" stroke-miterlimit="10" d="M31.074,143.725h174c2.75,0,5-2.25,5-5v-109
		c0-2.75-2.25-5-5-5h-174c-2.75,0-5,2.25-5,5v109C26.074,141.475,28.324,143.725,31.074,143.725z"/>
	<path fill="#2B275E" d="M0.003,149.196h235.57v8.071c0,4.438-3.629,8.071-8.07,8.071H8.071c-4.438,0-8.071-3.632-8.071-8.071
		v-8.071H0.003z"/>
	<path fill="#FFFFFF" d="M85.513,149.196h64.549v2.373c0,1.304-1.066,2.372-2.372,2.372H87.884c-1.305,0-2.373-1.068-2.373-2.372
		v-2.373H85.513z"/>
	<rect x="27.376" y="29.991" fill="#FFFFFF" width="180.868" height="110.228"/>
	<rect x="39.632" y="43.196" fill="#EDF0F1" width="103.022" height="65.76"/>
	<rect x="150.273" y="67.331" fill="#C3CCCF" width="24.499" height="15.639"/>
	<rect x="150.273" y="43.196" fill="#C3CCCF" width="24.499" height="15.638"/>
	<rect x="150.273" y="91.465" fill="#C3CCCF" width="24.499" height="15.636"/>
	<polygon fill="#6358A6" points="159.396,46.874 165.646,51.019 159.396,55.162 159.396,46.875 	"/>
	<polygon fill="#6358A6" points="159.396,71.005 165.646,75.151 159.396,79.294 159.396,71.007 	"/>
	<polygon fill="#6358A6" points="159.396,95.14 165.646,99.286 159.396,103.429 159.396,95.142 	"/>
	<rect x="27.376" y="29.993" fill="#6358A6" width="18.42" height="6.923"/>
	<polygon fill="#F0B97D" points="85.259,79.011 87.596,79.011 94.689,79.011 97.028,79.011 97.981,88.931 99.672,90.29 
		103.243,92.561 96.301,108.955 85.982,108.955 79.043,92.561 82.613,90.29 84.306,88.931 	"/>
	<polygon fill="#F2F2F2" points="81.377,91.023 71.624,94.135 82.335,108.955 98.397,108.955 107.751,93.229 100.858,91.044 
		94.791,95.328 87.517,95.328 81.377,91.021 	"/>
	<polygon fill="#F15D63" points="88.965,94.935 89.8,96.993 88.853,108.957 93.434,108.957 92.486,96.993 93.321,94.935 
		91.142,94.85 88.962,94.935 	"/>
	<path fill="#25BBB0" d="M81.544,90.968l-17.251,5.507c0,0-2.234,1.159-2.906,4.69c-0.463,2.42-0.764,4.877-1.087,7.787h27.287
		l-6.043-17.986V90.968z M121.985,108.955L121.985,108.955c-0.321-2.91-0.625-5.367-1.086-7.787
		c-0.673-3.531-2.905-4.691-2.905-4.691l-17.137-5.431l-6.108,17.911h27.236V108.955z"/>
	<path fill="#49C0B9" d="M81.544,90.968l-3.722,1.188l-0.716,9.441c0,0,0.199,0.775,0.789,0.706l3.359,1.262
		c0,0,0.218,0.221,0.022,0.499l-2.872,1.97l1.55,2.921h7.632L81.544,90.968z M102.332,108.955L102.332,108.955l1.55-2.921
		l-2.874-1.97c-0.197-0.279,0.022-0.499,0.022-0.499l3.358-1.262c0.591,0.069,0.789-0.706,0.789-0.706l-0.713-9.409l-3.608-1.145
		l-6.108,17.912L102.332,108.955L102.332,108.955z"/>
	<path fill="#FED299" d="M77.439,58.844c0,0.922-0.337,1.821-0.31,2.71c-3.153-0.588-1.63,8.781,0.153,10.067
		c0.141,0.104,0.49-0.126,0.785-0.313c0.618,3.445,5.901,12.65,9.259,16.525c0.93,1.074,6.634,1.057,7.558,0.04
		c3.439-3.787,8.714-13.1,9.337-16.565c0.294,0.187,0.643,0.416,0.787,0.313c1.784-1.286,3.306-10.652,0.154-10.067
		c0.024-0.887-0.314-1.788-0.314-2.71c-0.173-7.272-6.763-10.902-13.704-10.937C84.208,47.939,77.615,51.572,77.439,58.844"/>
	<path fill="#676767" d="M81.666,49.52c-0.994-0.115-4.588,0.985-5.018,4.785c-0.428,3.801-0.226,7.303-0.226,7.303
		s2.104,0.533,2.37,2.689c0.263,2.159,0.074,2.159,0.074,2.159l0.76-0.172l0.544-3.699c3.148-1.974-0.022-4.893,3.126-5.579
		c8.506,6.063,16.01,5.023,19.394,2.173c0,0-0.789,2.983-0.179,4.045c0.606,1.065,0.245,2.739,0.245,2.739l0.791-0.038
		c0,0-0.144-4.392,1.615-4.372C111.834,50.538,90.713,36.852,81.666,49.52"/>
	<path fill="#FFFFFF" d="M84.227,87.514c0.245,0.018-2.881,3.547-2.881,3.547l2.663,9.112l7.135-5.323
		C87.22,92.922,84.876,90.429,84.227,87.514"/>
	<path fill="#FFFFFF" d="M98.062,87.514c-0.245,0.018,2.881,3.547,2.881,3.547l-2.662,9.112l-7.139-5.323
		c3.927-1.928,6.271-4.422,6.918-7.336H98.062z"/>
	<path fill="#676767" d="M87.261,79.322l1.952-1.329c0.598,0.559,3.389,0.551,3.987-0.007L95,79.322
		c0.873,0.647,1.775,0.868,1.999,1.871l0.716,3.207c0.225,1.007-1.765,4.387-2.86,4.387h-7.738c-1.096,0-2.603-3.227-2.427-4.243
		l0.575-3.352c0.174-1.014,1.098-1.259,1.997-1.871L87.261,79.322L87.261,79.322z M90.641,80.073L90.641,80.073l-3.787,1.988
		c0,0,0.175,2.202,0.668,2.89c0.49,0.69,2.417-0.131,2.417-0.131s0-1.725,0.562-1.697h1.262c0.563-0.027,0.563,1.697,0.563,1.697
		s1.926,0.821,2.417,0.131c0.491-0.688,0.668-2.89,0.668-2.89l-3.787-1.988l-0.491,0.138l-0.49-0.138H90.641z"/>
	<rect x="39.632" y="108.955" fill="#FBB426" width="103.022" height="4.644"/>
	<path fill="#EDF0F1" d="M39.632,100.386c6.016,0,10.892,4.876,10.892,10.892c0,6.014-4.878,10.892-10.892,10.892
		s-10.889-4.875-10.889-10.892C28.743,105.262,33.619,100.386,39.632,100.386"/>
	<path fill="#6358A6" d="M39.632,101.095c5.625,0,10.184,4.559,10.184,10.183c0,5.625-4.559,10.181-10.184,10.181
		c-5.622,0-10.18-4.559-10.18-10.181C29.452,105.654,34.01,101.095,39.632,101.095"/>
	<polygon fill="#FFFFFF" points="35.809,105.174 45.014,111.278 35.809,117.38 	"/>
	<rect x="110.536" y="108.955" fill="#C8CACB" width="32.118" height="4.644"/>
	<path fill="#C8CACB" d="M56.242,121.726h72.89v2.297h-72.89V121.726z M56.242,128.711L56.242,128.711h44.493v2.296H56.242V128.711z
		"/>
	<path fill="#C8CACB" d="M179.999,43.491h21.715v2.296h-21.715V43.491z M179.999,48.499L179.999,48.499h13.254v2.297h-13.254V48.499
		z"/>
	<path fill="#C8CACB" d="M179.999,66.524h21.715v2.296h-21.715V66.524z M179.999,71.532L179.999,71.532h13.254v2.296h-13.254V71.532
		z"/>
	<path fill="#C8CACB" d="M179.999,91.629h21.715v2.297h-21.715V91.629z M179.999,96.638L179.999,96.638h13.254v2.296h-13.254V96.638
		z"/>
	<rect x="150.273" y="115.405" fill="#C3CCCF" width="24.499" height="15.637"/>
	<polygon fill="#6358A6" points="159.396,119.079 165.646,123.223 159.396,127.368 159.396,119.081 	"/>
	<path fill="#C8CACB" d="M179.999,115.569h21.715v2.296h-21.715V115.569z M179.999,120.58L179.999,120.58h13.254v2.296h-13.254
		V120.58z"/>
	<rect x="45.796" y="29.993" fill="#EDF0F1" width="162.448" height="6.923"/>
	<path fill="#676767" d="M43.79,146.448h13.151v2.748H43.79V146.448z M178.636,146.448L178.636,146.448h13.151v2.748h-13.151
		V146.448z"/>
	<path fill="#8D94C8" d="M111.644,180.157c-0.127,0.979-1.022,1.666-2,1.539c-0.978-0.128-1.667-1.023-1.539-2.001
		c0.127-0.977,1.022-1.667,2-1.539C111.082,178.283,111.771,179.179,111.644,180.157"/>
	<path fill="#99D2F0" d="M129.393,170.946c-0.128,0.978-1.023,1.667-2.001,1.539c-0.978-0.127-1.666-1.023-1.539-2.001
		c0.128-0.978,1.023-1.666,2.001-1.539C128.831,169.073,129.521,169.967,129.393,170.946"/>
	<path fill="#E7E6E6" d="M143.027,190.467c-0.128,0.978-1.023,1.666-2.001,1.539c-0.978-0.128-1.667-1.023-1.539-2.001
		c0.127-0.978,1.023-1.667,2.001-1.539C142.465,188.593,143.154,189.489,143.027,190.467"/>
	<path fill="#8D94C8" d="M123.686,13.831c0.592-0.788,1.711-0.948,2.499-0.355c0.789,0.591,0.948,1.709,0.356,2.498
		c-0.591,0.789-1.709,0.948-2.499,0.356C123.253,15.738,123.094,14.619,123.686,13.831"/>
	<path fill="#99D2F0" d="M103.702,13.125c0.592-0.789,1.711-0.948,2.499-0.356c0.789,0.592,0.948,1.71,0.356,2.499
		c-0.591,0.788-1.71,0.948-2.499,0.356C103.27,15.032,103.11,13.913,103.702,13.125"/>
	<path fill="#E7E6E6" d="M105.928,0.713c0.592-0.788,1.711-0.947,2.499-0.355c0.789,0.591,0.948,1.709,0.356,2.5
		c-0.591,0.787-1.71,0.946-2.499,0.355C105.496,2.622,105.336,1.502,105.928,0.713"/>
</g>
</svg>
