<?xml version="1.0" encoding="utf-8"?>
<!-- Generator: Adobe Illustrator 16.0.0, SVG Export Plug-In . SVG Version: 6.00 Build 0)  -->
<!DOCTYPE svg PUBLIC "-//W3C//DTD SVG 1.1//EN" "http://www.w3.org/Graphics/SVG/1.1/DTD/svg11.dtd">
<svg version="1.1" id="Layer_1" xmlns="http://www.w3.org/2000/svg" xmlns:xlink="http://www.w3.org/1999/xlink" x="0px" y="0px"
	 width="178.156px" height="188.173px" viewBox="0 0 178.156 188.173" enable-background="new 0 0 178.156 188.173"
	 xml:space="preserve">
<g>
	<path fill="#F1F1F9" d="M85.441,17.288c47.188,0,85.441,38.254,85.441,85.442s-38.253,85.442-85.441,85.442S0,149.919,0,102.73
		S38.253,17.288,85.441,17.288"/>
	<path fill="#8D94C8" d="M163.783,161.818c0.984,0,1.785,0.8,1.785,1.785c0,0.986-0.801,1.785-1.785,1.785
		c-0.986,0-1.785-0.799-1.785-1.785C161.998,162.618,162.796,161.818,163.783,161.818"/>
	<path fill="#99D2F0" d="M152.353,145.411c0.986,0,1.785,0.799,1.785,1.784c0,0.987-0.799,1.785-1.785,1.785
		c-0.984,0-1.784-0.798-1.784-1.785C150.569,146.21,151.369,145.411,152.353,145.411"/>
	<path fill="#E7E6E6" d="M176.371,124.494c0.984,0,1.785,0.799,1.785,1.784c0,0.987-0.801,1.785-1.785,1.785
		c-0.986,0-1.785-0.798-1.785-1.785C174.585,125.293,175.384,124.494,176.371,124.494"/>
	<path fill="#8D94C8" d="M26.973,58.094c0.986,0,1.785,0.799,1.785,1.784c0,0.987-0.799,1.785-1.785,1.785
		c-0.985,0-1.784-0.798-1.784-1.785C25.189,58.893,25.988,58.094,26.973,58.094"/>
	<path fill="#99D2F0" d="M15.544,41.686c0.986,0,1.785,0.799,1.785,1.785s-0.799,1.784-1.785,1.784
		c-0.985,0-1.785-0.798-1.785-1.784S14.56,41.686,15.544,41.686"/>
	<path fill="#E7E6E6" d="M39.562,20.769c0.985,0,1.784,0.799,1.784,1.785c0,0.985-0.799,1.784-1.784,1.784
		c-0.986,0-1.785-0.799-1.785-1.784C37.777,21.567,38.576,20.769,39.562,20.769"/>
	<path fill="#FFFFFF" d="M122.554,52.552c-0.723,0-1.409,0.215-2.033,0.593v7.199c0,1.972-0.174,3.902-0.491,5.783
		c0.748,0.599,1.601,0.969,2.524,0.969c2.846,0,5.15-3.255,5.15-7.271C127.704,55.809,125.398,52.552,122.554,52.552"/>
	<path fill="#FFFFFF" d="M51.391,60.344v-7.199c-0.624-0.38-1.311-0.593-2.033-0.593c-2.845,0-5.151,3.255-5.151,7.272
		c0,4.019,2.307,7.271,5.151,7.271c0.922,0,1.774-0.37,2.524-0.969C51.565,64.246,51.391,62.315,51.391,60.344"/>
	<path fill="#FFFFFF" d="M99.412,94.186c-0.807,6.721-6.518,11.933-13.455,11.933c-6.939,0-12.651-5.212-13.456-11.933
		c-22.62,2.067-40.34,21.077-40.34,44.235v25.878c0,4.429,3.591,8.02,8.02,8.02h11.265c-0.57-0.512-0.993-1.175-1.161-1.936
		c3.067-2.056,5.088-5.554,5.088-9.523v-0.294c0-4.012-2.065-7.537-5.187-9.585v-23.2c0-2.482,2.399-4.258,4.773-3.533l31.606,9.643
		l31.607-9.643c2.373-0.725,4.772,1.051,4.772,3.533v41.804c0,1.069-0.466,2.05-1.223,2.734h10.008c4.429,0,8.02-3.591,8.02-8.02
		v-25.878C139.75,115.263,122.032,96.253,99.412,94.186"/>
	<path fill="#F7F8F8" d="M98.403,97.938c-2.084,4.813-6.87,8.18-12.446,8.18c-5.577,0-10.366-3.368-12.448-8.18
		c-23.097,1.585-41.346,20.813-41.346,44.313V164.3c0,4.43,3.59,8.02,8.019,8.02h11.265c-0.57-0.512-0.992-1.174-1.161-1.935
		c3.068-2.056,5.089-5.553,5.089-9.524v-0.294c0-4.011-2.066-7.536-5.188-9.584V127.78c0-2.482,2.4-4.258,4.773-3.532l31.606,9.642
		l31.607-9.642c2.374-0.726,4.772,1.05,4.772,3.532v41.805c0,1.068-0.465,2.049-1.223,2.733h10.008c4.43,0,8.02-3.591,8.02-8.02
		v-22.047C139.75,118.751,121.501,99.523,98.403,97.938"/>
	<path fill="#FFFFFF" d="M85.957,94.909c-4.815,0-9.399-0.987-13.564-2.767v0.413c0,7.489,6.072,13.563,13.564,13.563
		c7.491,0,13.563-6.071,13.563-13.563v-0.413C95.354,93.922,90.771,94.909,85.957,94.909"/>
	<path fill="#FFFFFF" d="M93.817,39.243c-14.063-4.259-21.425-12.471-21.425-12.471s-3.109,6.032-8.597,9.286
		c-5.49,3.253-12.404,4.27-12.404,4.27v12.816v7.199c0,19.09,15.476,34.565,34.566,34.565c19.089,0,34.564-15.476,34.564-34.565
		v-7.199V42.228C120.521,42.228,106.146,42.979,93.817,39.243"/>
	<path fill="#FFFFFF" d="M116.538,161.092v-0.294c0-4.513,2.615-8.405,6.407-10.273v-22.512c0-2.481-2.398-4.258-4.772-3.533
		l-31.607,9.644l-31.606-9.644c-2.373-0.725-4.773,1.052-4.773,3.533v23.201c3.122,2.048,5.188,5.571,5.188,9.584v0.294
		c0,3.971-2.022,7.469-5.089,9.524c0.284,1.278,1.227,2.34,2.519,2.734l30.948,9.442c1.833,0.56,3.792,0.56,5.627,0l30.949-9.442
		c1.08-0.329,1.911-1.127,2.324-2.126C119.018,169.304,116.538,165.489,116.538,161.092"/>
	<path fill="#FFFFFF" d="M116.538,160.86v-0.294c0-4.513,2.615-8.405,6.407-10.273v-22.512c0-2.481-2.398-4.258-4.772-3.533
		l-31.607,9.644v49.091c0.949,0,1.898-0.14,2.814-0.419l30.949-9.443c1.08-0.329,1.911-1.126,2.324-2.125
		C119.018,169.072,116.538,165.258,116.538,160.86"/>
	<path fill="#6358A6" d="M43.916,149.106H32.163v15.192c0,4.429,3.59,8.02,8.02,8.02h3.733c6.329,0,11.459-5.13,11.459-11.459
		v-0.294C55.375,154.237,50.243,149.106,43.916,149.106"/>
	<path fill="#6358A6" d="M127.997,149.106c-6.329,0-11.459,5.13-11.459,11.459v0.294c0,6.329,5.13,11.459,11.459,11.459h3.733
		c4.43,0,8.02-3.591,8.02-8.02v-15.192H127.997z"/>
	<path fill="#3B2D61" d="M101.753,92.855c9.683-4.723,16.946-13.647,19.424-24.386c0.454,0.129,0.913,0.215,1.375,0.215
		c3.779,0,6.741-3.893,6.741-8.861c0-2.567-0.796-4.844-2.083-6.447V34.86C127.21,15.607,111.603,0,92.351,0h-12.79
		C60.308,0,44.7,15.607,44.7,34.86v18.516c-1.286,1.604-2.081,3.88-2.081,6.447c0,4.969,2.96,8.861,6.739,8.861
		c0.464,0,0.923-0.086,1.378-0.215c2.477,10.736,9.742,19.662,19.423,24.386c-22.718,3.149-39.585,22.362-39.585,45.566v10.686
		V164.3c0,0.331,0.018,0.658,0.049,0.98c0.493,4.839,4.592,8.628,9.56,8.628h10.711c0.439,0.304,0.911,0.565,1.447,0.728
		l30.948,9.443c1.072,0.327,2.174,0.492,3.277,0.492c1.105,0,2.205-0.165,3.278-0.492l30.947-9.441
		c0.534-0.162,1.006-0.426,1.442-0.729h9.497c4.968,0,9.067-3.789,9.561-8.628c0.033-0.322,0.05-0.649,0.05-0.98v-15.192v-10.686
		C141.338,115.218,124.474,96.005,101.753,92.855 M138.162,147.518h-10.165c-1.201,0-2.358,0.176-3.465,0.481V127.78
		c0-1.69-0.779-3.239-2.139-4.245c-1.357-1.008-3.065-1.302-4.685-0.808l-1.495,0.456c1.614-5.77,5.612-10.641,11.144-13.314
		c6.752,7.581,10.805,17.585,10.805,28.552V147.518z M138.162,164.3c0,3.546-2.887,6.431-6.433,6.431h-3.733
		c-5.443,0-9.871-4.427-9.871-9.87v-0.296c0-5.442,4.428-9.87,9.871-9.87h10.164V164.3H138.162z M97.769,94.521
		c-0.94,5.67-5.878,10.008-11.812,10.008c-5.935,0-10.875-4.337-11.815-10.008c0.133,0.046,0.271,0.076,0.407,0.12
		c0.794,0.266,1.595,0.512,2.413,0.722c0.081,0.021,0.163,0.036,0.246,0.057c0.845,0.212,1.703,0.388,2.57,0.537
		c0.097,0.017,0.193,0.037,0.289,0.051c0.923,0.152,1.858,0.266,2.801,0.347c0.066,0.006,0.13,0.01,0.194,0.015
		c0.957,0.076,1.919,0.125,2.895,0.125c0.975,0,1.937-0.049,2.893-0.125c0.065-0.005,0.131-0.01,0.197-0.017
		c0.943-0.081,1.876-0.193,2.797-0.346c0.097-0.017,0.194-0.035,0.291-0.053c0.869-0.149,1.726-0.327,2.574-0.538
		c0.079-0.02,0.16-0.035,0.239-0.056c0.821-0.212,1.627-0.46,2.426-0.727C97.504,94.596,97.64,94.564,97.769,94.521 M121.759,65.337
		c0.005-0.033,0.006-0.066,0.01-0.1c0.098-0.713,0.172-1.435,0.226-2.16c0.012-0.141,0.023-0.28,0.032-0.42
		c0.049-0.766,0.082-1.536,0.082-2.314v-6.156c2.082-0.454,4.007,2.319,4.007,5.635C126.116,63.323,123.994,66.289,121.759,65.337
		 M63.794,36.059c5.49-3.254,8.598-9.287,8.598-9.287s7.362,8.213,21.424,12.472c9.882,2.993,21.061,3.104,25.116,3.03v8.688h-7.505
		l0.082-1.365c0.027-0.436-0.128-0.866-0.429-1.185c-0.3-0.318-0.72-0.499-1.158-0.499H90.619c-0.436,0-0.856,0.181-1.158,0.499
		c-0.299,0.318-0.454,0.749-0.429,1.185l0.083,1.365h-6.792l0.083-1.365c0.027-0.436-0.129-0.866-0.429-1.185
		s-0.72-0.499-1.159-0.499H61.517c-0.437,0-0.857,0.181-1.159,0.499c-0.298,0.318-0.454,0.749-0.428,1.185l0.082,1.365h-7.033V40.03
		C55.342,39.534,59.917,38.355,63.794,36.059 M119.619,42.259h-0.037H119.619z M108.235,51.09l-0.392,6.414
		c-0.101,1.65-1.476,2.943-3.128,2.943h-8.889c-1.652,0-3.026-1.293-3.13-2.943l-0.392-6.414H108.235z M79.135,51.09l-0.393,6.412
		c-0.101,1.65-1.477,2.945-3.13,2.945h-8.887c-1.653,0-3.027-1.291-3.129-2.943l-0.392-6.414H79.135z M50.154,65.337
		c-2.246,0.952-4.357-2.014-4.357-5.514c0-3.08,1.63-5.683,3.561-5.683c0.15,0,0.297,0.018,0.446,0.049v6.154
		c0,0.779,0.033,1.548,0.082,2.315c0.009,0.14,0.02,0.28,0.032,0.419c0.054,0.727,0.129,1.446,0.226,2.161
		C50.147,65.271,50.148,65.304,50.154,65.337 M53.299,64.682c-0.057-0.438-0.125-0.874-0.165-1.31
		c-0.092-0.997-0.155-2.005-0.155-3.028v-6.203h7.229l0.218,3.556c0.203,3.324,2.968,5.927,6.299,5.927h8.888
		c3.328,0,6.096-2.604,6.301-5.927l0.218-3.556h7.178l0.218,3.557c0.205,3.323,2.973,5.926,6.301,5.926h8.889
		c3.33,0,6.095-2.604,6.299-5.927l0.217-3.556h7.701v6.203c0,1.022-0.062,2.029-0.155,3.028c-0.041,0.436-0.107,0.872-0.165,1.31
		c-1.554,11.741-9.276,21.565-19.825,26.039c-0.484,0.205-0.984,0.362-1.478,0.544c-0.517,0.19-1.022,0.405-1.553,0.57
		c-6.351,1.967-13.247,1.967-19.601,0c-0.788-0.246-1.551-0.547-2.311-0.849c-0.237-0.094-0.482-0.164-0.715-0.262
		C62.579,86.251,54.853,76.426,53.299,64.682 M44.555,109.872c5.398,2.612,9.339,7.314,11.026,12.905l-0.157-0.048
		c-1.62-0.497-3.328-0.2-4.685,0.807c-1.358,1.006-2.139,2.554-2.139,4.245v20.621c-1.456-0.563-3.032-0.884-4.683-0.884H33.752
		v-9.097C33.751,127.456,37.803,117.453,44.555,109.872 M43.916,170.729h-3.735c-3.546,0-6.431-2.884-6.431-6.431v-13.604h10.164
		c5.442,0,9.87,4.428,9.87,9.87v0.296C53.786,166.302,49.357,170.729,43.916,170.729 M53.267,171.597
		c-0.419-0.127-0.766-0.381-1.024-0.702c2.882-2.396,4.721-6.004,4.721-10.034v-0.296c0-4.241-2.043-8.005-5.19-10.39V127.78
		c0-0.676,0.311-1.292,0.852-1.69c0.542-0.402,1.224-0.521,1.869-0.321l5.09,1.552c0.844,0.255,1.728-0.219,1.984-1.056
		c0.254-0.839-0.217-1.729-1.056-1.984l-1.351-0.412c-1.465-6.969-5.924-12.988-12.283-16.404
		c6.436-6.174,14.843-10.347,24.317-11.529c1.541,6.731,7.567,11.772,14.759,11.772c7.191,0,13.216-5.041,14.757-11.772
		c9.474,1.181,17.879,5.354,24.316,11.526c-6.481,3.48-10.987,9.665-12.363,16.807l-26.102,7.962l-10.855-3.311
		c-0.844-0.259-1.729,0.216-1.982,1.055c-0.256,0.839,0.215,1.727,1.054,1.982l10.195,3.111v46.148
		c-0.254-0.051-0.51-0.095-0.761-0.171L53.267,171.597z M88.915,181.043c-0.251,0.076-0.506,0.121-0.762,0.172v-46.15l30.483-9.298
		c0.646-0.193,1.326-0.079,1.868,0.323c0.542,0.4,0.851,1.016,0.851,1.69v21.573c-3.827,2.277-6.405,6.444-6.405,11.211v0.295
		c0,4.324,2.124,8.154,5.374,10.529c-0.142,0.086-0.294,0.159-0.461,0.21L88.915,181.043z"/>
	<path fill="#3B2D61" d="M70.707,58.964c1.909,0,3.457-1.548,3.457-3.457c0-1.91-1.548-3.457-3.457-3.457s-3.457,1.547-3.457,3.457
		C67.25,57.416,68.797,58.964,70.707,58.964"/>
	<path fill="#3B2D61" d="M101.204,58.964c1.91,0,3.457-1.548,3.457-3.457c0-1.91-1.547-3.457-3.457-3.457
		c-1.909,0-3.456,1.547-3.456,3.457C97.748,57.416,99.296,58.964,101.204,58.964"/>
	<path fill="#3B2D61" d="M85.957,72.48c3.042,0,5.519-2.479,5.519-5.521v-2.303c0-0.879-0.71-1.589-1.589-1.589
		c-0.878,0-1.589,0.71-1.589,1.589v2.303c0,1.293-1.05,2.344-2.341,2.344c-1.292,0-2.344-1.051-2.344-2.344v-2.303
		c0-0.879-0.71-1.589-1.589-1.589c-0.878,0-1.588,0.71-1.588,1.589v2.303C80.436,70.002,82.913,72.48,85.957,72.48"/>
	<path fill="#3B2D61" d="M98.565,45.042l6.769,1.179c0.093,0.017,0.183,0.024,0.274,0.024c0.76,0,1.428-0.545,1.563-1.315
		c0.151-0.864-0.429-1.689-1.292-1.839l-6.767-1.179c-0.875-0.142-1.688,0.431-1.838,1.292
		C97.122,44.068,97.701,44.892,98.565,45.042"/>
	<path fill="#3B2D61" d="M66.304,46.245c0.091,0,0.182-0.008,0.275-0.024l6.769-1.179c0.864-0.15,1.442-0.974,1.292-1.838
		c-0.151-0.862-0.958-1.435-1.838-1.292l-6.769,1.179c-0.865,0.151-1.443,0.975-1.292,1.839
		C64.874,45.7,65.545,46.245,66.304,46.245"/>
	<path fill="#3B2D61" d="M86.566,81.513c5.703,0,8.795-3.998,8.924-4.168c0.527-0.696,0.39-1.685-0.302-2.217
		c-0.691-0.528-1.685-0.4-2.225,0.291c-0.091,0.119-2.314,2.917-6.395,2.917c-4.161,0-6.271-2.747-6.377-2.886
		c-0.514-0.705-1.503-0.865-2.213-0.353c-0.712,0.514-0.872,1.507-0.359,2.218C77.741,77.487,80.715,81.513,86.566,81.513"/>
	<path fill="#3B2D61" d="M70.516,127.333l-4.997-1.524c-0.842-0.263-1.728,0.218-1.982,1.055c-0.257,0.839,0.215,1.727,1.054,1.982
		l4.997,1.525c0.156,0.048,0.31,0.069,0.464,0.069c0.682,0,1.311-0.439,1.519-1.124C71.828,128.479,71.356,127.589,70.516,127.333"
		/>
</g>
</svg>
