<?xml version="1.0" encoding="utf-8"?>
<!-- Generator: Adobe Illustrator 16.0.0, SVG Export Plug-In . SVG Version: 6.00 Build 0)  -->
<!DOCTYPE svg PUBLIC "-//W3C//DTD SVG 1.1//EN" "http://www.w3.org/Graphics/SVG/1.1/DTD/svg11.dtd">
<svg version="1.1" id="Layer_1" xmlns="http://www.w3.org/2000/svg" xmlns:xlink="http://www.w3.org/1999/xlink" x="0px" y="0px"
	 width="170.883px" height="178.438px" viewBox="0 0 170.883 178.438" enable-background="new 0 0 170.883 178.438"
	 xml:space="preserve">
<g>
	<path fill="#F1F1F9" d="M85.442,0c47.188,0,85.441,38.254,85.441,85.442c0,47.189-38.253,85.443-85.441,85.443S0,132.631,0,85.442
		C0,38.254,38.254,0,85.442,0"/>
	<path fill="#FFFFFF" d="M62.824,161.653c-0.144-1.944-1.44-3.603-3.385-4.104l-8.716-2.162l-5.258-2.594H35.019l-5.257,2.594
		l-8.789,2.162c-1.873,0.502-3.241,2.16-3.384,4.104l-0.721,13.254c-0.071,0.935,0.648,1.656,1.513,1.729h0.071h43.436
		c0.936,0,1.656-0.721,1.656-1.657v-0.072L62.824,161.653z"/>
	<path fill="#FFFFFF" d="M109.501,161.653c-0.144-1.944-1.441-3.603-3.386-4.104l-8.788-2.235l-5.258-2.593H81.696l-5.258,2.593
		l-8.788,2.235c-1.873,0.502-3.242,2.16-3.386,4.104l-0.721,13.254c-0.071,0.935,0.649,1.656,1.515,1.729h0.071h43.435
		c0.937,0,1.657-0.721,1.657-1.657v-0.072L109.501,161.653z"/>
	<path fill="#FFFFFF" d="M156.178,161.653c-0.145-1.944-1.439-3.603-3.387-4.104l-8.787-2.235l-5.259-2.593h-10.373l-5.257,2.593
		l-8.789,2.235c-1.872,0.502-3.241,2.16-3.384,4.104l-0.721,13.254c-0.071,0.935,0.648,1.656,1.513,1.729h0.071h43.436
		c0.938,0,1.658-0.721,1.658-1.657v-0.072L156.178,161.653z"/>
	<path fill="#F7F8F8" d="M116.921,86.379l-1.226-21.681c-0.143-2.449-1.873-4.539-4.25-5.114l-11.02-2.809l-6.628-3.242
		l-2.232,6.411c-0.144,0.361-0.504,0.647-0.865,0.647h-6.842c-0.432,0-0.721-0.215-0.866-0.647l-2.232-6.411l-6.627,3.242
		l-11.022,2.809c-2.376,0.575-4.105,2.665-4.25,5.114l-1.223,21.681c-0.072,1.585,1.152,2.953,2.737,3.025h0.144h53.592
		c1.584,0,2.881-1.296,2.881-2.881C116.921,86.523,116.921,86.451,116.921,86.379"/>
	<path fill="#F0EFEF" d="M131.759,92.862c0-1.873-1.513-3.458-3.458-3.458H45.464c-1.873,0.073-3.385,1.657-3.313,3.529
		c0.071,1.801,1.512,3.242,3.313,3.314h82.908C130.246,96.32,131.759,94.807,131.759,92.862"/>
	<rect x="45.465" y="96.321" fill="#6358A6" width="82.908" height="11.092"/>
	<path fill="#F9D0B5" d="M43.808,145.662l-0.217,0.072c-2.449,0.72-5.042,0.72-7.42,0l-0.287-0.072
		c-2.666-0.793-5.042-2.377-6.843-4.538c0.648,2.81,2.376,5.259,4.826,6.843c0.72,0.432,1.081,1.225,1.081,2.018v2.736h10.373v-2.81
		c0-0.792,0.36-1.513,1.008-2.017c2.521-1.799,4.249-4.538,4.754-7.563C49.426,142.926,46.832,144.797,43.808,145.662"/>
	<path fill="#F9D0B5" d="M54.685,129.959c-0.433,3.241-1.369,6.339-2.81,9.292h1.224c2.595,0.433,4.971-1.297,5.402-3.89
		c0.074-0.216,0.074-0.431,0.074-0.72C58.575,132.408,56.917,130.463,54.685,129.959"/>
	<path fill="#F9D0B5" d="M25.08,130.03c-2.234,0.433-3.818,2.45-3.818,4.683c0.072,2.592,2.161,4.681,4.754,4.61
		c0.216,0,0.432,0,0.72-0.072h1.08C26.375,136.37,25.439,133.2,25.08,130.03"/>
	<path fill="#F9D0B5" d="M90.484,145.662l-0.215,0.072c-2.449,0.72-5.042,0.72-7.42,0l-0.288-0.072
		c-2.665-0.793-5.043-2.377-6.844-4.538c0.65,2.81,2.378,5.259,4.828,6.843c0.72,0.432,1.081,1.225,1.081,2.018v2.736h10.371v-2.81
		c0-0.792,0.36-1.513,1.008-2.017c2.522-1.799,4.25-4.538,4.754-7.563C96.103,142.926,93.51,144.797,90.484,145.662"/>
	<path fill="#F9D0B5" d="M101.361,129.959c-0.432,3.241-1.367,6.339-2.809,9.292h1.153c2.593,0.433,4.97-1.297,5.402-3.89
		c0.072-0.216,0.072-0.431,0.072-0.72C105.251,132.408,103.595,130.463,101.361,129.959"/>
	<path fill="#F9D0B5" d="M71.756,130.03c-2.233,0.433-3.817,2.45-3.817,4.683c0.072,2.592,2.161,4.681,4.754,4.61
		c0.214,0,0.431,0,0.72-0.072h1.08C73.053,136.37,72.115,133.2,71.756,130.03"/>
	<path fill="#F9D0B5" d="M137.162,145.662l-0.217,0.072c-2.449,0.72-5.042,0.72-7.418,0l-0.289-0.072
		c-2.666-0.793-5.042-2.377-6.843-4.538c0.649,2.81,2.376,5.259,4.827,6.843c0.719,0.432,1.08,1.225,1.08,2.018v2.736h10.516v-2.81
		c0-0.792,0.361-1.513,1.009-2.017c2.521-1.799,4.25-4.538,4.754-7.563C142.78,142.926,140.187,144.797,137.162,145.662"/>
	<path fill="#F9D0B5" d="M148.039,129.959c-0.433,3.241-1.369,6.339-2.81,9.292h1.152c2.594,0.433,4.971-1.297,5.402-3.89
		c0.072-0.216,0.072-0.431,0.072-0.72C151.928,132.408,150.27,130.463,148.039,129.959"/>
	<path fill="#F9D0B5" d="M118.433,130.03c-2.232,0.433-3.818,2.45-3.818,4.683c0.072,2.592,2.161,4.681,4.754,4.61
		c0.216,0,0.433,0,0.72-0.072h1.08C119.729,136.37,118.793,133.2,118.433,130.03"/>
	<path fill="#F9D0B5" d="M102.155,24.792c-0.289,0-0.649,0-0.937,0.071c0,0.289,0.072,0.649,0.072,0.938v9.796
		c0,0.288,0,0.648-0.072,0.936c3.241,0.504,6.266-1.657,6.842-4.898c0.504-3.241-1.657-6.267-4.898-6.843H102.155z"/>
	<path fill="#F9D0B5" d="M72.836,35.597v-9.796c0-0.289,0-0.648,0.071-0.937c-3.241-0.576-6.265,1.657-6.842,4.899
		c-0.576,3.241,1.657,6.266,4.898,6.843c0.649,0.143,1.298,0.143,2.018,0C72.836,36.245,72.836,35.885,72.836,35.597"/>
	<path fill="#F9D0B5" d="M89.189,18.309c-5.187,6.555-12.822,5.619-15.416,5.043c-0.432-0.072-0.792,0.143-0.937,0.576v0.144v11.453
		c0,7.852,6.412,14.19,14.192,14.19c7.85,0,14.189-6.338,14.189-14.19V22.918v-0.216c0-0.432-0.36-0.72-0.72-0.72
		c-5.906-0.144-9.004-2.522-10.228-3.674C89.981,17.949,89.548,17.949,89.189,18.309"/>
	<path fill="#F9D0B5" d="M87.028,49.786c-2.234,0-4.396-0.503-6.34-1.512v5.259l2.233,6.411c0.145,0.361,0.505,0.647,0.865,0.647
		h6.844c0.431,0,0.719-0.286,0.863-0.647l2.233-6.411v-5.475C91.71,49.211,89.404,49.786,87.028,49.786"/>
	<path fill="#6E6D6C" d="M55.045,125.709c0-6.411-5.26-11.598-11.671-11.669h-3.312c-2.305,0-4.394,1.224-5.546,3.17
		c-1.369-0.865-3.027-1.081-4.611-0.794c-3.025,0.648-5.186,3.387-5.114,6.483v3.027c0,3.529,0.575,6.986,1.729,10.3l0.287,0.865
		c1.441,4.177,4.827,7.347,9.077,8.498l0.287,0.073c2.449,0.721,5.043,0.721,7.42,0l0.217-0.073c4.249-1.224,7.634-4.394,9.076-8.57
		l0.432-1.154C54.468,132.623,55.045,129.167,55.045,125.709"/>
	<path fill="#6E6D6C" d="M101.721,125.709c0-6.411-5.258-11.598-11.669-11.669h-3.313c-2.306,0-4.394,1.224-5.547,3.17
		c-1.367-0.865-3.025-1.081-4.61-0.794c-3.025,0.648-5.186,3.387-5.115,6.483v3.027c0,3.529,0.577,6.986,1.73,10.3l0.288,0.865
		c1.44,4.177,4.825,7.347,9.076,8.498l0.288,0.073c2.449,0.721,5.042,0.721,7.42,0l0.215-0.073c4.251-1.224,7.635-4.394,9.076-8.57
		l0.433-1.154C101.146,132.623,101.721,129.167,101.721,125.709"/>
	<path fill="#6E6D6C" d="M148.399,125.709c0-6.411-5.26-11.598-11.669-11.669h-3.314c-2.305,0-4.394,1.224-5.546,3.17
		c-1.369-0.865-3.026-1.081-4.611-0.794c-3.025,0.648-5.186,3.387-5.114,6.483v3.027c0,3.529,0.577,6.986,1.729,10.3l0.289,0.865
		c1.44,4.177,4.825,7.347,9.075,8.498l0.289,0.073c2.447,0.721,5.042,0.721,7.418,0l0.217-0.073c4.25-1.224,7.635-4.394,9.076-8.57
		l0.433-1.154C147.822,132.623,148.399,129.167,148.399,125.709"/>
	<path fill="#2B275E" d="M71.901,24.792c0.287,0,0.575,0,0.936,0.071v-0.648c0-0.432,0.36-0.721,0.792-0.721h0.144
		c2.594,0.506,10.229,1.442,15.416-5.042c0.286-0.36,0.72-0.36,1.08-0.143c0,0,0.071,0,0.071,0.072
		c1.225,1.152,4.323,3.529,10.229,3.673c0.432,0,0.721,0.36,0.721,0.72v0.217v1.872c1.8-0.288,3.673,0.289,5.042,1.586V15.716
		c0-4.467-3.674-8.14-8.139-8.14c-1.441,0-2.882,0.432-4.179,1.152c-1.44-2.448-4.105-3.961-6.986-3.961h-4.179
		c-8.067,0.073-14.623,6.628-14.623,14.694v6.555C69.235,25.224,70.532,24.792,71.901,24.792"/>
	<path fill="#2B275E" d="M65.146,174.77l-0.72-13.25c-0.138-2.616-2.03-4.881-4.602-5.506l-8.574-2.162l-5.153-2.536
		c-0.196-0.13-0.444-0.195-0.703-0.195H35.02c-0.259,0-0.507,0.065-0.68,0.183l-5.138,2.534l-8.611,2.177
		c-2.574,0.625-4.466,2.89-4.603,5.506l-0.72,13.254v0.205c0,1.798,1.461,3.259,3.256,3.259l43.437-0.013l0.056-0.058l0.08-0.003
		c0.845-0.031,1.63-0.408,2.209-1.059C64.88,176.46,65.18,175.631,65.146,174.77 M18.458,175.036l0.732-13.25
		c0.08-1.271,0.951-2.328,2.167-2.632l8.787-2.305c0.043-0.027,0.106-0.047,0.168-0.068c0.046-0.016,0.092-0.03,0.154-0.061
		l4.986-2.472l9.599,0.021l4.897,2.451c0.043,0.021,0.08,0.043,0.115,0.063c0.08,0.045,0.107,0.061,0.156,0.061l8.838,2.237
		c1.216,0.306,2.088,1.362,2.167,2.631l0.731,13.324H18.458z"/>
	<path fill="#2B275E" d="M61.984,178.237c-0.007,0-0.016,0.002-0.023,0.005v0.195L61.984,178.237z"/>
	<path fill="#2B275E" d="M35.02,154.393h10.374c0.736,0,1.465-0.555,1.671-1.268v-3.141c0-0.298,0.191-0.488,0.343-0.643
		c2.933-2.079,4.848-5.152,5.423-8.683c0.125-0.625-0.109-1.208-0.644-1.608c-0.746-0.497-1.712-0.333-2.239,0.39
		c-1.664,2.27-3.979,3.908-6.518,4.614l-0.206,0.068c-2.203,0.586-4.48,0.587-6.6,0.003l-0.283-0.07
		c-2.353-0.662-4.487-2.068-6.014-3.959c-0.297-0.395-0.763-0.617-1.251-0.617c-0.116,0-0.233,0.012-0.35,0.039
		c-0.419,0.09-0.775,0.338-1.004,0.698c-0.232,0.364-0.309,0.81-0.214,1.222c0.783,3.205,2.8,6.049,5.531,7.799
		c0.137,0.131,0.381,0.408,0.381,0.746v2.377C33.419,154.04,34.29,154.393,35.02,154.393 M36.081,147.342
		c2.684,0.727,5.36,0.701,7.958-0.07l0.273-0.082c0.067-0.037,0.133-0.072,0.217-0.072h0.393l-0.232,0.318
		c-0.579,0.797-0.898,1.701-0.898,2.549v1.207h-7.171v-1.207c0-0.809-0.269-1.638-0.756-2.334l-0.315-0.453L36.081,147.342z"/>
	<path fill="#2B275E" d="M43.449,112.511h-3.316c-2.335,0.07-4.459,1.019-5.974,2.672l-0.091,0.1l-0.126-0.047
		c-0.802-0.296-1.694-0.446-2.61-0.446c-0.555,0-1.118,0.055-1.675,0.166c-3.763,0.851-6.394,4.148-6.394,8.015v3.026
		c0,3.611,0.626,7.249,1.862,10.81l0.289,0.869c1.552,4.59,5.326,8.15,10.092,9.521l0.284,0.072
		c1.456,0.383,2.806,0.568,4.129,0.568c1.275,0,2.689-0.191,4.202-0.568l0.199-0.069c4.721-1.338,8.521-4.926,10.177-9.602
		l0.432-1.155c1.187-3.349,1.788-6.938,1.788-10.663C56.717,118.463,50.765,112.511,43.449,112.511 M51.776,135.283l-0.434,1.157
		c-1.226,3.61-4.211,6.431-7.982,7.54l-0.207,0.07c-1.104,0.295-2.227,0.44-3.338,0.44c-1.107,0-2.205-0.146-3.263-0.437
		l-0.285-0.072c-3.751-1.104-6.661-3.852-7.99-7.545l-0.29-0.869c-1.106-3.168-1.666-6.437-1.666-9.715v-3.17
		c0-2.652,2.19-4.81,4.882-4.81c0.769,0,1.552,0.213,2.466,0.67c0.782,0.453,1.737,0.201,2.187-0.571
		c0.814-1.481,2.399-2.404,4.134-2.404h3.313c5.553,0,10.07,4.517,10.07,10.069C53.373,129,52.836,132.246,51.776,135.283"/>
	<path fill="#2B275E" d="M53.083,129.771c-0.433,3.029-1.311,5.956-2.61,8.701c-0.122,0.187-0.198,0.496-0.198,0.779
		c0,0.897,0.703,1.601,1.601,1.601h1.08c0.313,0.072,0.581,0.072,0.864,0.072c1.712,0,3.306-0.663,4.486-1.867
		c1.145-1.17,1.758-2.711,1.725-4.34c0-3.077-2.096-5.663-5.098-6.291l-0.033,0.004c-0.083-0.013-0.165-0.018-0.247-0.018
		c-0.346,0-0.676,0.109-0.948,0.31C53.364,128.976,53.143,129.348,53.083,129.771 M54.498,137.308
		c0.533-1.402,0.979-2.902,1.361-4.584l0.091-0.397l0.259,0.315c0.537,0.652,0.789,1.512,0.692,2.358
		c-0.091,0.799-0.477,1.496-1.086,1.96c-0.294,0.298-0.676,0.452-1.046,0.601l-0.424,0.171L54.498,137.308z"/>
	<path fill="#2B275E" d="M19.662,134.641c0,3.465,2.818,6.283,6.282,6.283c0.28,0,0.629,0,0.97-0.068l1.048-0.004
		c0.256,0,0.515-0.065,0.773-0.195c0.761-0.444,1.015-1.4,0.566-2.17c-1.378-2.754-2.257-5.685-2.619-8.721l-0.001-0.167
		c-0.168-0.704-0.84-1.209-1.58-1.209c-0.112,0-0.225,0.012-0.339,0.036C21.759,129.054,19.662,131.609,19.662,134.641
		 M25.197,137.315l0.153,0.461l-0.433-0.219c-0.308-0.156-0.6-0.304-0.894-0.524c-0.641-0.53-1.041-1.277-1.132-2.111
		c-0.09-0.839,0.146-1.65,0.666-2.282l0.259-0.313l0.09,0.396C24.252,134.241,24.674,135.744,25.197,137.315"/>
	<path fill="#2B275E" d="M111.823,174.77l-0.721-13.25c-0.137-2.616-2.029-4.881-4.602-5.506l-8.573-2.162l-5.153-2.536
		c-0.198-0.13-0.446-0.195-0.704-0.195H81.697c-0.26,0-0.508,0.065-0.68,0.183l-5.139,2.534l-8.61,2.177
		c-2.573,0.625-4.466,2.89-4.605,5.506l-0.72,13.254l0.001,0.205c0,1.798,1.461,3.259,3.257,3.259l43.437-0.013l0.056-0.058
		l0.079-0.003C110.524,178.098,111.891,176.574,111.823,174.77 M65.135,175.036l0.658-13.321c0.079-1.271,0.951-2.328,2.169-2.634
		l8.787-2.231c0.043-0.027,0.105-0.047,0.166-0.068c0.046-0.016,0.092-0.03,0.154-0.061l4.988-2.472l9.669,0.021l4.898,2.451
		c0.042,0.021,0.078,0.041,0.113,0.061c0.079,0.046,0.109,0.063,0.159,0.063l8.836,2.237c1.217,0.306,2.089,1.362,2.168,2.631
		l0.732,13.324H65.135z"/>
	<path fill="#2B275E" d="M108.661,178.237c-0.007,0-0.015,0.002-0.023,0.005v0.195L108.661,178.237z"/>
	<path fill="#2B275E" d="M99.58,140.66c0.125-0.625-0.11-1.209-0.643-1.609c-0.748-0.497-1.713-0.332-2.24,0.39
		c-1.663,2.269-3.978,3.907-6.518,4.614l-0.207,0.068c-2.202,0.586-4.48,0.586-6.599,0.002l-0.283-0.069
		c-2.352-0.662-4.486-2.067-6.015-3.959c-0.296-0.394-0.762-0.617-1.251-0.617c-0.116,0-0.234,0.013-0.351,0.039
		c-0.418,0.09-0.773,0.337-1.002,0.697c-0.231,0.365-0.309,0.81-0.214,1.223c0.784,3.206,2.799,6.05,5.531,7.802
		c0.137,0.129,0.381,0.406,0.381,0.744v2.376c0,1.679,0.87,2.032,1.6,2.032h10.373c0.786,0,1.538-0.73,1.675-1.631l-0.003-2.777
		c0-0.301,0.194-0.492,0.348-0.646C97.088,147.264,99.003,144.189,99.58,140.66 M91.367,147.436
		c-0.579,0.797-0.897,1.702-0.897,2.549v1.207h-7.172v-1.207c0-0.809-0.268-1.638-0.756-2.335l-0.316-0.45l0.533,0.143
		c2.553,0.691,5.231,0.666,7.962-0.071l0.269-0.081c0.066-0.038,0.132-0.07,0.215-0.07h0.392L91.367,147.436z"/>
	<path fill="#2B275E" d="M90.053,112.511H86.74c-2.337,0.07-4.461,1.019-5.975,2.672l-0.091,0.1l-0.126-0.047
		c-0.802-0.296-1.696-0.446-2.612-0.446c-0.554,0-1.117,0.055-1.673,0.166c-3.764,0.851-6.396,4.148-6.396,8.015v3.026
		c0,3.611,0.627,7.249,1.863,10.81l0.288,0.869c1.627,4.597,5.429,8.16,10.166,9.521l0.283,0.072c2.916,0.766,5.346,0.765,8.256,0
		l0.203-0.069c4.75-1.347,8.549-4.935,10.174-9.601l0.434-1.156c1.187-3.347,1.788-6.935,1.788-10.663
		C103.322,118.463,97.37,112.511,90.053,112.511 M98.454,135.283l-0.434,1.157c-1.228,3.611-4.213,6.431-7.982,7.54l-0.209,0.07
		c-1.104,0.295-2.226,0.44-3.337,0.44c-1.107,0-2.205-0.146-3.264-0.437l-0.284-0.072c-3.752-1.104-6.661-3.852-7.989-7.545
		l-0.29-0.87c-1.107-3.17-1.668-6.439-1.668-9.714v-3.17c0-2.652,2.19-4.81,4.882-4.81c0.77,0,1.554,0.213,2.468,0.67
		c0.78,0.453,1.736,0.202,2.186-0.571c0.815-1.481,2.4-2.404,4.135-2.404h3.313c5.552,0,10.069,4.517,10.069,10.069
		C100.05,129.002,99.513,132.248,98.454,135.283"/>
	<path fill="#2B275E" d="M101.608,128.426l-0.031,0.004c-0.083-0.013-0.165-0.019-0.247-0.019c-0.347,0-0.677,0.109-0.948,0.311
		c-0.342,0.253-0.564,0.625-0.624,1.048c-0.342,2.87-1.196,5.717-2.611,8.702c-0.121,0.186-0.195,0.497-0.195,0.779
		c0,0.897,0.703,1.601,1.601,1.601h1.08c0.311,0.072,0.58,0.072,0.864,0.072c1.712,0,3.306-0.663,4.485-1.868
		c1.146-1.169,1.759-2.71,1.726-4.339C106.708,131.64,104.612,129.054,101.608,128.426 M102.497,136.956
		c-0.301,0.302-0.684,0.456-1.053,0.605l-0.425,0.17l0.156-0.423c0.532-1.397,0.976-2.897,1.361-4.584l0.09-0.397l0.259,0.315
		c0.523,0.633,0.772,1.43,0.703,2.241C103.517,135.699,103.129,136.435,102.497,136.956"/>
	<path fill="#2B275E" d="M66.338,134.641c0,3.465,2.818,6.283,6.283,6.283c0.279,0,0.627,0,0.968-0.068l1.048-0.004
		c0.257,0,0.517-0.065,0.775-0.195c0.361-0.211,0.626-0.555,0.733-0.961c0.109-0.407,0.048-0.837-0.168-1.208
		c-1.379-2.759-2.258-5.69-2.62-8.722l-0.001-0.167c-0.166-0.704-0.838-1.209-1.579-1.209c-0.112,0-0.226,0.012-0.34,0.036
		C68.436,129.054,66.338,131.61,66.338,134.641 M71.875,137.315l0.152,0.459l-0.432-0.217c-0.301-0.151-0.598-0.301-0.895-0.524
		c-0.641-0.529-1.041-1.277-1.132-2.111c-0.09-0.839,0.146-1.65,0.665-2.281l0.259-0.315l0.091,0.397
		C70.923,134.226,71.347,135.728,71.875,137.315"/>
	<path fill="#2B275E" d="M155.314,178.438l0.024-0.2c0.014-0.007,0.041-0.021,0.102-0.052l0.082-0.021
		c1.751-0.066,3.119-1.59,3.05-3.395l-0.72-13.25c-0.139-2.616-2.031-4.881-4.602-5.506l-8.574-2.162l-5.153-2.536
		c-0.196-0.13-0.445-0.195-0.705-0.195h-10.444c-0.26,0-0.508,0.065-0.681,0.183l-5.138,2.534l-8.611,2.177
		c-2.574,0.625-4.466,2.89-4.603,5.506l-0.72,13.254v0.205c0,1.798,1.462,3.259,3.258,3.259h43.435V178.438z M111.812,175.036
		l0.659-13.321c0.079-1.271,0.95-2.328,2.167-2.634l8.788-2.231c0.043-0.027,0.105-0.047,0.167-0.068
		c0.046-0.016,0.093-0.03,0.155-0.061l4.985-2.472l9.671,0.021l4.898,2.451c0.043,0.021,0.079,0.043,0.114,0.062
		c0.08,0.046,0.106,0.062,0.156,0.062l8.838,2.237c1.215,0.306,2.088,1.362,2.168,2.631l0.731,13.324H111.812z"/>
	<path fill="#2B275E" d="M146.257,140.731c0.124-0.625-0.11-1.209-0.644-1.609c-0.748-0.498-1.715-0.333-2.239,0.39
		c-1.666,2.27-3.98,3.907-6.518,4.612l-0.209,0.07c-2.202,0.59-4.48,0.588-6.598,0.004l-0.284-0.072
		c-2.353-0.662-4.487-2.067-6.013-3.958c-0.296-0.394-0.762-0.617-1.251-0.617c-0.116,0-0.234,0.013-0.351,0.038
		c-0.418,0.09-0.773,0.337-1.003,0.698c-0.231,0.364-0.31,0.81-0.214,1.223c0.783,3.205,2.799,6.049,5.532,7.8
		c0.138,0.133,0.381,0.413,0.381,0.745v2.735c0,0.898,0.703,1.602,1.6,1.602h10.371c0.681,0,1.394-0.546,1.674-1.275v-3.062
		c0-0.298,0.191-0.489,0.343-0.644C143.764,147.338,145.68,144.264,146.257,140.731 M138.043,147.436
		c-0.579,0.796-0.897,1.701-0.897,2.549v1.207h-7.172v-1.207c0-0.811-0.269-1.64-0.756-2.335l-0.317-0.45l0.533,0.143
		c2.683,0.726,5.362,0.699,7.959-0.07l1.017-0.34L138.043,147.436z"/>
	<path fill="#2B275E" d="M136.802,112.511h-3.314c-2.337,0.07-4.461,1.019-5.975,2.672l-0.091,0.1l-0.126-0.047
		c-0.802-0.296-1.695-0.446-2.611-0.446c-0.555,0-1.118,0.055-1.675,0.166c-3.763,0.851-6.394,4.148-6.394,8.015v3.026
		c0,3.611,0.626,7.249,1.862,10.81l0.289,0.869c1.554,4.59,5.329,8.151,10.094,9.521l0.282,0.072
		c1.457,0.383,2.806,0.568,4.129,0.568c1.311,0,2.646-0.181,4.202-0.568l0.199-0.069c4.722-1.338,8.521-4.926,10.177-9.602
		l0.432-1.155c1.188-3.346,1.789-6.934,1.789-10.663C150.071,118.463,144.119,112.511,136.802,112.511 M145.129,135.283
		l-0.434,1.157c-1.227,3.611-4.211,6.431-7.982,7.54l-0.207,0.07c-1.104,0.295-2.226,0.44-3.337,0.44
		c-1.108,0-2.206-0.146-3.264-0.437l-0.285-0.072c-3.751-1.104-6.661-3.852-7.99-7.545l-0.29-0.869
		c-1.106-3.168-1.666-6.437-1.666-9.715v-3.17c0-2.652,2.19-4.81,4.882-4.81c0.769,0,1.552,0.213,2.466,0.67
		c0.781,0.453,1.737,0.201,2.187-0.571c0.814-1.481,2.399-2.404,4.134-2.404h3.313c5.553,0,10.071,4.517,10.071,10.069
		C146.727,129,146.19,132.246,145.129,135.283"/>
	<path fill="#2B275E" d="M146.435,129.771c-0.433,3.029-1.31,5.956-2.608,8.701c-0.123,0.186-0.199,0.496-0.199,0.779
		c0,0.897,0.703,1.601,1.602,1.601h1.08c0.314,0.072,0.581,0.072,0.865,0.072c1.713,0,3.307-0.663,4.486-1.868
		c1.146-1.169,1.758-2.71,1.724-4.339c0-3.077-2.097-5.663-5.099-6.291l-0.031,0.004c-0.082-0.013-0.166-0.018-0.248-0.018
		c-0.346,0-0.676,0.109-0.949,0.311C146.715,128.976,146.497,129.348,146.435,129.771 M147.852,137.308
		c0.538-1.414,0.971-2.87,1.359-4.584l0.092-0.396l0.259,0.313c0.537,0.652,0.79,1.512,0.692,2.357
		c-0.09,0.8-0.477,1.497-1.086,1.962c-0.295,0.298-0.676,0.452-1.045,0.6l-0.424,0.172L147.852,137.308z"/>
	<path fill="#2B275E" d="M113.015,134.641c0,3.465,2.818,6.283,6.282,6.283c0.352,0,0.629,0,0.97-0.068l1.048-0.004
		c0.258,0,0.512-0.063,0.774-0.195c0.361-0.211,0.626-0.554,0.734-0.961c0.108-0.407,0.047-0.837-0.168-1.209
		c-1.379-2.754-2.258-5.685-2.62-8.721l-0.001-0.167c-0.168-0.704-0.84-1.209-1.58-1.209c-0.112,0-0.225,0.012-0.339,0.036
		C115.112,129.054,113.015,131.609,113.015,134.641 M118.552,137.315l0.153,0.46l-0.433-0.218c-0.303-0.152-0.599-0.301-0.896-0.524
		c-0.641-0.53-1.041-1.277-1.132-2.111c-0.09-0.839,0.146-1.65,0.666-2.282l0.259-0.313l0.09,0.396
		C117.606,134.247,118.029,135.749,118.552,137.315"/>
	<path fill="#2B275E" d="M109.592,29.504c-0.632-4.143-4.422-6.887-8.633-6.244c-0.841,0.131-1.407,0.829-1.343,1.66l0.001,11.54
		c-0.065,0.848,0.501,1.546,1.342,1.677h0.035c0.181,0,0.373,0.017,0.565,0.034c0.572,0.05,1.267,0.07,1.78-0.033
		C107.492,37.504,110.234,33.712,109.592,29.504 M103.062,34.928l-0.244,0.056v-8.57l0.245,0.056c1.668,0.379,2.94,1.65,3.32,3.319
		C106.902,32.091,105.413,34.396,103.062,34.928"/>
	<path fill="#2B275E" d="M73.094,23.259c-0.418-0.069-0.759-0.069-1.193-0.069c-4.14,0-7.508,3.368-7.508,7.507
		c0,4.14,3.368,7.509,7.508,7.509c0.434,0,0.775,0,1.191-0.07c0.845-0.131,1.41-0.829,1.346-1.661l-0.001-11.541
		C74.502,24.087,73.937,23.391,73.094,23.259 M71.236,34.983l-0.244-0.056c-1.669-0.38-2.942-1.652-3.32-3.32
		c-0.52-2.302,0.97-4.606,3.32-5.139l0.244-0.054V34.983z"/>
	<path fill="#2B275E" d="M71.236,35.597c0,8.707,7.084,15.79,15.792,15.79c8.676,0,15.791-7.052,15.862-15.72V22.702
		c0-1.255-0.972-2.253-2.26-2.321c-5.478-0.147-8.213-2.307-9.134-3.227c-0.479-0.48-1.146-0.726-1.784-0.664
		c-0.68,0.001-1.337,0.33-1.732,0.858c-4.801,5.945-11.845,4.924-13.89,4.47c-0.148-0.068-0.344-0.068-0.462-0.068
		c-1.319,0-2.392,1.073-2.392,2.393V35.597z M74.437,25.136l0.23,0.035c2.791,0.424,9.843,0.788,15.02-4.978l0.126-0.14l0.147,0.116
		c1.678,1.328,4.684,2.986,9.472,3.343l0.185,0.014v12.071c0,6.941-5.648,12.589-12.589,12.589c-6.943,0-12.591-5.648-12.591-12.589
		V25.136z"/>
	<path fill="#2B275E" d="M87.243,70.244c-0.144,0-0.215,0-0.36-0.072c-0.144,0-0.215-0.072-0.36-0.072
		c-0.072-0.072-0.216-0.072-0.289-0.145c-0.071-0.071-0.215-0.144-0.287-0.215c-0.073-0.072-0.144-0.144-0.217-0.288
		c-0.071-0.072-0.142-0.217-0.142-0.289c-0.074-0.071-0.074-0.215-0.074-0.36c0-0.143,0-0.215-0.072-0.36
		c0-0.143,0-0.216,0.072-0.36c0-0.144,0.074-0.216,0.074-0.36c0.071-0.144,0.071-0.215,0.142-0.289
		c0.073-0.072,0.144-0.215,0.217-0.287c0.721-0.648,1.801-0.648,2.522,0c0.36,0.361,0.503,0.792,0.503,1.296
		c0,0.145,0,0.217-0.072,0.36c0,0.145-0.071,0.216-0.071,0.36c-0.146,0.36-0.36,0.648-0.649,0.792
		c-0.072,0.073-0.216,0.145-0.289,0.145C87.675,70.172,87.459,70.244,87.243,70.244"/>
	<path fill="#2B275E" d="M87.243,77.808c-0.504,0-0.936-0.216-1.296-0.504c-0.073-0.072-0.144-0.145-0.217-0.288
		c-0.071-0.072-0.142-0.217-0.142-0.289c-0.074-0.215-0.146-0.432-0.146-0.72c0-0.504,0.217-0.935,0.505-1.296
		c0.433-0.433,1.008-0.577,1.656-0.505c0.145,0,0.217,0.072,0.361,0.145c0.144,0.071,0.216,0.071,0.288,0.144
		c0.072,0.071,0.217,0.143,0.288,0.216c0.36,0.361,0.504,0.792,0.504,1.296c0,0.145,0,0.216-0.072,0.36
		c0,0.145-0.072,0.216-0.072,0.36c-0.071,0.072-0.071,0.217-0.144,0.289c-0.073,0.071-0.144,0.216-0.216,0.288
		C88.18,77.664,87.748,77.808,87.243,77.808"/>
	<path fill="#2B275E" d="M87.243,85.442c-0.144,0-0.215,0-0.36-0.071c-0.215-0.073-0.432-0.144-0.649-0.289
		c-0.071-0.072-0.215-0.144-0.287-0.215c-0.359-0.361-0.505-0.792-0.505-1.298c0-0.143,0-0.215,0.072-0.359
		c0-0.144,0.074-0.216,0.074-0.361c0.071-0.143,0.071-0.216,0.142-0.288c0.073-0.072,0.144-0.216,0.217-0.287
		c0.721-0.648,1.801-0.648,2.522,0c0.071,0.071,0.143,0.144,0.214,0.287c0.073,0.072,0.146,0.216,0.146,0.288
		c0.071,0.145,0.071,0.217,0.071,0.361s0,0.216,0.072,0.359c0,0.506-0.216,0.937-0.503,1.298c-0.074,0.071-0.145,0.143-0.289,0.215
		c-0.072,0.073-0.216,0.145-0.289,0.145c-0.143,0.071-0.216,0.071-0.36,0.071C87.459,85.442,87.389,85.442,87.243,85.442"/>
	<path fill="#2B275E" d="M103.882,73.613c-0.897,0-1.601,0.703-1.601,1.601v13.182c0,0.898,0.704,1.601,1.601,1.601
		s1.601-0.703,1.601-1.601V75.214C105.483,74.316,104.779,73.613,103.882,73.613"/>
	<path fill="#2B275E" d="M70.172,73.613c-0.897,0-1.601,0.703-1.601,1.601v13.182c0,0.898,0.704,1.601,1.601,1.601
		s1.601-0.703,1.601-1.601V75.214C71.773,74.316,71.069,73.613,70.172,73.613"/>
	<path fill="#2B275E" d="M93.035,46.718c-1.827,1.022-3.847,1.541-6.007,1.541c-1.989,0-3.886-0.444-5.637-1.318
		c-0.196-0.129-0.444-0.196-0.703-0.196c-0.898,0-1.601,0.703-1.601,1.601v5.259c0,0.211,0,0.328,0.062,0.513l2.232,6.408
		c0.326,1.043,1.291,1.739,2.406,1.739h6.842c1.081,0,2.055-0.686,2.48-1.748l2.228-6.402c0.061-0.126,0.061-0.321,0.061-0.51V48.13
		c0-0.256-0.066-0.517-0.194-0.776C94.749,46.578,93.776,46.286,93.035,46.718 M92.186,53.382l-1.992,5.682h-5.903l-2.002-5.747
		v-2.575l0.257,0.078c3.039,0.917,6.286,0.868,9.389-0.143l0.262-0.086L92.186,53.382z"/>
	<path fill="#2B275E" d="M73.572,55.296l-10.915,2.752c-3.081,0.77-5.329,3.478-5.468,6.586l-1.224,21.684v0.277
		c0,2.472,2.011,4.483,4.482,4.483H114.4c2.403-0.139,4.329-2.319,4.194-4.76l-1.226-21.682c-0.211-3.175-2.407-5.823-5.465-6.588
		l-10.878-2.738l-6.491-3.169c-0.057-0.01-0.105-0.033-0.142-0.052h-0.037l-0.052-0.028c-0.816-0.314-1.717,0.11-2.047,0.966
		l-2.061,5.963h-5.905l-2.073-6.035c-0.029-0.049-0.055-0.099-0.065-0.156c-0.279-0.525-0.839-0.834-1.41-0.834
		c-0.233,0-0.467,0.051-0.685,0.16L73.572,55.296z M81.382,60.602c0.326,0.979,1.314,1.663,2.404,1.663h6.843
		c1.109-0.07,2.08-0.768,2.403-1.737l1.66-4.753l5.03,2.476c0.044,0.022,0.079,0.043,0.112,0.063
		c0.081,0.047,0.109,0.061,0.159,0.061l11.07,2.816c1.706,0.371,2.955,1.869,3.031,3.641l1.226,21.764
		c0,0.683-0.598,1.28-1.281,1.28H60.375c-0.722,0-1.209-0.7-1.209-1.353l1.225-21.692c0.073-1.675,1.318-3.173,3.028-3.639
		l11.026-2.811c0.041-0.025,0.102-0.046,0.163-0.067c0.046-0.016,0.093-0.03,0.156-0.063l5.033-2.478L81.382,60.602z"/>
	<path fill="#2B275E" d="M133.288,92.995c0.069-2.751-2.138-5.049-4.919-5.119H45.464c-2.684,0.069-4.845,2.23-4.914,4.919
		c-0.068,2.756,2.138,5.056,4.919,5.126h82.901C130.99,97.85,133.15,95.687,133.288,92.995 M128.39,94.719L45.464,94.72
		c-1.024-0.087-1.784-0.854-1.784-1.786c0-0.958,0.776-1.773,1.768-1.855l0.016-0.001h82.909c1.025,0.084,1.786,0.851,1.786,1.785
		C130.159,93.82,129.382,94.635,128.39,94.719"/>
	<path fill="#2B275E" d="M128.374,94.72H45.465c-0.898,0-1.601,0.703-1.601,1.601v11.091c0,0.898,0.703,1.601,1.601,1.601h82.909
		c0.867,0,1.6-0.733,1.6-1.601V96.321C129.974,95.423,129.271,94.72,128.374,94.72 M126.772,105.812H47.064v-7.891h79.708V105.812z"
		/>
	<path fill="#E7E6E6" d="M-10.125,90.197c0.985,0,1.785,0.8,1.785,1.785c0,0.986-0.8,1.785-1.785,1.785
		c-0.986,0-1.785-0.799-1.785-1.785C-11.911,90.997-11.111,90.197-10.125,90.197"/>
	<path fill="#8D94C8" d="M17.053,72.803c0.985,0,1.785,0.8,1.785,1.785c0,0.986-0.8,1.785-1.785,1.785
		c-0.986,0-1.785-0.799-1.785-1.785C15.268,73.603,16.067,72.803,17.053,72.803"/>
	<path fill="#99D2F0" d="M34.243,81.382c0.986,0,1.785,0.8,1.785,1.785c0,0.986-0.799,1.785-1.785,1.785
		c-0.985,0-1.784-0.799-1.784-1.785C32.458,82.182,33.258,81.382,34.243,81.382"/>
	<path fill="#8D94C8" d="M153.006,53.591c0.984,0,1.785,0.799,1.785,1.785c0,0.986-0.801,1.784-1.785,1.784
		c-0.986,0-1.785-0.798-1.785-1.784C151.221,54.39,152.02,53.591,153.006,53.591"/>
	<path fill="#99D2F0" d="M141.077,37.473c0.986,0,1.785,0.799,1.785,1.785c0,0.986-0.799,1.784-1.785,1.784
		c-0.985,0-1.784-0.798-1.784-1.784C139.292,38.271,140.092,37.473,141.077,37.473"/>
	<path fill="#E7E6E6" d="M165.594,16.266c0.984,0,1.785,0.799,1.785,1.785c0,0.986-0.801,1.784-1.785,1.784
		c-0.986,0-1.785-0.798-1.785-1.784C163.809,17.064,164.608,16.266,165.594,16.266"/>
	<path fill="#3B2D61" d="M87.314,43.557c2.135,0,3.292-1.497,3.341-1.561c0.197-0.26,0.146-0.63-0.113-0.83
		c-0.259-0.197-0.631-0.149-0.832,0.11c-0.036,0.044-0.868,1.092-2.395,1.092c-1.558,0-2.347-1.029-2.387-1.082
		c-0.192-0.262-0.562-0.323-0.829-0.13c-0.265,0.191-0.326,0.563-0.134,0.83C84.011,42.05,85.125,43.557,87.314,43.557"/>
	<path fill="#3B2D61" d="M82.428,30.743c0,0.961-0.779,1.739-1.74,1.739c-0.961,0-1.739-0.778-1.739-1.739s0.778-1.74,1.739-1.74
		C81.649,29.003,82.428,29.782,82.428,30.743"/>
	<path fill="#3B2D61" d="M95.465,30.743c0,0.961-0.779,1.739-1.739,1.739c-0.961,0-1.74-0.778-1.74-1.739s0.779-1.74,1.74-1.74
		C94.687,29.003,95.465,29.782,95.465,30.743"/>
</g>
</svg>
