<?xml version="1.0" encoding="utf-8"?>
<!-- Generator: Adobe Illustrator 22.0.0, SVG Export Plug-In . SVG Version: 6.00 Build 0)  -->
<svg version="1.1" id="Layer_1" xmlns="http://www.w3.org/2000/svg" xmlns:xlink="http://www.w3.org/1999/xlink" x="0px" y="0px"
	 viewBox="0 0 301.9 170" style="enable-background:new 0 0 301.9 170;" xml:space="preserve">
<style type="text/css">
	.st0{fill:#FCEBA7;}
	.st1{fill:#EAD9FF;}
	.st2{fill:#B0FFF9;}
	.st3{fill:#5809D3;}
	.st4{fill:#282828;}
	.st5{fill:#4F50FB;}
	.st6{fill:#4F50FB;stroke:#4F50FB;stroke-width:0.5;stroke-miterlimit:10;}
	.st7{fill:#231F20;}
	.st8{fill:#686868;}
	.st9{fill:#7C09CE;}
	.st10{fill:#242526;}
	.st11{fill:url(#SVGID_1_);}
	.st12{fill:#22D37A;}
	.st13{fill:#13E841;}
	.st14{fill:#640BB2;}
	.st15{fill:#2B2B2B;}
	.st16{fill:#FF7300;}
	.st17{fill:#444444;}
	.st18{fill:#FFF8B3;}
	.st19{fill:#5C0BB2;}
	.st20{opacity:0.5;}
	.st21{fill:#C0C0C0;}
	.st22{fill:#1DB9EC;}
	.st23{fill:#E81853;}
	.st24{fill:none;}
	.st25{fill:#FEFDFF;}
	.st26{opacity:0.38;fill:#4F50FB;}
	.st27{fill:none;stroke:#444444;stroke-width:4;stroke-linecap:round;stroke-miterlimit:10;}
	.st28{fill-rule:evenodd;clip-rule:evenodd;fill:#013B6E;}
	.st29{opacity:0.73;fill:#FCEBA7;}
	.st30{fill:#FFF097;}
	.st31{opacity:0.73;fill:#F9EDDC;}
	.st32{fill:#D9EBFF;}
	.st33{fill:#0C6EBF;}
	.st34{fill:#ED6A07;}
	.st35{fill:#FFFFFF;}
	.st36{fill-rule:evenodd;clip-rule:evenodd;fill:url(#SVGID_2_);}
	.st37{fill-rule:evenodd;clip-rule:evenodd;fill:#FACFA6;}
	.st38{fill-rule:evenodd;clip-rule:evenodd;fill:url(#SVGID_3_);}
	.st39{fill:#E8D8B7;}
	.st40{fill-rule:evenodd;clip-rule:evenodd;fill:#EE7F67;}
	.st41{fill:url(#SVGID_4_);}
	.st42{fill:url(#SVGID_5_);}
	.st43{fill-rule:evenodd;clip-rule:evenodd;fill:url(#SVGID_6_);}
	.st44{fill:url(#SVGID_7_);}
	.st45{fill-rule:evenodd;clip-rule:evenodd;fill:url(#SVGID_8_);}
	.st46{fill-rule:evenodd;clip-rule:evenodd;fill:#A7E4F9;}
	.st47{fill:#242526;stroke:#FFFFFF;stroke-width:0.43;stroke-miterlimit:10;}
	.st48{fill-rule:evenodd;clip-rule:evenodd;fill:url(#SVGID_9_);}
	.st49{fill-rule:evenodd;clip-rule:evenodd;fill:#D2F2FC;}
	.st50{fill-rule:evenodd;clip-rule:evenodd;fill:url(#SVGID_10_);}
	.st51{fill:#333333;stroke:#FFFFFF;stroke-width:0.43;stroke-miterlimit:10;}
	.st52{fill:#2D2D2D;}
	.st53{fill-rule:evenodd;clip-rule:evenodd;fill:#FFFFFF;}
	.st54{opacity:0.46;fill-rule:evenodd;clip-rule:evenodd;fill:#939393;}
	.st55{fill:url(#SVGID_11_);}
</style>
<g>
	<path class="st8" d="M35.4,131.9c0-5.8,4.8-10.5,10.6-10.5c2.5,0,4.8,0.9,6.6,2.3c1,0.8,1.1,2.2,0.5,3.1c-0.8,1-2.2,1.2-3.1,0.4
		c-1.1-0.8-2.4-1.3-4-1.3c-3.4,0-6.2,2.8-6.2,6c0,3.2,2.8,6,6.2,6c1.5,0,2.9-0.5,4-1.3c0.9-0.7,2.3-0.5,3.1,0.5
		c0.7,0.9,0.5,2.3-0.5,3.1c-1.8,1.3-4.1,2.2-6.6,2.2C40.3,142.3,35.4,137.6,35.4,131.9z"/>
	<path class="st8" d="M60.2,113c1.3,0,2.3,1,2.3,2.3V140c0,1.3-1,2.3-2.3,2.3c-1.3,0-2.3-1-2.3-2.3v-24.7
		C57.9,114.1,58.9,113,60.2,113z"/>
	<path class="st8" d="M84.8,131.9v8.2c0,1.2-1,2.2-2.2,2.2c-1.1,0-1.9-0.8-2.2-1.8c-1.6,1.1-3.5,1.8-5.6,1.8c-2.8,0-5.3-1.2-7.1-3.1
		c-1.8-1.9-2.8-4.5-2.8-7.4c0-2.9,1-5.5,2.8-7.4c1.8-1.9,4.3-3.1,7.1-3.1c2.1,0,4,0.7,5.6,1.8c0.3-1,1.1-1.8,2.2-1.8
		c1.2,0,2.2,1,2.2,2.3V131.9z M80.4,131.9c0-1.8-0.6-3.3-1.6-4.3c-1-1.1-2.4-1.7-3.9-1.7c-1.5,0-2.9,0.6-3.9,1.7
		c-1,1-1.6,2.5-1.6,4.3c0,1.7,0.6,3.2,1.6,4.3c1,1,2.4,1.6,3.9,1.6c1.5,0,2.9-0.6,3.9-1.6C79.8,135.1,80.4,133.6,80.4,131.9z"/>
	<path class="st8" d="M88.9,136.3c0.8-1,2.2-1.1,3.1-0.3c1.1,0.9,3,1.9,4.6,1.8c1.1,0,2.2-0.4,2.8-0.8c0.6-0.5,0.8-0.9,0.8-1.3
		c0-0.2,0-0.3-0.1-0.4c0-0.1-0.2-0.3-0.5-0.5c-0.6-0.4-1.8-0.9-3.3-1.2h0c-1.3-0.3-2.6-0.6-3.6-1.1c-1.1-0.5-2.1-1.3-2.9-2.4
		c-0.5-0.8-0.7-1.7-0.7-2.6c0-1.9,1.1-3.6,2.5-4.6c1.5-1,3.2-1.5,5.1-1.5c2.9,0,4.9,1.4,6.3,2.3c1,0.7,1.3,2,0.7,3.1
		c-0.7,1-2,1.3-3.1,0.6c-1.3-0.9-2.5-1.5-3.8-1.5c-1,0-2,0.3-2.5,0.8c-0.5,0.4-0.7,0.8-0.7,1c0,0.2,0,0.2,0.1,0.3
		c0,0.1,0.2,0.3,0.5,0.4c0.5,0.4,1.6,0.8,3.1,1l0,0h0c1.4,0.3,2.7,0.6,3.9,1.2c1.1,0.5,2.3,1.3,3,2.5c0.5,0.8,0.8,1.8,0.8,2.8
		c0,2-1.1,3.8-2.6,4.8c-1.5,1-3.4,1.7-5.4,1.7c-3.3,0-5.8-1.5-7.4-2.9C88.2,138.7,88.1,137.2,88.9,136.3z"/>
	<path class="st8" d="M108.2,136.3c0.8-1,2.2-1.1,3.1-0.3c1.1,0.9,3,1.9,4.6,1.8c1.1,0,2.2-0.4,2.8-0.8c0.6-0.5,0.8-0.9,0.8-1.3
		c0-0.2,0-0.3-0.1-0.4c0-0.1-0.2-0.3-0.5-0.5c-0.6-0.4-1.8-0.9-3.3-1.2h0c-1.3-0.3-2.6-0.6-3.6-1.1c-1.1-0.5-2.1-1.3-2.9-2.4
		c-0.5-0.8-0.7-1.7-0.7-2.6c0-1.9,1.1-3.6,2.5-4.6c1.5-1,3.2-1.5,5.1-1.5c2.9,0,4.9,1.4,6.3,2.3c1,0.7,1.3,2,0.7,3.1
		c-0.7,1-2,1.3-3.1,0.6c-1.3-0.9-2.5-1.5-3.8-1.5c-1,0-2,0.3-2.5,0.8c-0.5,0.4-0.7,0.8-0.7,1c0,0.2,0,0.2,0.1,0.3
		c0,0.1,0.2,0.3,0.5,0.4c0.5,0.4,1.6,0.8,3.1,1l0,0h0c1.4,0.3,2.7,0.6,3.9,1.2c1.1,0.5,2.3,1.3,3,2.5c0.5,0.8,0.8,1.8,0.8,2.8
		c0,2-1.1,3.8-2.6,4.8c-1.5,1-3.4,1.7-5.4,1.7c-3.3,0-5.8-1.5-7.4-2.9C107.6,138.7,107.4,137.2,108.2,136.3z"/>
</g>
<path class="st9" d="M60.6,60c-2.4-1.1-5-1.6-7.8-1.6c-5.3,0-9.8,1.9-13.6,5.6c-3.7,3.7-5.6,8.2-5.6,13.5c0,5.3,1.9,9.8,5.6,13.6
	c3.7,3.7,8.3,5.8,13.6,5.6c17.8-0.8,24.9-14.2,28.6-17.9c0,0,0.1-0.1,0.1-0.1c1.2-1.2,2.8-1.9,4.6-1.9c1.8,0,3.4,0.6,4.7,1.9
	c1.3,1.3,1.9,2.8,1.9,4.6c0,1.8-0.6,3.4-1.9,4.7c0,0-0.1,0.1-0.1,0.1c-6.2,6.2-15.3,20.9-37.8,21.7c-8.9,0.3-16.5-3.1-22.8-9.4
	c-6.3-6.3-9.4-13.9-9.4-22.8s3.1-16.5,9.4-22.8c6.3-6.3,13.9-9.4,22.8-9.4s16.5,3.1,22.7,9.4l-0.1,0.1c0,0,0,0.1,0.1,0.1
	c1.2,1.2,1.9,2.8,1.9,4.6c0,1.8-0.6,3.3-1.9,4.5L57.1,82.3c-1.3,1.2-2.8,1.9-4.7,1.9c-1.9,0-3.4-0.6-4.7-1.9
	c-1.2-1.3-1.9-2.9-1.9-4.7c0-1.8,0.6-3.4,1.9-4.7L60.6,60z M144.6,77.1c-0.1,8.8-3.2,16.3-9.4,22.5c-6.3,6.3-13.9,9.4-22.8,9.4
	s-16.5-3.1-22.8-9.4c-6.3-6.3-9.4-13.9-9.4-22.8s3.1-16.5,9.4-22.8c6.3-6.3,13.9-9.4,22.8-9.4c7.2,0,13.5,2.1,19.1,6.2v-19
	c0-1.8,0.6-3.4,1.9-4.7c1.3-1.3,2.8-1.9,4.7-1.9c1.8,0,3.4,0.6,4.7,1.9c1.3,1.3,1.9,2.8,1.9,4.7V77.1z M131.5,78.1
	c0-0.4-0.1-0.8-0.1-1.2v-2.5c-0.5-4.3-2.3-8.1-5.5-11.2c-3.7-3.7-8.3-5.6-13.6-5.6c-5.3,0-9.8,1.9-13.5,5.6
	c-3.7,3.7-5.6,8.3-5.6,13.6c0,5.3,1.9,9.8,5.6,13.5c3.7,3.7,8.2,5.6,13.5,5.6c5.3,0,9.8-1.9,13.6-5.6
	C129.4,86.9,131.3,82.8,131.5,78.1z"/>
<path class="st9" d="M160.4,38.1c-1.8,0-3.4-0.6-4.7-1.9c-1.3-1.3-1.9-2.8-1.9-4.7s0.6-3.4,1.9-4.7c1.3-1.3,2.8-1.9,4.7-1.9
	s3.4,0.6,4.7,1.9c1.3,1.3,1.9,2.8,1.9,4.7s-0.6,3.4-1.9,4.7C163.8,37.4,162.2,38.1,160.4,38.1z M160.4,109c-1.8,0-3.4-0.6-4.7-1.9
	c-1.3-1.3-1.9-2.8-1.9-4.7V50.7c0-1.8,0.6-3.4,1.9-4.7c1.3-1.3,2.8-1.9,4.7-1.9s3.4,0.6,4.7,1.9c1.3,1.3,1.9,2.8,1.9,4.7v51.7
	c0,1.8-0.6,3.4-1.9,4.7C163.8,108.3,162.2,109,160.4,109z"/>
<path class="st9" d="M188.8,44.3v-9.6c0-4.4,1.6-8.2,4.7-11.4c3.1-3.2,7-4.7,11.4-4.7c1.8,0,3.3,0.6,4.6,1.9
	c1.3,1.2,1.9,2.8,1.9,4.6c0,1.8-0.6,3.3-1.9,4.6c-1.3,1.3-2.8,1.9-4.6,1.9c-0.9,0-1.7,0.3-2.3,1c-0.6,0.6-0.9,1.4-0.9,2.3v9.6h18.6
	c1.8,0,3.4,0.6,4.7,1.9c1.3,1.3,1.9,2.8,1.9,4.7c0,1.8-0.6,3.4-1.9,4.7c-1.3,1.3-2.8,1.9-4.7,1.9h-18.4v45c0,1.8-0.6,3.4-1.9,4.7
	c-1.3,1.3-2.8,1.9-4.7,1.9c-1.8,0-3.4-0.6-4.7-1.9c-1.3-1.3-1.9-2.8-1.9-4.7v-45h-7.4c-1.8,0-3.4-0.6-4.7-1.9
	c-1.3-1.3-1.9-2.8-1.9-4.7c0-1.8,0.6-3.4,1.9-4.7c1.3-1.3,2.8-1.9,4.7-1.9H188.8z M214.6,53.9c-0.5-0.9-0.8-2-0.8-3.1
	c0-1.8,0.6-3.3,1.9-4.6c1.2-1.2,2.8-1.9,4.6-1.9c1.8,0,3.3,0.6,4.6,1.9c0.7,0.7,1.2,1.5,1.5,2.4l19.8,39.5l19.7-39.5
	c0.3-0.9,0.8-1.7,1.6-2.4c1.2-1.2,2.8-1.9,4.6-1.9c1.8,0,3.3,0.6,4.6,1.9c1.3,1.2,1.9,2.8,1.9,4.6c0,1-0.2,2-0.6,2.8l-38.2,76.8
	c-0.4,0.9-1,1.7-1.7,2.4c-1.3,1.3-2.8,1.9-4.6,1.9c-1.8,0-3.3-0.6-4.6-1.9c-1.2-1.3-1.9-2.8-1.9-4.6c0-1.4,0.3-2.6,0.8-3.7
	l11.3-22.1L214.6,53.9z"/>
</svg>
