<?xml version="1.0" encoding="utf-8"?>
<!-- Generator: Adobe Illustrator 16.0.0, SVG Export Plug-In . SVG Version: 6.00 Build 0)  -->
<!DOCTYPE svg PUBLIC "-//W3C//DTD SVG 1.1//EN" "http://www.w3.org/Graphics/SVG/1.1/DTD/svg11.dtd">
<svg version="1.1" id="Layer_1" xmlns="http://www.w3.org/2000/svg" xmlns:xlink="http://www.w3.org/1999/xlink" x="0px" y="0px"
	 width="74px" height="74px" viewBox="0 0 74 74" enable-background="new 0 0 74 74" xml:space="preserve">
<path fill="#FFD234" d="M74,37c0,20.436-16.565,37-37,37C16.565,74,0,57.436,0,37C0,16.565,16.565,0,37,0C57.435,0,74,16.565,74,37"
	/>
<path fill="#FFFFFF" d="M36.999,4c-18.224,0-33,14.774-33,33c0,18.225,14.776,33,33,33c18.227,0,33-14.775,33-33
	C69.999,18.774,55.226,4,36.999,4 M47.597,37.451L31.693,48.418c-0.094,0.064-0.202,0.098-0.311,0.098
	c-0.088,0-0.176-0.021-0.256-0.063c-0.179-0.095-0.293-0.281-0.293-0.486V26.032c0-0.204,0.114-0.392,0.293-0.485
	c0.18-0.094,0.399-0.082,0.567,0.033l15.904,10.969c0.148,0.102,0.236,0.271,0.236,0.451C47.833,37.18,47.745,37.348,47.597,37.451"
	/>
</svg>
