<?xml version="1.0" encoding="UTF-8"?>
<!-- Generator: Adobe Illustrator 22.0.0, SVG Export Plug-In . SVG Version: 6.00 Build 0)  -->
<svg version="1.1" id="Layer_1" xmlns="http://www.w3.org/2000/svg" xmlns:xlink="http://www.w3.org/1999/xlink" x="0px" y="0px" viewBox="0 0 62.8 32" style="enable-background:new 0 0 62.8 32;" xml:space="preserve">
<style type="text/css">
	.st0{fill:#FFD231;}
</style>
<g>
	<polygon points="0.1,0.5 18.2,0.5 18.2,8.3 18.2,31.6 8.8,31.6 8.8,8.3 0.1,8.3  "/>
	<polygon points="62.5,31.6 44.5,31.6 44.5,23.8 44.5,0.5 53.8,0.5 53.8,23.8 62.5,23.8  "/>
	<g>
		<path d="M27.7,22.6c-1.4-0.3-2.5-0.7-3.6-1.4c-1.1-0.7-1.9-1.6-2.7-2.6c-0.7-1-1.3-2.1-1.7-3.4c-0.4-1.2-0.6-2.5-0.6-3.7    c0-2,0.3-3.6,0.9-4.9c0.6-1.3,1.4-2.3,2.1-3s1.5-1.4,2.3-1.8c0.9-0.4,1.6-0.8,2.5-1.1c0.8-0.2,1.6-0.4,2.4-0.5    c0.7-0.1,1.4-0.1,1.9-0.1c1.8,0,3.4,0.3,4.9,0.9c1.5,0.6,2.7,1.5,3.8,2.6c1.1,1.1,1.9,2.4,2.4,3.9c0.6,1.5,0.9,3,0.9,4.6    c0,1.7-0.4,3.4-0.9,5c-0.6,1.6-1.4,3.1-2.4,4.7c-1,1.5-2.1,3.1-3.2,4.5c-1.1,1.5-2.3,3-3.4,4.5c-0.1,0.2-0.4,0.4-0.7,0.6    c-0.3,0.1-0.6,0.3-0.9,0.3h-8.4c-0.3,0-0.5-0.1-0.6-0.3c-0.1-0.1-0.1-0.4,0.1-0.6l5.4-7.4c0.1-0.2,0.2-0.4,0.1-0.6    C28.2,22.8,28,22.6,27.7,22.6"/>
		<path class="st0" d="M31.4,8.4c1.8,0,3.1,1.4,3.1,3.1s-1.4,3.1-3.1,3.1c-1.8,0-3.1-1.4-3.1-3.1S29.6,8.4,31.4,8.4"/>
	</g>
</g>
</svg>