<?xml version="1.0" encoding="utf-8"?>
<!-- Generator: Adobe Illustrator 16.0.0, SVG Export Plug-In . SVG Version: 6.00 Build 0)  -->
<!DOCTYPE svg PUBLIC "-//W3C//DTD SVG 1.1//EN" "http://www.w3.org/Graphics/SVG/1.1/DTD/svg11.dtd">
<svg version="1.1" id="Capa_1" xmlns="http://www.w3.org/2000/svg" xmlns:xlink="http://www.w3.org/1999/xlink" x="0px" y="0px"
	 width="62px" height="62px" viewBox="169 169 62 62" enable-background="new 169 169 62 62" xml:space="preserve">
<g>
	<path fill="#00AF43" d="M200,169c-17.093,0-31,13.907-31,31c0,17.094,13.906,31,31,31s31-13.906,31-31
		C231,182.907,217.093,169,200,169z M200,225.065c-13.821,0-25.065-11.244-25.065-25.065s11.244-25.065,25.065-25.065
		c13.822,0,25.066,11.244,25.066,25.065S213.821,225.065,200,225.065z"/>
	<path fill="#00AF43" d="M210.154,189.472l-14.763,14.762l-5.546-5.545c-1.121-1.12-3.075-1.12-4.196,0.001
		c-1.157,1.157-1.157,3.039,0,4.196l7.646,7.645c0.561,0.56,1.305,0.867,2.096,0.867c0.736,0,1.431-0.266,1.975-0.752l0.079-0.073
		c0.015-0.014,0.03-0.028,0.045-0.043l16.86-16.861c0.561-0.56,0.869-1.305,0.869-2.098s-0.309-1.538-0.869-2.098
		C213.229,188.351,211.273,188.352,210.154,189.472z"/>
</g>
</svg>
